<?xml version="1.0" encoding="UTF-8"?>
<svg xmlns="http://www.w3.org/2000/svg" xmlns:xlink="http://www.w3.org/1999/xlink" width="32px" height="32px" viewBox="0 0 32 32" version="1.1">
<g id="surface1">
<path style=" stroke:none;fill-rule:nonzero;fill:rgb(0%,42.745098%,16.078432%);fill-opacity:1;" d="M 4.585938 5.746094 C 4.636719 5.746094 4.636719 5.746094 4.6875 5.742188 C 4.742188 5.742188 4.742188 5.742188 4.796875 5.746094 C 4.835938 5.742188 4.875 5.742188 4.914062 5.742188 C 5.023438 5.742188 5.132812 5.742188 5.242188 5.742188 C 5.363281 5.742188 5.480469 5.742188 5.597656 5.742188 C 5.832031 5.742188 6.070312 5.742188 6.304688 5.742188 C 6.585938 5.742188 6.867188 5.742188 7.148438 5.742188 C 7.832031 5.742188 8.511719 5.742188 9.191406 5.742188 C 9.515625 5.742188 9.835938 5.742188 10.160156 5.742188 C 11.261719 5.742188 12.363281 5.738281 13.464844 5.738281 C 13.535156 5.738281 13.605469 5.738281 13.675781 5.738281 C 13.707031 5.738281 13.742188 5.738281 13.777344 5.738281 C 13.953125 5.738281 14.125 5.738281 14.300781 5.738281 C 14.351562 5.738281 14.351562 5.738281 14.40625 5.738281 C 15.523438 5.738281 16.644531 5.738281 17.761719 5.738281 C 18.945312 5.738281 20.128906 5.734375 21.3125 5.734375 C 21.441406 5.734375 21.570312 5.734375 21.699219 5.734375 C 21.734375 5.734375 21.765625 5.734375 21.796875 5.734375 C 22.3125 5.734375 22.828125 5.734375 23.34375 5.734375 C 23.859375 5.734375 24.375 5.734375 24.894531 5.734375 C 25.203125 5.734375 25.507812 5.734375 25.816406 5.734375 C 26.019531 5.734375 26.226562 5.734375 26.433594 5.734375 C 26.550781 5.734375 26.664062 5.734375 26.78125 5.734375 C 27.734375 5.730469 28.578125 5.894531 29.277344 6.582031 C 29.304688 6.609375 29.335938 6.636719 29.363281 6.667969 C 29.386719 6.6875 29.40625 6.710938 29.429688 6.734375 C 29.886719 7.21875 30.167969 7.902344 30.167969 8.5625 C 30.167969 8.597656 30.167969 8.597656 30.167969 8.632812 C 30.167969 8.710938 30.167969 8.785156 30.167969 8.863281 C 30.167969 8.921875 30.167969 8.976562 30.167969 9.03125 C 30.167969 9.183594 30.167969 9.339844 30.167969 9.492188 C 30.167969 9.660156 30.167969 9.824219 30.167969 9.988281 C 30.167969 10.351562 30.167969 10.714844 30.167969 11.078125 C 30.167969 11.304688 30.167969 11.53125 30.167969 11.757812 C 30.167969 12.382812 30.167969 13.011719 30.171875 13.636719 C 30.171875 13.679688 30.171875 13.71875 30.171875 13.757812 C 30.171875 13.800781 30.171875 13.839844 30.171875 13.882812 C 30.171875 13.964844 30.171875 14.042969 30.171875 14.125 C 30.171875 14.144531 30.171875 14.167969 30.171875 14.1875 C 30.171875 14.84375 30.171875 15.496094 30.171875 16.152344 C 30.171875 16.84375 30.171875 17.539062 30.171875 18.230469 C 30.171875 18.609375 30.171875 18.984375 30.171875 19.363281 C 30.171875 19.683594 30.175781 20.007812 30.171875 20.328125 C 30.171875 20.492188 30.171875 20.65625 30.175781 20.820312 C 30.175781 20.96875 30.175781 21.121094 30.175781 21.269531 C 30.175781 21.324219 30.175781 21.378906 30.175781 21.433594 C 30.175781 22.203125 29.984375 22.867188 29.480469 23.464844 C 29.464844 23.488281 29.445312 23.507812 29.429688 23.53125 C 28.992188 24.054688 28.335938 24.382812 27.675781 24.503906 C 27.535156 24.515625 27.402344 24.515625 27.261719 24.515625 C 27.222656 24.515625 27.183594 24.515625 27.144531 24.515625 C 27.035156 24.515625 26.921875 24.515625 26.8125 24.515625 C 26.695312 24.515625 26.574219 24.515625 26.457031 24.515625 C 26.246094 24.515625 26.039062 24.515625 25.828125 24.515625 C 25.515625 24.515625 25.207031 24.515625 24.894531 24.515625 C 24.339844 24.515625 23.78125 24.515625 23.226562 24.515625 C 22.742188 24.515625 22.253906 24.515625 21.769531 24.515625 C 21.703125 24.515625 21.636719 24.515625 21.570312 24.515625 C 21.472656 24.515625 21.375 24.515625 21.277344 24.515625 C 20.363281 24.515625 19.449219 24.515625 18.535156 24.515625 C 18.5 24.515625 18.464844 24.515625 18.429688 24.515625 C 18.148438 24.515625 17.871094 24.515625 17.589844 24.515625 C 16.5 24.515625 15.40625 24.515625 14.316406 24.515625 C 13.089844 24.519531 11.863281 24.519531 10.636719 24.519531 C 10.503906 24.519531 10.375 24.519531 10.242188 24.519531 C 10.195312 24.519531 10.195312 24.519531 10.144531 24.519531 C 9.660156 24.519531 9.175781 24.519531 8.6875 24.519531 C 8.136719 24.519531 7.582031 24.519531 7.03125 24.519531 C 6.71875 24.519531 6.410156 24.519531 6.101562 24.519531 C 5.894531 24.519531 5.6875 24.519531 5.480469 24.519531 C 5.363281 24.519531 5.246094 24.519531 5.128906 24.519531 C 4.234375 24.523438 4.234375 24.523438 3.851562 24.386719 C 3.824219 24.375 3.796875 24.367188 3.769531 24.355469 C 3.703125 24.332031 3.640625 24.304688 3.578125 24.277344 C 3.546875 24.261719 3.546875 24.261719 3.511719 24.246094 C 2.800781 23.90625 2.242188 23.292969 1.976562 22.554688 C 1.8125 22.058594 1.804688 21.554688 1.804688 21.039062 C 1.804688 20.984375 1.804688 20.933594 1.804688 20.878906 C 1.804688 20.734375 1.804688 20.589844 1.804688 20.445312 C 1.804688 20.289062 1.804688 20.128906 1.804688 19.972656 C 1.800781 19.667969 1.800781 19.359375 1.800781 19.054688 C 1.800781 18.804688 1.800781 18.554688 1.800781 18.304688 C 1.800781 17.597656 1.800781 16.890625 1.800781 16.179688 C 1.800781 16.144531 1.800781 16.105469 1.800781 16.066406 C 1.800781 16.027344 1.800781 15.988281 1.800781 15.949219 C 1.800781 15.332031 1.800781 14.710938 1.800781 14.09375 C 1.800781 13.457031 1.800781 12.820312 1.800781 12.1875 C 1.800781 11.828125 1.800781 11.472656 1.800781 11.117188 C 1.800781 10.8125 1.800781 10.507812 1.800781 10.203125 C 1.800781 10.050781 1.800781 9.894531 1.800781 9.742188 C 1.800781 9.597656 1.800781 9.457031 1.800781 9.316406 C 1.800781 9.261719 1.800781 9.210938 1.800781 9.160156 C 1.800781 8.898438 1.808594 8.640625 1.832031 8.382812 C 1.835938 8.359375 1.839844 8.335938 1.839844 8.3125 C 1.90625 7.722656 2.171875 7.15625 2.578125 6.726562 C 2.601562 6.699219 2.625 6.675781 2.648438 6.648438 C 3.125 6.144531 3.875 5.746094 4.585938 5.746094 Z M 4.585938 5.746094 "/>
<path style=" stroke:none;fill-rule:nonzero;fill:rgb(77.64706%,79.215688%,78.039217%);fill-opacity:1;" d="M 4.585938 5.746094 C 4.636719 5.746094 4.636719 5.746094 4.6875 5.742188 C 4.742188 5.742188 4.742188 5.742188 4.796875 5.746094 C 4.835938 5.742188 4.875 5.742188 4.914062 5.742188 C 5.023438 5.742188 5.132812 5.742188 5.242188 5.742188 C 5.363281 5.742188 5.480469 5.742188 5.597656 5.742188 C 5.832031 5.742188 6.070312 5.742188 6.304688 5.742188 C 6.585938 5.742188 6.867188 5.742188 7.148438 5.742188 C 7.832031 5.742188 8.511719 5.742188 9.191406 5.742188 C 9.515625 5.742188 9.835938 5.742188 10.160156 5.742188 C 11.261719 5.742188 12.363281 5.738281 13.464844 5.738281 C 13.535156 5.738281 13.605469 5.738281 13.675781 5.738281 C 13.707031 5.738281 13.742188 5.738281 13.777344 5.738281 C 13.953125 5.738281 14.125 5.738281 14.300781 5.738281 C 14.351562 5.738281 14.351562 5.738281 14.40625 5.738281 C 15.523438 5.738281 16.644531 5.738281 17.761719 5.738281 C 18.945312 5.738281 20.128906 5.734375 21.3125 5.734375 C 21.441406 5.734375 21.570312 5.734375 21.699219 5.734375 C 21.734375 5.734375 21.765625 5.734375 21.796875 5.734375 C 22.3125 5.734375 22.828125 5.734375 23.34375 5.734375 C 23.859375 5.734375 24.375 5.734375 24.894531 5.734375 C 25.203125 5.734375 25.507812 5.734375 25.816406 5.734375 C 26.019531 5.734375 26.226562 5.734375 26.433594 5.734375 C 26.550781 5.734375 26.664062 5.734375 26.78125 5.734375 C 27.734375 5.730469 28.578125 5.894531 29.277344 6.582031 C 29.304688 6.609375 29.335938 6.636719 29.363281 6.667969 C 29.386719 6.6875 29.40625 6.710938 29.429688 6.734375 C 29.886719 7.21875 30.167969 7.902344 30.167969 8.5625 C 30.167969 8.597656 30.167969 8.597656 30.167969 8.632812 C 30.167969 8.710938 30.167969 8.785156 30.167969 8.863281 C 30.167969 8.921875 30.167969 8.976562 30.167969 9.03125 C 30.167969 9.183594 30.167969 9.339844 30.167969 9.492188 C 30.167969 9.660156 30.167969 9.824219 30.167969 9.988281 C 30.167969 10.351562 30.167969 10.714844 30.167969 11.078125 C 30.167969 11.304688 30.167969 11.53125 30.167969 11.757812 C 30.167969 12.382812 30.167969 13.011719 30.171875 13.636719 C 30.171875 13.679688 30.171875 13.71875 30.171875 13.757812 C 30.171875 13.800781 30.171875 13.839844 30.171875 13.882812 C 30.171875 13.964844 30.171875 14.042969 30.171875 14.125 C 30.171875 14.144531 30.171875 14.167969 30.171875 14.1875 C 30.171875 14.84375 30.171875 15.496094 30.171875 16.152344 C 30.171875 16.84375 30.171875 17.539062 30.171875 18.230469 C 30.171875 18.609375 30.171875 18.984375 30.171875 19.363281 C 30.171875 19.683594 30.175781 20.007812 30.171875 20.328125 C 30.171875 20.492188 30.171875 20.65625 30.175781 20.820312 C 30.175781 20.96875 30.175781 21.121094 30.175781 21.269531 C 30.175781 21.324219 30.175781 21.378906 30.175781 21.433594 C 30.175781 22.203125 29.984375 22.867188 29.480469 23.464844 C 29.464844 23.488281 29.445312 23.507812 29.429688 23.53125 C 28.992188 24.054688 28.335938 24.382812 27.675781 24.503906 C 27.535156 24.515625 27.402344 24.515625 27.261719 24.515625 C 27.222656 24.515625 27.183594 24.515625 27.144531 24.515625 C 27.035156 24.515625 26.921875 24.515625 26.8125 24.515625 C 26.695312 24.515625 26.574219 24.515625 26.457031 24.515625 C 26.246094 24.515625 26.039062 24.515625 25.828125 24.515625 C 25.515625 24.515625 25.207031 24.515625 24.894531 24.515625 C 24.339844 24.515625 23.78125 24.515625 23.226562 24.515625 C 22.742188 24.515625 22.253906 24.515625 21.769531 24.515625 C 21.703125 24.515625 21.636719 24.515625 21.570312 24.515625 C 21.472656 24.515625 21.375 24.515625 21.277344 24.515625 C 20.363281 24.515625 19.449219 24.515625 18.535156 24.515625 C 18.5 24.515625 18.464844 24.515625 18.429688 24.515625 C 18.148438 24.515625 17.871094 24.515625 17.589844 24.515625 C 16.5 24.515625 15.40625 24.515625 14.316406 24.515625 C 13.089844 24.519531 11.863281 24.519531 10.636719 24.519531 C 10.503906 24.519531 10.375 24.519531 10.242188 24.519531 C 10.195312 24.519531 10.195312 24.519531 10.144531 24.519531 C 9.660156 24.519531 9.175781 24.519531 8.6875 24.519531 C 8.136719 24.519531 7.582031 24.519531 7.03125 24.519531 C 6.71875 24.519531 6.410156 24.519531 6.101562 24.519531 C 5.894531 24.519531 5.6875 24.519531 5.480469 24.519531 C 5.363281 24.519531 5.246094 24.519531 5.128906 24.519531 C 4.234375 24.523438 4.234375 24.523438 3.851562 24.386719 C 3.824219 24.375 3.796875 24.367188 3.769531 24.355469 C 3.703125 24.332031 3.640625 24.304688 3.578125 24.277344 C 3.546875 24.261719 3.546875 24.261719 3.511719 24.246094 C 2.800781 23.90625 2.242188 23.292969 1.976562 22.554688 C 1.8125 22.058594 1.804688 21.554688 1.804688 21.039062 C 1.804688 20.984375 1.804688 20.933594 1.804688 20.878906 C 1.804688 20.734375 1.804688 20.589844 1.804688 20.445312 C 1.804688 20.289062 1.804688 20.128906 1.804688 19.972656 C 1.800781 19.667969 1.800781 19.359375 1.800781 19.054688 C 1.800781 18.804688 1.800781 18.554688 1.800781 18.304688 C 1.800781 17.597656 1.800781 16.890625 1.800781 16.179688 C 1.800781 16.144531 1.800781 16.105469 1.800781 16.066406 C 1.800781 16.027344 1.800781 15.988281 1.800781 15.949219 C 1.800781 15.332031 1.800781 14.710938 1.800781 14.09375 C 1.800781 13.457031 1.800781 12.820312 1.800781 12.1875 C 1.800781 11.828125 1.800781 11.472656 1.800781 11.117188 C 1.800781 10.8125 1.800781 10.507812 1.800781 10.203125 C 1.800781 10.050781 1.800781 9.894531 1.800781 9.742188 C 1.800781 9.597656 1.800781 9.457031 1.800781 9.316406 C 1.800781 9.261719 1.800781 9.210938 1.800781 9.160156 C 1.800781 8.898438 1.808594 8.640625 1.832031 8.382812 C 1.835938 8.359375 1.839844 8.335938 1.839844 8.3125 C 1.90625 7.722656 2.171875 7.15625 2.578125 6.726562 C 2.601562 6.699219 2.625 6.675781 2.648438 6.648438 C 3.125 6.144531 3.875 5.746094 4.585938 5.746094 Z M 2.722656 6.835938 C 2.1875 7.46875 2.003906 8.179688 2.007812 8.992188 C 2.007812 9.046875 2.007812 9.101562 2.007812 9.15625 C 2.007812 9.304688 2.007812 9.457031 2.007812 9.605469 C 2.007812 9.769531 2.007812 9.933594 2.003906 10.09375 C 2.003906 10.414062 2.003906 10.730469 2.003906 11.046875 C 2.003906 11.308594 2.003906 11.566406 2.003906 11.824219 C 2.003906 12.441406 2.003906 13.054688 2.003906 13.667969 C 2.003906 13.691406 2.003906 13.710938 2.003906 13.730469 C 2.003906 13.828125 2.003906 13.929688 2.003906 14.027344 C 2.003906 14.046875 2.003906 14.066406 2.003906 14.089844 C 2.003906 14.128906 2.003906 14.167969 2.003906 14.207031 C 2.003906 14.828125 2.003906 15.453125 2.003906 16.074219 C 2 16.773438 2 17.472656 2 18.171875 C 2 18.539062 2 18.910156 2 19.28125 C 2 19.597656 2 19.910156 2 20.226562 C 2 20.386719 2 20.546875 2 20.707031 C 2 20.855469 2 21.003906 2 21.148438 C 2 21.203125 2 21.253906 2 21.308594 C 1.996094 22.15625 2.222656 22.875 2.816406 23.496094 C 2.84375 23.527344 2.84375 23.527344 2.871094 23.558594 C 3.28125 24 3.957031 24.300781 4.554688 24.328125 C 4.585938 24.328125 4.613281 24.328125 4.644531 24.328125 C 4.691406 24.328125 4.691406 24.328125 4.746094 24.328125 C 4.78125 24.328125 4.816406 24.328125 4.855469 24.328125 C 4.914062 24.328125 4.914062 24.328125 4.972656 24.332031 C 5.082031 24.332031 5.191406 24.332031 5.296875 24.332031 C 5.414062 24.332031 5.535156 24.332031 5.652344 24.332031 C 5.886719 24.332031 6.121094 24.332031 6.351562 24.332031 C 6.632812 24.332031 6.914062 24.332031 7.195312 24.332031 C 7.871094 24.332031 8.546875 24.332031 9.226562 24.332031 C 9.546875 24.332031 9.867188 24.332031 10.1875 24.332031 C 11.285156 24.332031 12.382812 24.335938 13.476562 24.335938 C 13.546875 24.335938 13.617188 24.335938 13.683594 24.335938 C 13.71875 24.335938 13.753906 24.335938 13.789062 24.335938 C 13.960938 24.335938 14.132812 24.335938 14.308594 24.335938 C 14.339844 24.335938 14.375 24.335938 14.410156 24.335938 C 15.523438 24.335938 16.636719 24.335938 17.75 24.335938 C 18.925781 24.335938 20.105469 24.339844 21.28125 24.339844 C 21.410156 24.339844 21.539062 24.339844 21.667969 24.339844 C 21.699219 24.339844 21.734375 24.339844 21.765625 24.339844 C 22.277344 24.339844 22.789062 24.339844 23.300781 24.339844 C 23.816406 24.339844 24.332031 24.339844 24.84375 24.339844 C 25.152344 24.339844 25.457031 24.339844 25.761719 24.339844 C 25.964844 24.339844 26.171875 24.339844 26.375 24.339844 C 26.492188 24.339844 26.605469 24.339844 26.722656 24.339844 C 27.320312 24.34375 27.867188 24.328125 28.414062 24.058594 C 28.441406 24.046875 28.46875 24.03125 28.5 24.019531 C 29.082031 23.71875 29.507812 23.226562 29.773438 22.636719 C 29.78125 22.617188 29.789062 22.601562 29.796875 22.582031 C 29.957031 22.210938 29.96875 21.84375 29.96875 21.449219 C 29.96875 21.390625 29.96875 21.335938 29.96875 21.277344 C 29.96875 21.121094 29.96875 20.96875 29.96875 20.8125 C 29.96875 20.644531 29.96875 20.476562 29.96875 20.308594 C 29.96875 19.980469 29.96875 19.652344 29.96875 19.324219 C 29.96875 19.054688 29.96875 18.789062 29.96875 18.519531 C 29.96875 18.484375 29.96875 18.445312 29.96875 18.40625 C 29.96875 18.328125 29.96875 18.25 29.96875 18.171875 C 29.96875 17.65625 29.96875 17.136719 29.96875 16.617188 C 29.96875 16.597656 29.96875 16.578125 29.96875 16.554688 C 29.96875 16.390625 29.96875 16.226562 29.96875 16.0625 C 29.96875 15.417969 29.96875 14.777344 29.96875 14.136719 C 29.96875 13.414062 29.96875 12.691406 29.96875 11.96875 C 29.96875 11.585938 29.96875 11.207031 29.972656 10.824219 C 29.972656 10.5 29.972656 10.171875 29.972656 9.847656 C 29.96875 9.683594 29.96875 9.515625 29.972656 9.351562 C 29.972656 9.199219 29.972656 9.046875 29.96875 8.894531 C 29.96875 8.839844 29.96875 8.785156 29.972656 8.730469 C 29.976562 7.949219 29.699219 7.285156 29.152344 6.71875 C 28.5625 6.148438 27.816406 5.914062 27.003906 5.917969 C 26.945312 5.917969 26.945312 5.917969 26.886719 5.917969 C 26.78125 5.917969 26.671875 5.917969 26.566406 5.917969 C 26.449219 5.917969 26.332031 5.917969 26.214844 5.917969 C 26.011719 5.917969 25.808594 5.917969 25.601562 5.917969 C 25.300781 5.917969 24.996094 5.917969 24.691406 5.917969 C 24.117188 5.917969 23.542969 5.917969 22.96875 5.917969 C 22.523438 5.917969 22.082031 5.917969 21.636719 5.917969 C 21.574219 5.917969 21.507812 5.917969 21.445312 5.917969 C 21.351562 5.917969 21.253906 5.917969 21.15625 5.917969 C 20.265625 5.917969 19.371094 5.917969 18.476562 5.917969 C 18.445312 5.917969 18.410156 5.917969 18.375 5.917969 C 18.207031 5.917969 18.035156 5.917969 17.863281 5.917969 C 17.828125 5.917969 17.796875 5.917969 17.761719 5.917969 C 17.691406 5.917969 17.625 5.917969 17.554688 5.917969 C 16.488281 5.917969 15.421875 5.917969 14.355469 5.914062 C 13.160156 5.914062 11.960938 5.914062 10.761719 5.914062 C 10.632812 5.914062 10.507812 5.914062 10.378906 5.914062 C 10.332031 5.914062 10.332031 5.914062 10.285156 5.914062 C 9.808594 5.914062 9.335938 5.914062 8.859375 5.914062 C 8.320312 5.914062 7.777344 5.914062 7.238281 5.914062 C 6.9375 5.914062 6.636719 5.914062 6.332031 5.914062 C 6.132812 5.914062 5.929688 5.914062 5.726562 5.914062 C 5.613281 5.914062 5.496094 5.914062 5.382812 5.914062 C 4.367188 5.910156 3.453125 6.070312 2.722656 6.835938 Z M 2.722656 6.835938 "/>
<path style=" stroke:none;fill-rule:nonzero;fill:rgb(98.431373%,99.215686%,98.823529%);fill-opacity:1;" d="M 14.371094 12.148438 C 14.558594 12.226562 14.625 12.410156 14.699219 12.589844 C 14.71875 12.640625 14.738281 12.691406 14.757812 12.746094 C 14.769531 12.773438 14.78125 12.796875 14.789062 12.828125 C 14.871094 13.042969 14.925781 13.253906 14.964844 13.480469 C 14.980469 13.457031 15 13.429688 15.019531 13.402344 C 15.269531 13.105469 15.722656 12.96875 16.089844 12.890625 C 16.085938 12.859375 16.078125 12.832031 16.074219 12.800781 C 16.03125 12.492188 16.03125 12.492188 16.105469 12.359375 C 16.246094 12.234375 16.371094 12.191406 16.558594 12.195312 C 16.695312 12.21875 16.777344 12.300781 16.867188 12.402344 C 16.960938 12.539062 16.964844 12.667969 16.949219 12.828125 C 16.894531 13.023438 16.796875 13.167969 16.621094 13.273438 C 16.496094 13.324219 16.382812 13.34375 16.246094 13.351562 C 16.117188 13.351562 16.117188 13.351562 16 13.394531 C 16 13.414062 16 13.433594 16 13.453125 C 16.128906 13.488281 16.246094 13.476562 16.378906 13.46875 C 16.566406 13.457031 16.753906 13.449219 16.941406 13.445312 C 16.996094 13.445312 16.996094 13.445312 17.054688 13.445312 C 17.15625 13.453125 17.238281 13.472656 17.332031 13.511719 C 17.332031 13.601562 17.332031 13.601562 17.289062 13.652344 C 17.234375 13.71875 17.234375 13.71875 17.25 13.808594 C 17.246094 13.839844 17.246094 13.867188 17.246094 13.894531 C 17.128906 13.984375 17.003906 14.011719 16.863281 14.035156 C 16.84375 14.039062 16.820312 14.042969 16.796875 14.050781 C 16.726562 14.0625 16.65625 14.074219 16.585938 14.089844 C 16.183594 14.160156 16.183594 14.160156 15.792969 14.28125 C 15.78125 14.410156 15.78125 14.410156 15.835938 14.519531 C 15.925781 14.589844 16.019531 14.636719 16.117188 14.6875 C 16.179688 14.726562 16.179688 14.726562 16.238281 14.816406 C 16.246094 14.90625 16.246094 14.90625 16.238281 14.992188 C 16.152344 15.078125 16.09375 15.0625 15.972656 15.0625 C 15.578125 15.0625 15.265625 14.910156 14.980469 14.636719 C 14.902344 14.554688 14.835938 14.472656 14.785156 14.371094 C 14.585938 14.460938 14.460938 14.632812 14.328125 14.800781 C 14.148438 15.027344 13.941406 15.167969 13.660156 15.230469 C 13.496094 15.246094 13.355469 15.222656 13.214844 15.140625 C 13.101562 15.035156 13.011719 14.925781 12.949219 14.785156 C 12.925781 14.796875 12.902344 14.808594 12.878906 14.820312 C 12.667969 14.914062 12.457031 14.988281 12.234375 15.046875 C 12.199219 15.058594 12.199219 15.058594 12.164062 15.066406 C 12.046875 15.097656 11.941406 15.121094 11.820312 15.109375 C 11.886719 14.984375 11.957031 14.921875 12.074219 14.84375 C 12.089844 14.832031 12.105469 14.820312 12.125 14.808594 C 12.300781 14.691406 12.484375 14.578125 12.667969 14.464844 C 12.882812 14.332031 12.992188 14.210938 13.101562 13.984375 C 13.121094 13.941406 13.140625 13.898438 13.160156 13.855469 C 13.171875 13.835938 13.179688 13.820312 13.1875 13.800781 C 13.214844 13.75 13.214844 13.75 13.273438 13.660156 C 13.292969 13.660156 13.3125 13.660156 13.332031 13.660156 C 13.324219 13.785156 13.3125 13.914062 13.304688 14.042969 C 13.539062 13.867188 13.777344 13.683594 13.867188 13.394531 C 13.882812 13.246094 13.851562 13.171875 13.765625 13.050781 C 13.648438 12.875 13.582031 12.75 13.601562 12.535156 C 13.648438 12.429688 13.679688 12.390625 13.777344 12.324219 C 13.859375 12.308594 13.859375 12.308594 13.957031 12.324219 C 14.070312 12.414062 14.125 12.507812 14.164062 12.644531 C 14.164062 12.742188 14.164062 12.742188 14.117188 12.785156 C 14.105469 12.800781 14.089844 12.816406 14.074219 12.828125 C 14.078125 12.945312 14.113281 13.03125 14.164062 13.136719 C 14.253906 13.332031 14.246094 13.488281 14.175781 13.691406 C 13.992188 14.101562 13.640625 14.367188 13.273438 14.605469 C 13.285156 14.648438 13.292969 14.6875 13.304688 14.726562 C 13.503906 14.785156 13.683594 14.6875 13.867188 14.605469 C 13.960938 14.554688 14.046875 14.496094 14.132812 14.429688 C 14.164062 14.40625 14.195312 14.386719 14.226562 14.363281 C 14.441406 14.15625 14.546875 13.902344 14.566406 13.605469 C 14.5625 13.371094 14.476562 13.167969 14.390625 12.953125 C 14.324219 12.789062 14.304688 12.648438 14.304688 12.472656 C 14.304688 12.4375 14.304688 12.402344 14.304688 12.363281 C 14.3125 12.273438 14.324219 12.222656 14.371094 12.148438 Z M 14.371094 12.148438 "/>
<path style=" stroke:none;fill-rule:nonzero;fill:rgb(98.823529%,99.215686%,98.823529%);fill-opacity:1;" d="M 19.539062 18.726562 C 19.632812 18.761719 19.675781 18.792969 19.734375 18.875 C 19.75 18.953125 19.753906 19.03125 19.761719 19.109375 C 19.800781 19.109375 19.835938 19.109375 19.875 19.109375 C 20.011719 19.109375 20.148438 19.105469 20.285156 19.105469 C 20.347656 19.105469 20.40625 19.105469 20.464844 19.105469 C 20.550781 19.101562 20.636719 19.101562 20.722656 19.101562 C 20.746094 19.101562 20.773438 19.101562 20.800781 19.101562 C 20.945312 19.101562 21.039062 19.105469 21.15625 19.199219 C 21.269531 19.351562 21.308594 19.457031 21.308594 19.644531 C 21.308594 19.671875 21.308594 19.703125 21.308594 19.734375 C 21.304688 19.824219 21.292969 19.871094 21.246094 19.941406 C 21.148438 20.003906 21.117188 20.007812 21.007812 20.007812 C 20.96875 20.011719 20.96875 20.011719 20.929688 20.011719 C 20.847656 20 20.820312 19.976562 20.769531 19.910156 C 20.742188 19.921875 20.714844 19.929688 20.6875 19.941406 C 20.46875 20.003906 20.269531 19.980469 20.058594 19.910156 C 19.949219 19.90625 19.84375 19.90625 19.734375 19.910156 C 19.734375 19.941406 19.734375 19.96875 19.734375 20 C 19.628906 20.015625 19.628906 20.015625 19.527344 20.03125 C 19.4375 19.90625 19.421875 19.824219 19.4375 19.675781 C 19.457031 19.625 19.476562 19.574219 19.496094 19.527344 C 19.453125 19.523438 19.453125 19.523438 19.40625 19.523438 C 19.289062 19.519531 19.171875 19.519531 19.054688 19.515625 C 19.007812 19.511719 18.957031 19.511719 18.910156 19.511719 C 18.835938 19.507812 18.761719 19.507812 18.6875 19.503906 C 18.652344 19.503906 18.652344 19.503906 18.613281 19.503906 C 18.453125 19.5 18.296875 19.496094 18.136719 19.488281 C 17.519531 19.464844 16.902344 19.464844 16.285156 19.464844 C 16.109375 19.46875 15.9375 19.46875 15.761719 19.46875 C 15.269531 19.46875 14.773438 19.46875 14.28125 19.472656 C 14.003906 19.472656 13.730469 19.472656 13.457031 19.472656 C 13.285156 19.472656 13.113281 19.476562 12.9375 19.476562 C 12.832031 19.476562 12.722656 19.476562 12.617188 19.476562 C 12.566406 19.476562 12.519531 19.476562 12.46875 19.476562 C 12.207031 19.480469 11.957031 19.464844 11.699219 19.425781 C 11.664062 19.421875 11.664062 19.421875 11.628906 19.417969 C 11.410156 19.378906 11.1875 19.3125 11.035156 19.148438 C 11 19.101562 11 19.101562 10.964844 19.023438 C 11.054688 18.976562 11.128906 19.007812 11.230469 19.023438 C 11.726562 19.042969 12.230469 19.027344 12.726562 18.996094 C 13.378906 18.957031 14.03125 18.953125 14.683594 18.953125 C 14.777344 18.953125 14.871094 18.953125 14.960938 18.953125 C 15.972656 18.953125 16.980469 18.976562 17.988281 19.019531 C 18.011719 19.019531 18.039062 19.023438 18.0625 19.023438 C 18.265625 19.03125 18.265625 19.03125 18.347656 19.035156 C 18.710938 19.050781 19.074219 19.058594 19.4375 19.050781 C 19.421875 19.039062 19.410156 19.027344 19.394531 19.011719 C 19.347656 18.964844 19.347656 18.964844 19.335938 18.890625 C 19.347656 18.816406 19.347656 18.816406 19.398438 18.757812 C 19.464844 18.726562 19.464844 18.726562 19.539062 18.726562 Z M 19.539062 18.726562 "/>
<path style=" stroke:none;fill-rule:nonzero;fill:rgb(97.647059%,98.823529%,98.039216%);fill-opacity:1;" d="M 15.40625 10.28125 C 15.496094 10.3125 15.496094 10.3125 15.527344 10.371094 C 15.5625 10.480469 15.578125 10.585938 15.589844 10.695312 C 15.597656 10.742188 15.601562 10.785156 15.609375 10.832031 C 15.617188 10.902344 15.628906 10.976562 15.636719 11.046875 C 15.644531 11.117188 15.65625 11.1875 15.664062 11.257812 C 15.667969 11.289062 15.667969 11.289062 15.671875 11.320312 C 15.691406 11.453125 15.722656 11.558594 15.792969 11.675781 C 15.875 11.742188 15.875 11.742188 15.957031 11.730469 C 16.03125 11.710938 16.03125 11.710938 16.070312 11.65625 C 16.128906 11.449219 16.078125 11.300781 15.988281 11.113281 C 15.886719 10.898438 15.804688 10.710938 15.890625 10.472656 C 15.941406 10.398438 15.941406 10.398438 16.03125 10.339844 C 16.117188 10.328125 16.117188 10.328125 16.207031 10.339844 C 16.261719 10.398438 16.261719 10.398438 16.296875 10.460938 C 16.324219 10.410156 16.355469 10.363281 16.386719 10.3125 C 16.472656 10.339844 16.472656 10.339844 16.535156 10.410156 C 16.628906 10.492188 16.664062 10.503906 16.78125 10.527344 C 16.976562 10.570312 17.050781 10.679688 17.15625 10.84375 C 17.164062 10.855469 17.175781 10.863281 17.183594 10.875 C 17.183594 10.847656 17.183594 10.824219 17.183594 10.796875 C 17.183594 10.765625 17.183594 10.734375 17.183594 10.699219 C 17.183594 10.667969 17.183594 10.636719 17.183594 10.601562 C 17.183594 10.519531 17.183594 10.519531 17.214844 10.460938 C 17.265625 10.46875 17.3125 10.480469 17.363281 10.488281 C 17.367188 10.519531 17.375 10.550781 17.378906 10.582031 C 17.40625 10.679688 17.4375 10.714844 17.523438 10.769531 C 17.640625 10.847656 17.679688 10.914062 17.71875 11.050781 C 17.734375 11.152344 17.742188 11.25 17.75 11.347656 C 17.71875 11.363281 17.71875 11.363281 17.6875 11.378906 C 17.667969 11.367188 17.648438 11.359375 17.628906 11.347656 C 17.652344 11.863281 17.8125 12.207031 18.078125 12.644531 C 18.175781 12.808594 18.261719 12.984375 18.347656 13.15625 C 18.363281 13.1875 18.378906 13.21875 18.394531 13.25 C 18.679688 13.824219 18.679688 13.824219 18.578125 14.136719 C 18.566406 14.152344 18.558594 14.171875 18.546875 14.191406 C 18.390625 14.042969 18.3125 13.917969 18.253906 13.714844 C 18.144531 13.351562 17.953125 13.015625 17.777344 12.679688 C 17.777344 12.699219 17.78125 12.714844 17.78125 12.734375 C 17.796875 13.09375 17.8125 13.457031 17.816406 13.816406 C 17.816406 13.867188 17.816406 13.867188 17.816406 13.914062 C 17.816406 14.191406 17.789062 14.480469 17.601562 14.695312 C 17.570312 14.695312 17.542969 14.695312 17.511719 14.695312 C 17.484375 14.601562 17.476562 14.515625 17.476562 14.417969 C 17.476562 14.390625 17.476562 14.363281 17.476562 14.335938 C 17.480469 14.25 17.480469 14.25 17.496094 14.167969 C 17.546875 13.84375 17.519531 13.496094 17.511719 13.164062 C 17.511719 13.097656 17.511719 13.027344 17.507812 12.960938 C 17.5 12.355469 17.425781 11.933594 17.035156 11.449219 C 16.9375 11.328125 16.859375 11.195312 16.78125 11.066406 C 16.703125 10.949219 16.621094 10.890625 16.503906 10.816406 C 16.453125 10.75 16.453125 10.75 16.417969 10.6875 C 16.40625 10.667969 16.394531 10.648438 16.382812 10.625 C 16.375 10.609375 16.363281 10.59375 16.355469 10.578125 C 16.363281 10.597656 16.371094 10.621094 16.382812 10.640625 C 16.414062 10.726562 16.445312 10.816406 16.472656 10.902344 C 16.34375 10.875 16.34375 10.875 16.207031 10.84375 C 16.25 11.066406 16.324219 11.261719 16.414062 11.464844 C 16.433594 11.515625 16.453125 11.566406 16.472656 11.613281 C 16.589844 11.625 16.636719 11.625 16.734375 11.554688 C 16.753906 11.535156 16.777344 11.515625 16.800781 11.496094 C 16.820312 11.496094 16.839844 11.496094 16.859375 11.496094 C 16.890625 11.589844 16.890625 11.636719 16.859375 11.730469 C 16.785156 11.84375 16.699219 11.917969 16.59375 12 C 16.574219 11.988281 16.554688 11.980469 16.535156 11.96875 C 16.515625 11.890625 16.511719 11.8125 16.503906 11.734375 C 16.4375 11.789062 16.410156 11.832031 16.375 11.910156 C 16.304688 12.039062 16.226562 12.101562 16.089844 12.148438 C 15.890625 12.171875 15.890625 12.171875 15.792969 12.113281 C 15.707031 12.039062 15.648438 11.972656 15.585938 11.882812 C 15.507812 11.875 15.507812 11.875 15.4375 11.882812 C 15.429688 11.898438 15.425781 11.914062 15.417969 11.929688 C 15.34375 12.058594 15.21875 12.148438 15.082031 12.207031 C 14.945312 12.226562 14.839844 12.21875 14.714844 12.164062 C 14.496094 11.957031 14.488281 11.691406 14.460938 11.40625 C 14.378906 11.527344 14.351562 11.65625 14.316406 11.796875 C 14.273438 11.933594 14.234375 12.011719 14.105469 12.089844 C 13.988281 12.089844 13.917969 12.070312 13.820312 12.015625 C 13.585938 11.765625 13.527344 11.453125 13.53125 11.121094 C 13.542969 10.992188 13.574219 10.902344 13.628906 10.785156 C 13.660156 10.796875 13.6875 10.804688 13.71875 10.816406 C 13.742188 10.882812 13.742188 10.882812 13.757812 10.96875 C 13.765625 11.015625 13.765625 11.015625 13.773438 11.0625 C 13.78125 11.097656 13.785156 11.128906 13.792969 11.164062 C 13.804688 11.230469 13.816406 11.292969 13.828125 11.359375 C 13.832031 11.390625 13.839844 11.417969 13.84375 11.449219 C 13.867188 11.53125 13.894531 11.582031 13.957031 11.644531 C 13.984375 11.644531 14.015625 11.644531 14.042969 11.644531 C 14.046875 11.621094 14.050781 11.601562 14.054688 11.578125 C 14.09375 11.371094 14.15625 11.195312 14.25 11.007812 C 14.257812 10.988281 14.265625 10.96875 14.277344 10.949219 C 14.34375 10.820312 14.417969 10.714844 14.519531 10.605469 C 14.601562 10.597656 14.601562 10.597656 14.667969 10.605469 C 14.800781 10.808594 14.769531 11.042969 14.769531 11.277344 C 14.769531 11.328125 14.769531 11.328125 14.769531 11.378906 C 14.769531 11.425781 14.769531 11.425781 14.769531 11.472656 C 14.789062 11.578125 14.828125 11.625 14.902344 11.703125 C 14.988281 11.746094 15.046875 11.746094 15.140625 11.734375 C 15.222656 11.667969 15.222656 11.667969 15.289062 11.585938 C 15.304688 11.566406 15.320312 11.550781 15.335938 11.53125 C 15.445312 11.363281 15.378906 11.097656 15.335938 10.910156 C 15.320312 10.847656 15.296875 10.792969 15.269531 10.734375 C 15.222656 10.613281 15.222656 10.554688 15.257812 10.429688 C 15.335938 10.34375 15.335938 10.34375 15.40625 10.28125 Z M 15.40625 10.28125 "/>
<path style=" stroke:none;fill-rule:nonzero;fill:rgb(98.039216%,99.215686%,98.431373%);fill-opacity:1;" d="M 11.792969 10.429688 C 11.847656 10.433594 11.847656 10.433594 11.910156 10.460938 C 11.957031 10.53125 11.957031 10.53125 12 10.621094 C 12.015625 10.652344 12.03125 10.683594 12.046875 10.71875 C 12.058594 10.75 12.074219 10.78125 12.089844 10.816406 C 12.101562 10.84375 12.113281 10.871094 12.125 10.898438 C 12.179688 11.027344 12.214844 11.121094 12.207031 11.257812 C 12.140625 11.25 12.070312 11.238281 12 11.230469 C 12.019531 11.402344 12.039062 11.578125 12.058594 11.753906 C 12.066406 11.8125 12.074219 11.871094 12.082031 11.929688 C 12.089844 12.015625 12.101562 12.101562 12.109375 12.1875 C 12.113281 12.214844 12.117188 12.242188 12.117188 12.265625 C 12.132812 12.394531 12.152344 12.503906 12.207031 12.621094 C 12.238281 12.621094 12.265625 12.621094 12.296875 12.621094 C 12.296875 12.601562 12.296875 12.582031 12.296875 12.5625 C 12.335938 12.5625 12.375 12.5625 12.414062 12.5625 C 12.417969 12.578125 12.425781 12.597656 12.429688 12.613281 C 12.4375 12.636719 12.445312 12.65625 12.453125 12.679688 C 12.457031 12.703125 12.464844 12.722656 12.472656 12.746094 C 12.5 12.804688 12.5 12.804688 12.566406 12.824219 C 12.59375 12.824219 12.59375 12.824219 12.621094 12.828125 C 12.636719 12.808594 12.648438 12.785156 12.664062 12.765625 C 12.679688 12.738281 12.699219 12.710938 12.714844 12.679688 C 12.734375 12.652344 12.75 12.625 12.769531 12.597656 C 12.828125 12.535156 12.828125 12.535156 12.90625 12.519531 C 13.007812 12.539062 13.035156 12.597656 13.097656 12.679688 C 13.140625 12.695312 13.140625 12.695312 13.183594 12.710938 C 13.1875 12.683594 13.1875 12.660156 13.1875 12.632812 C 13.226562 12.496094 13.308594 12.4375 13.421875 12.355469 C 13.433594 12.367188 13.441406 12.375 13.453125 12.386719 C 13.449219 12.644531 13.421875 12.914062 13.265625 13.128906 C 13.164062 13.199219 13.101562 13.203125 12.976562 13.183594 C 12.933594 13.15625 12.933594 13.15625 12.890625 13.125 C 12.789062 13.132812 12.75 13.148438 12.675781 13.214844 C 12.554688 13.300781 12.4375 13.296875 12.296875 13.273438 C 12.277344 13.253906 12.257812 13.234375 12.238281 13.214844 C 12.234375 13.25 12.234375 13.285156 12.234375 13.324219 C 12.214844 13.859375 12.164062 14.339844 11.777344 14.746094 C 11.414062 15.082031 10.953125 15.222656 10.464844 15.210938 C 10.25 15.199219 10.058594 15.144531 9.910156 14.984375 C 9.765625 14.808594 9.765625 14.585938 9.765625 14.375 C 9.765625 14.347656 9.765625 14.324219 9.765625 14.296875 C 9.761719 14.113281 9.800781 13.964844 9.894531 13.808594 C 9.925781 13.792969 9.925781 13.792969 9.957031 13.777344 C 9.960938 13.816406 9.96875 13.851562 9.976562 13.890625 C 10.046875 14.339844 10.046875 14.339844 10.296875 14.699219 C 10.585938 14.808594 10.921875 14.769531 11.207031 14.660156 C 11.570312 14.488281 11.734375 14.265625 11.875 13.890625 C 11.9375 13.691406 11.941406 13.445312 11.882812 13.246094 C 11.863281 13.246094 11.84375 13.246094 11.820312 13.246094 C 11.824219 13.269531 11.828125 13.296875 11.832031 13.324219 C 11.832031 13.667969 11.59375 14.035156 11.363281 14.28125 C 11.261719 14.375 11.152344 14.4375 11.023438 14.488281 C 10.980469 14.507812 10.980469 14.507812 10.9375 14.527344 C 10.738281 14.574219 10.546875 14.578125 10.363281 14.472656 C 10.210938 14.351562 10.121094 14.171875 10.074219 13.984375 C 10.066406 13.890625 10.0625 13.796875 10.066406 13.703125 C 10.0625 13.675781 10.0625 13.652344 10.0625 13.625 C 10.0625 13.484375 10.070312 13.390625 10.164062 13.273438 C 10.191406 13.285156 10.222656 13.292969 10.25 13.304688 C 10.277344 13.410156 10.28125 13.5 10.277344 13.609375 C 10.277344 13.777344 10.296875 13.929688 10.414062 14.0625 C 10.503906 14.140625 10.605469 14.144531 10.71875 14.140625 C 11.011719 14.105469 11.277344 13.875 11.460938 13.65625 C 11.519531 13.5625 11.550781 13.46875 11.585938 13.363281 C 11.550781 13.382812 11.519531 13.402344 11.484375 13.421875 C 11.34375 13.492188 11.210938 13.511719 11.050781 13.480469 C 10.945312 13.402344 10.898438 13.34375 10.875 13.214844 C 10.859375 13.046875 10.863281 12.914062 10.964844 12.769531 C 11.050781 12.667969 11.136719 12.582031 11.265625 12.542969 C 11.433594 12.53125 11.53125 12.589844 11.660156 12.691406 C 11.703125 12.742188 11.703125 12.742188 11.734375 12.828125 C 11.773438 12.820312 11.8125 12.808594 11.851562 12.800781 C 11.890625 12.296875 11.808594 11.828125 11.714844 11.335938 C 11.707031 11.296875 11.707031 11.296875 11.699219 11.257812 C 11.691406 11.207031 11.683594 11.15625 11.671875 11.105469 C 11.628906 10.871094 11.636719 10.667969 11.761719 10.460938 C 11.773438 10.449219 11.78125 10.441406 11.792969 10.429688 Z M 11.792969 10.429688 "/>
<path style=" stroke:none;fill-rule:nonzero;fill:rgb(97.647059%,98.823529%,98.039216%);fill-opacity:1;" d="M 20.828125 10.460938 C 20.867188 10.460938 20.90625 10.460938 20.949219 10.460938 C 20.953125 10.488281 20.957031 10.519531 20.960938 10.546875 C 20.992188 10.660156 21.050781 10.710938 21.140625 10.785156 C 21.25 10.878906 21.3125 10.933594 21.332031 11.082031 C 21.335938 11.179688 21.335938 11.277344 21.332031 11.378906 C 21.292969 11.367188 21.253906 11.359375 21.214844 11.347656 C 21.25 11.710938 21.40625 11.9375 21.625 12.21875 C 21.660156 12.265625 21.660156 12.265625 21.6875 12.324219 C 21.671875 12.0625 21.644531 11.804688 21.605469 11.542969 C 21.597656 11.496094 21.597656 11.496094 21.59375 11.445312 C 21.5625 11.253906 21.527344 11.121094 21.421875 10.964844 C 21.378906 10.839844 21.378906 10.707031 21.394531 10.578125 C 21.4375 10.5 21.4375 10.5 21.480469 10.460938 C 21.511719 10.46875 21.539062 10.480469 21.570312 10.488281 C 21.589844 10.546875 21.609375 10.605469 21.628906 10.664062 C 21.664062 10.734375 21.695312 10.757812 21.761719 10.800781 C 21.867188 10.867188 21.90625 10.925781 21.941406 11.042969 C 21.964844 11.164062 21.960938 11.285156 21.957031 11.40625 C 21.910156 11.394531 21.910156 11.394531 21.867188 11.378906 C 21.890625 11.578125 21.914062 11.773438 21.9375 11.972656 C 21.945312 12.042969 21.953125 12.109375 21.960938 12.175781 C 21.972656 12.273438 21.984375 12.371094 21.996094 12.46875 C 22 12.5 22.003906 12.527344 22.007812 12.558594 C 22.035156 12.773438 22.085938 12.941406 22.203125 13.125 C 22.214844 13.148438 22.226562 13.167969 22.238281 13.1875 C 22.25 13.210938 22.265625 13.230469 22.277344 13.25 C 22.613281 13.8125 22.613281 13.8125 22.609375 14.078125 C 22.609375 14.105469 22.609375 14.132812 22.609375 14.160156 C 22.609375 14.179688 22.609375 14.203125 22.605469 14.222656 C 22.578125 14.222656 22.546875 14.222656 22.519531 14.222656 C 22.503906 14.191406 22.503906 14.191406 22.488281 14.160156 C 22.4375 14.0625 22.390625 13.96875 22.34375 13.871094 C 22.320312 13.824219 22.320312 13.824219 22.292969 13.773438 C 22.277344 13.738281 22.261719 13.707031 22.246094 13.675781 C 22.226562 13.632812 22.226562 13.632812 22.203125 13.585938 C 22.164062 13.507812 22.164062 13.507812 22.105469 13.421875 C 22.101562 13.4375 22.101562 13.457031 22.101562 13.472656 C 22.089844 14.101562 22.089844 14.101562 21.957031 14.371094 C 21.945312 14.390625 21.9375 14.410156 21.925781 14.429688 C 21.898438 14.429688 21.867188 14.429688 21.835938 14.429688 C 21.804688 14.273438 21.800781 14.121094 21.800781 13.964844 C 21.800781 13.90625 21.796875 13.851562 21.796875 13.792969 C 21.796875 13.703125 21.792969 13.617188 21.792969 13.527344 C 21.792969 13.441406 21.789062 13.355469 21.789062 13.269531 C 21.789062 13.246094 21.789062 13.21875 21.789062 13.191406 C 21.785156 12.984375 21.757812 12.808594 21.636719 12.640625 C 21.617188 12.617188 21.601562 12.597656 21.585938 12.574219 C 21.5625 12.539062 21.5625 12.539062 21.535156 12.503906 C 21.511719 12.472656 21.511719 12.472656 21.488281 12.4375 C 21.445312 12.378906 21.40625 12.324219 21.363281 12.265625 C 21.363281 12.289062 21.367188 12.308594 21.367188 12.332031 C 21.382812 12.535156 21.398438 12.738281 21.414062 12.945312 C 21.421875 13.015625 21.425781 13.089844 21.433594 13.164062 C 21.449219 13.390625 21.457031 13.617188 21.460938 13.847656 C 21.460938 13.875 21.460938 13.90625 21.460938 13.9375 C 21.460938 14.167969 21.4375 14.402344 21.292969 14.59375 C 21.183594 14.695312 21.117188 14.722656 20.96875 14.734375 C 20.738281 14.714844 20.617188 14.644531 20.464844 14.476562 C 20.394531 14.410156 20.328125 14.402344 20.238281 14.398438 C 20.175781 14.527344 20.136719 14.644531 20.105469 14.785156 C 20.066406 14.957031 20.011719 15.136719 19.851562 15.234375 C 19.753906 15.273438 19.6875 15.257812 19.585938 15.230469 C 19.386719 15.121094 19.257812 14.96875 19.179688 14.757812 C 19.09375 14.464844 19.140625 14.1875 19.277344 13.921875 C 19.292969 13.902344 19.304688 13.886719 19.320312 13.867188 C 19.328125 13.867188 19.339844 13.867188 19.347656 13.867188 C 19.347656 13.90625 19.347656 13.941406 19.34375 13.984375 C 19.34375 14.035156 19.34375 14.085938 19.34375 14.136719 C 19.339844 14.171875 19.339844 14.171875 19.339844 14.210938 C 19.339844 14.417969 19.375 14.578125 19.515625 14.738281 C 19.539062 14.765625 19.5625 14.789062 19.585938 14.816406 C 19.703125 14.789062 19.730469 14.757812 19.796875 14.65625 C 19.816406 14.617188 19.835938 14.574219 19.855469 14.535156 C 19.863281 14.511719 19.875 14.492188 19.886719 14.46875 C 19.941406 14.351562 19.988281 14.234375 20.035156 14.113281 C 20.082031 13.992188 20.132812 13.914062 20.238281 13.835938 C 20.3125 13.804688 20.3125 13.804688 20.386719 13.808594 C 20.53125 13.886719 20.601562 14.023438 20.683594 14.160156 C 20.738281 14.230469 20.738281 14.230469 20.832031 14.234375 C 20.925781 14.230469 20.925781 14.230469 21 14.140625 C 21.136719 13.941406 21.101562 13.710938 21.105469 13.476562 C 21.105469 13.453125 21.105469 13.429688 21.105469 13.40625 C 21.105469 13.050781 21.089844 12.699219 21.054688 12.34375 C 21.054688 12.3125 21.054688 12.3125 21.050781 12.28125 C 21.023438 11.996094 20.988281 11.800781 20.8125 11.570312 C 20.792969 11.546875 20.792969 11.546875 20.773438 11.519531 C 20.675781 11.398438 20.578125 11.320312 20.445312 11.242188 C 20.34375 11.171875 20.28125 11.078125 20.238281 10.964844 C 20.226562 10.890625 20.230469 10.832031 20.238281 10.753906 C 20.285156 10.730469 20.285156 10.730469 20.355469 10.726562 C 20.375 10.75 20.398438 10.769531 20.417969 10.792969 C 20.535156 10.902344 20.644531 10.914062 20.800781 10.933594 C 20.796875 10.917969 20.789062 10.898438 20.785156 10.882812 C 20.769531 10.8125 20.765625 10.75 20.765625 10.679688 C 20.765625 10.65625 20.765625 10.632812 20.761719 10.609375 C 20.769531 10.546875 20.769531 10.546875 20.828125 10.460938 Z M 20.828125 10.460938 "/>
<path style=" stroke:none;fill-rule:nonzero;fill:rgb(98.039216%,98.823529%,98.431373%);fill-opacity:1;" d="M 10.191406 10.460938 C 10.28125 10.445312 10.28125 10.445312 10.371094 10.460938 C 10.488281 10.570312 10.492188 10.722656 10.5 10.875 C 10.523438 11.34375 10.523438 11.34375 10.636719 11.792969 C 10.667969 11.800781 10.695312 11.8125 10.726562 11.820312 C 10.710938 11.746094 10.699219 11.671875 10.683594 11.59375 C 10.679688 11.574219 10.675781 11.550781 10.671875 11.53125 C 10.667969 11.507812 10.664062 11.488281 10.660156 11.464844 C 10.65625 11.445312 10.652344 11.425781 10.648438 11.40625 C 10.640625 11.359375 10.628906 11.3125 10.621094 11.265625 C 10.59375 11.132812 10.582031 11.007812 10.652344 10.890625 C 10.667969 10.875 10.679688 10.859375 10.695312 10.84375 C 10.78125 10.851562 10.832031 10.859375 10.894531 10.917969 C 10.949219 11.023438 10.941406 11.128906 10.941406 11.246094 C 10.949219 11.476562 10.980469 11.699219 11.140625 11.882812 C 11.230469 11.914062 11.230469 11.914062 11.320312 11.910156 C 11.347656 11.890625 11.378906 11.871094 11.40625 11.851562 C 11.390625 11.648438 11.3125 11.492188 11.222656 11.308594 C 11.15625 11.167969 11.125 11.0625 11.140625 10.902344 C 11.171875 10.847656 11.171875 10.847656 11.230469 10.816406 C 11.328125 10.792969 11.328125 10.792969 11.4375 10.816406 C 11.550781 10.933594 11.613281 11.035156 11.613281 11.199219 C 11.574219 11.199219 11.535156 11.199219 11.496094 11.199219 C 11.511719 11.25 11.511719 11.25 11.527344 11.300781 C 11.539062 11.347656 11.554688 11.390625 11.566406 11.4375 C 11.574219 11.460938 11.578125 11.480469 11.585938 11.503906 C 11.722656 11.96875 11.722656 11.96875 11.703125 12.117188 C 11.632812 12.246094 11.550781 12.296875 11.414062 12.339844 C 11.183594 12.390625 11.039062 12.359375 10.84375 12.238281 C 10.761719 12.226562 10.761719 12.226562 10.695312 12.238281 C 10.664062 12.371094 10.671875 12.464844 10.710938 12.597656 C 10.777344 12.878906 10.769531 13.121094 10.703125 13.402344 C 10.695312 13.429688 10.695312 13.429688 10.691406 13.460938 C 10.652344 13.601562 10.59375 13.714844 10.519531 13.835938 C 10.5 13.835938 10.480469 13.835938 10.460938 13.835938 C 10.457031 13.804688 10.457031 13.769531 10.453125 13.734375 C 10.445312 13.605469 10.4375 13.480469 10.429688 13.351562 C 10.425781 13.296875 10.421875 13.242188 10.417969 13.1875 C 10.414062 13.105469 10.410156 13.027344 10.402344 12.949219 C 10.402344 12.910156 10.402344 12.910156 10.402344 12.875 C 10.390625 12.75 10.382812 12.695312 10.300781 12.59375 C 10.222656 12.53125 10.222656 12.53125 10.128906 12.488281 C 10.035156 12.441406 10.007812 12.414062 9.957031 12.324219 C 9.941406 12.234375 9.941406 12.234375 9.933594 12.125 C 9.929688 12.089844 9.929688 12.050781 9.925781 12.011719 C 9.925781 11.96875 9.921875 11.929688 9.921875 11.890625 C 9.917969 11.847656 9.914062 11.808594 9.914062 11.765625 C 9.90625 11.667969 9.902344 11.566406 9.894531 11.464844 C 9.875 11.464844 9.855469 11.464844 9.835938 11.464844 C 9.8125 11.574219 9.804688 11.675781 9.800781 11.785156 C 9.792969 12.023438 9.773438 12.203125 9.605469 12.386719 C 9.515625 12.425781 9.460938 12.429688 9.363281 12.414062 C 9.21875 12.332031 9.152344 12.210938 9.097656 12.058594 C 9.019531 11.75 9.070312 11.417969 9.125 11.109375 C 9.277344 11.277344 9.285156 11.515625 9.304688 11.730469 C 9.316406 11.882812 9.316406 11.882812 9.363281 12.03125 C 9.390625 12.03125 9.421875 12.03125 9.453125 12.03125 C 9.507812 11.910156 9.523438 11.800781 9.535156 11.667969 C 9.5625 11.4375 9.617188 11.265625 9.753906 11.082031 C 9.863281 11 9.941406 11 10.074219 10.992188 C 10.132812 11.09375 10.144531 11.179688 10.152344 11.296875 C 10.15625 11.332031 10.15625 11.367188 10.160156 11.40625 C 10.160156 11.441406 10.164062 11.480469 10.167969 11.519531 C 10.167969 11.554688 10.171875 11.59375 10.175781 11.632812 C 10.179688 11.726562 10.1875 11.816406 10.191406 11.910156 C 10.210938 11.910156 10.230469 11.910156 10.25 11.910156 C 10.261719 11.652344 10.230469 11.402344 10.191406 11.144531 C 10.179688 11.070312 10.171875 10.996094 10.160156 10.917969 C 10.152344 10.871094 10.152344 10.871094 10.144531 10.820312 C 10.117188 10.574219 10.117188 10.574219 10.191406 10.460938 Z M 10.191406 10.460938 "/>
<path style=" stroke:none;fill-rule:nonzero;fill:rgb(97.647059%,98.823529%,98.431373%);fill-opacity:1;" d="M 18.519531 10.429688 C 18.546875 10.4375 18.578125 10.449219 18.605469 10.460938 C 18.628906 10.515625 18.648438 10.574219 18.667969 10.632812 C 18.699219 10.707031 18.738281 10.738281 18.800781 10.785156 C 18.917969 10.875 18.964844 10.964844 18.992188 11.109375 C 19 11.199219 19 11.289062 18.992188 11.378906 C 18.953125 11.367188 18.914062 11.359375 18.875 11.347656 C 18.878906 11.378906 18.882812 11.40625 18.886719 11.4375 C 18.929688 11.789062 18.957031 12.144531 18.980469 12.5 C 18.984375 12.527344 18.984375 12.558594 18.988281 12.585938 C 19.011719 12.972656 19.03125 13.359375 19.035156 13.742188 C 19.035156 13.789062 19.035156 13.832031 19.035156 13.875 C 19.042969 14.296875 18.960938 14.65625 18.664062 14.96875 C 18.488281 15.136719 18.304688 15.261719 18.058594 15.273438 C 17.921875 15.265625 17.8125 15.230469 17.6875 15.171875 C 17.667969 15.109375 17.667969 15.109375 17.660156 15.050781 C 17.675781 15.046875 17.691406 15.039062 17.707031 15.035156 C 17.996094 14.917969 18.222656 14.730469 18.445312 14.515625 C 18.460938 14.5 18.472656 14.484375 18.488281 14.472656 C 18.707031 14.25 18.730469 14.03125 18.730469 13.730469 C 18.730469 13.707031 18.730469 13.683594 18.734375 13.65625 C 18.734375 13.578125 18.734375 13.496094 18.734375 13.417969 C 18.734375 13.390625 18.734375 13.363281 18.734375 13.332031 C 18.734375 12.667969 18.683594 12.011719 18.59375 11.351562 C 18.585938 11.316406 18.585938 11.316406 18.582031 11.28125 C 18.5625 11.15625 18.527344 11.070312 18.460938 10.964844 C 18.429688 10.875 18.425781 10.789062 18.421875 10.695312 C 18.421875 10.671875 18.421875 10.644531 18.417969 10.621094 C 18.429688 10.535156 18.460938 10.496094 18.519531 10.429688 Z M 18.519531 10.429688 "/>
<path style=" stroke:none;fill-rule:nonzero;fill:rgb(97.647059%,98.823529%,98.431373%);fill-opacity:1;" d="M 22.488281 10.695312 C 22.5625 10.703125 22.597656 10.714844 22.648438 10.769531 C 22.664062 10.800781 22.664062 10.800781 22.683594 10.828125 C 22.703125 10.859375 22.703125 10.859375 22.722656 10.890625 C 22.734375 10.914062 22.75 10.933594 22.761719 10.957031 C 22.785156 10.988281 22.785156 10.988281 22.804688 11.023438 C 22.902344 11.183594 22.902344 11.183594 22.902344 11.320312 C 22.882812 11.320312 22.863281 11.320312 22.84375 11.320312 C 22.859375 11.503906 22.875 11.6875 22.894531 11.871094 C 22.972656 12.621094 23.023438 13.371094 23.03125 14.125 C 23.03125 14.152344 23.03125 14.179688 23.03125 14.207031 C 23.03125 14.503906 22.953125 14.769531 22.753906 14.992188 C 22.515625 15.207031 22.207031 15.308594 21.890625 15.292969 C 21.871094 15.292969 21.855469 15.289062 21.835938 15.289062 C 21.847656 15.234375 21.847656 15.234375 21.867188 15.171875 C 21.9375 15.121094 22.011719 15.074219 22.085938 15.03125 C 22.519531 14.777344 22.519531 14.777344 22.773438 14.363281 C 22.800781 14.179688 22.792969 13.996094 22.792969 13.8125 C 22.792969 13.789062 22.792969 13.765625 22.792969 13.742188 C 22.792969 13.085938 22.714844 12.4375 22.621094 11.789062 C 22.621094 11.769531 22.617188 11.746094 22.613281 11.722656 C 22.605469 11.664062 22.59375 11.605469 22.585938 11.542969 C 22.582031 11.511719 22.574219 11.476562 22.570312 11.441406 C 22.546875 11.34375 22.511719 11.28125 22.460938 11.199219 C 22.425781 11.105469 22.425781 11.015625 22.425781 10.914062 C 22.421875 10.886719 22.421875 10.859375 22.421875 10.828125 C 22.429688 10.753906 22.429688 10.753906 22.488281 10.695312 Z M 22.488281 10.695312 "/>
<path style=" stroke:none;fill-rule:nonzero;fill:rgb(97.647059%,98.823529%,98.039216%);fill-opacity:1;" d="M 19.109375 10.460938 C 19.148438 10.460938 19.1875 10.460938 19.230469 10.460938 C 19.238281 10.492188 19.25 10.527344 19.257812 10.566406 C 19.308594 10.699219 19.386719 10.765625 19.5 10.851562 C 19.589844 10.9375 19.613281 11.015625 19.621094 11.136719 C 19.621094 11.167969 19.621094 11.195312 19.617188 11.222656 C 19.617188 11.253906 19.617188 11.28125 19.617188 11.3125 C 19.617188 11.332031 19.617188 11.355469 19.613281 11.378906 C 19.585938 11.367188 19.554688 11.359375 19.527344 11.347656 C 19.53125 11.398438 19.53125 11.398438 19.539062 11.445312 C 19.585938 11.808594 19.628906 12.171875 19.675781 12.535156 C 19.679688 12.570312 19.683594 12.605469 19.6875 12.640625 C 19.730469 13.007812 19.738281 13.375 19.742188 13.746094 C 19.742188 13.769531 19.742188 13.789062 19.742188 13.8125 C 19.746094 14.074219 19.734375 14.28125 19.613281 14.519531 C 19.59375 14.519531 19.574219 14.519531 19.554688 14.519531 C 19.554688 14.488281 19.554688 14.457031 19.554688 14.425781 C 19.539062 13.421875 19.460938 12.449219 19.257812 11.464844 C 19.25 11.414062 19.25 11.414062 19.238281 11.359375 C 19.230469 11.324219 19.222656 11.289062 19.214844 11.253906 C 19.207031 11.226562 19.203125 11.195312 19.195312 11.164062 C 19.167969 11.078125 19.128906 11.011719 19.082031 10.933594 C 19.074219 10.855469 19.070312 10.78125 19.074219 10.703125 C 19.074219 10.683594 19.074219 10.664062 19.074219 10.640625 C 19.078125 10.492188 19.078125 10.492188 19.109375 10.460938 Z M 19.109375 10.460938 "/>
<path style=" stroke:none;fill-rule:nonzero;fill:rgb(97.254902%,98.823529%,98.039216%);fill-opacity:1;" d="M 13.246094 10.414062 C 13.363281 10.429688 13.363281 10.429688 13.421875 10.472656 C 13.480469 10.621094 13.460938 10.78125 13.421875 10.933594 C 13.441406 10.933594 13.460938 10.933594 13.480469 10.933594 C 13.46875 10.976562 13.46875 10.976562 13.453125 11.023438 C 13.421875 11.023438 13.394531 11.023438 13.363281 11.023438 C 13.355469 11.042969 13.347656 11.066406 13.339844 11.085938 C 13.226562 11.335938 12.980469 11.503906 12.738281 11.613281 C 12.617188 11.65625 12.515625 11.675781 12.386719 11.675781 C 12.367188 11.65625 12.347656 11.636719 12.324219 11.613281 C 12.351562 11.601562 12.351562 11.601562 12.375 11.589844 C 12.65625 11.441406 12.871094 11.214844 13.097656 10.992188 C 13.078125 10.90625 13.070312 10.878906 13.007812 10.816406 C 12.996094 10.679688 12.992188 10.609375 13.050781 10.488281 C 13.128906 10.425781 13.152344 10.417969 13.246094 10.414062 Z M 13.246094 10.414062 "/>
<path style=" stroke:none;fill-rule:nonzero;fill:rgb(0.784314%,43.529412%,16.862746%);fill-opacity:1;" d="M 15.183594 13.742188 C 15.421875 13.746094 15.625 13.757812 15.820312 13.894531 C 15.792969 13.984375 15.792969 13.984375 15.738281 14.015625 C 15.699219 14.035156 15.65625 14.050781 15.613281 14.070312 C 15.542969 14.113281 15.523438 14.144531 15.496094 14.222656 C 15.484375 14.292969 15.476562 14.359375 15.464844 14.429688 C 15.328125 14.414062 15.21875 14.402344 15.109375 14.3125 C 14.996094 14.152344 14.960938 13.972656 14.964844 13.777344 C 15.019531 13.722656 15.109375 13.742188 15.183594 13.742188 Z M 15.183594 13.742188 "/>
<path style=" stroke:none;fill-rule:nonzero;fill:rgb(96.862745%,98.431373%,97.647059%);fill-opacity:1;" d="M 10.265625 12.777344 C 10.3125 12.828125 10.3125 12.828125 10.328125 12.902344 C 10.3125 12.976562 10.3125 12.976562 10.246094 13.039062 C 10.128906 13.105469 10.003906 13.140625 9.878906 13.179688 C 9.667969 13.253906 9.46875 13.355469 9.28125 13.472656 C 9.214844 13.511719 9.214844 13.511719 9.15625 13.511719 C 9.199219 13.367188 9.28125 13.277344 9.382812 13.171875 C 9.398438 13.15625 9.414062 13.136719 9.429688 13.121094 C 9.640625 12.898438 9.9375 12.617188 10.265625 12.777344 Z M 10.265625 12.777344 "/>
<path style=" stroke:none;fill-rule:nonzero;fill:rgb(96.862745%,98.431373%,97.647059%);fill-opacity:1;" d="M 20.46875 11.605469 C 20.5625 11.613281 20.5625 11.613281 20.636719 11.664062 C 20.679688 11.734375 20.679688 11.734375 20.683594 11.804688 C 20.644531 11.902344 20.578125 11.957031 20.503906 12.03125 C 20.429688 12.1875 20.425781 12.363281 20.414062 12.535156 C 20.324219 12.503906 20.324219 12.503906 20.277344 12.4375 C 20.195312 12.339844 20.109375 12.289062 19.996094 12.226562 C 19.941406 12.179688 19.941406 12.179688 19.914062 12.105469 C 19.910156 12.023438 19.921875 11.976562 19.953125 11.902344 C 19.960938 11.882812 19.972656 11.859375 19.980469 11.839844 C 19.984375 11.824219 19.992188 11.808594 20 11.792969 C 20.121094 11.832031 20.144531 11.894531 20.207031 12 C 20.207031 12.019531 20.207031 12.039062 20.207031 12.058594 C 20.226562 12.058594 20.246094 12.058594 20.265625 12.058594 C 20.269531 12.03125 20.273438 12.003906 20.277344 11.976562 C 20.28125 11.941406 20.289062 11.90625 20.292969 11.871094 C 20.296875 11.835938 20.300781 11.800781 20.308594 11.765625 C 20.332031 11.648438 20.351562 11.621094 20.46875 11.605469 Z M 20.46875 11.605469 "/>
<path style=" stroke:none;fill-rule:nonzero;fill:rgb(96.470588%,98.431373%,97.647059%);fill-opacity:1;" d="M 9.214844 13.984375 C 9.222656 13.984375 9.234375 13.984375 9.246094 13.984375 C 9.25 14.160156 9.234375 14.308594 9.199219 14.480469 C 9.175781 14.585938 9.164062 14.6875 9.214844 14.785156 C 9.289062 14.773438 9.324219 14.765625 9.378906 14.707031 C 9.390625 14.695312 9.40625 14.679688 9.421875 14.667969 C 9.484375 14.679688 9.484375 14.679688 9.539062 14.695312 C 9.523438 15.015625 9.523438 15.015625 9.421875 15.140625 C 9.3125 15.214844 9.257812 15.214844 9.125 15.199219 C 9.039062 15.132812 9.011719 15.097656 8.976562 14.992188 C 8.941406 14.628906 9.058594 14.308594 9.214844 13.984375 Z M 9.214844 13.984375 "/>
<path style=" stroke:none;fill-rule:nonzero;fill:rgb(97.254902%,98.823529%,98.039216%);fill-opacity:1;" d="M 20.859375 12.621094 C 20.878906 12.679688 20.898438 12.738281 20.917969 12.800781 C 20.773438 12.9375 20.621094 13.054688 20.453125 13.164062 C 20.433594 13.175781 20.414062 13.191406 20.394531 13.203125 C 20.296875 13.269531 20.203125 13.324219 20.089844 13.363281 C 20.050781 13.300781 20.027344 13.261719 20.035156 13.1875 C 20.113281 12.988281 20.402344 12.855469 20.574219 12.742188 C 20.59375 12.730469 20.613281 12.71875 20.628906 12.703125 C 20.757812 12.621094 20.757812 12.621094 20.859375 12.621094 Z M 20.859375 12.621094 "/>
<path style=" stroke:none;fill-rule:nonzero;fill:rgb(94.509804%,97.254902%,96.078432%);fill-opacity:1;" d="M 16.828125 14.460938 C 16.828125 14.578125 16.828125 14.695312 16.828125 14.816406 C 17.042969 14.753906 17.042969 14.753906 17.246094 14.667969 C 17.304688 14.707031 17.363281 14.746094 17.421875 14.785156 C 17.394531 14.84375 17.394531 14.84375 17.34375 14.867188 C 17.273438 14.886719 17.203125 14.90625 17.132812 14.925781 C 17.109375 14.929688 17.085938 14.9375 17.058594 14.945312 C 16.933594 14.980469 16.839844 15.007812 16.710938 14.964844 C 16.691406 14.902344 16.671875 14.84375 16.652344 14.785156 C 16.601562 14.777344 16.554688 14.765625 16.503906 14.753906 C 16.488281 14.691406 16.488281 14.691406 16.503906 14.605469 C 16.601562 14.523438 16.699219 14.460938 16.828125 14.460938 Z M 16.828125 14.460938 "/>
<path style=" stroke:none;fill-rule:nonzero;fill:rgb(2.352941%,44.313726%,17.647059%);fill-opacity:1;" d="M 20.183594 19.550781 C 20.214844 19.550781 20.246094 19.550781 20.273438 19.550781 C 20.460938 19.546875 20.621094 19.566406 20.800781 19.613281 C 20.746094 19.757812 20.746094 19.757812 20.710938 19.792969 C 20.621094 19.804688 20.535156 19.804688 20.445312 19.792969 C 20.375 19.730469 20.375 19.730469 20.324219 19.675781 C 20.269531 19.683594 20.269531 19.683594 20.207031 19.703125 C 20.164062 19.707031 20.121094 19.707031 20.078125 19.707031 C 20.054688 19.707031 20.03125 19.707031 20.007812 19.707031 C 19.984375 19.707031 19.957031 19.707031 19.933594 19.707031 C 19.910156 19.707031 19.882812 19.707031 19.859375 19.707031 C 19.796875 19.703125 19.734375 19.703125 19.675781 19.703125 C 19.683594 19.664062 19.695312 19.625 19.703125 19.585938 C 19.863281 19.550781 20.019531 19.550781 20.183594 19.550781 Z M 20.183594 19.550781 "/>
<path style=" stroke:none;fill-rule:nonzero;fill:rgb(94.901961%,97.647059%,96.470588%);fill-opacity:1;" d="M 21.394531 14.667969 C 21.414062 14.675781 21.433594 14.6875 21.453125 14.695312 C 21.464844 14.777344 21.464844 14.777344 21.46875 14.875 C 21.472656 14.910156 21.476562 14.941406 21.476562 14.976562 C 21.480469 15 21.480469 15.027344 21.480469 15.050781 C 21.628906 15.003906 21.628906 15.003906 21.730469 14.898438 C 21.738281 14.878906 21.742188 14.863281 21.75 14.84375 C 21.808594 14.875 21.867188 14.902344 21.925781 14.933594 C 21.882812 15.050781 21.8125 15.097656 21.707031 15.164062 C 21.679688 15.183594 21.652344 15.203125 21.621094 15.222656 C 21.539062 15.257812 21.539062 15.257812 21.472656 15.257812 C 21.421875 15.230469 21.421875 15.230469 21.386719 15.140625 C 21.378906 15.109375 21.371094 15.082031 21.363281 15.050781 C 21.3125 15.042969 21.265625 15.03125 21.214844 15.023438 C 21.226562 14.855469 21.28125 14.785156 21.394531 14.667969 Z M 21.394531 14.667969 "/>
<path style=" stroke:none;fill-rule:nonzero;fill:rgb(94.901961%,97.647059%,96.470588%);fill-opacity:1;" d="M 17.984375 11.527344 C 17.984375 11.574219 17.984375 11.625 17.984375 11.675781 C 18.078125 11.632812 18.101562 11.613281 18.164062 11.527344 C 18.183594 11.574219 18.203125 11.625 18.222656 11.675781 C 18.242188 11.675781 18.261719 11.675781 18.28125 11.675781 C 18.292969 11.625 18.300781 11.578125 18.3125 11.527344 C 18.378906 11.597656 18.398438 11.636719 18.410156 11.734375 C 18.398438 11.820312 18.398438 11.820312 18.359375 11.875 C 18.25 11.953125 18.144531 11.953125 18.015625 11.941406 C 17.929688 11.878906 17.929688 11.878906 17.867188 11.792969 C 17.851562 11.699219 17.851562 11.699219 17.867188 11.613281 C 17.933594 11.527344 17.933594 11.527344 17.984375 11.527344 Z M 17.984375 11.527344 "/>
<path style=" stroke:none;fill-rule:nonzero;fill:rgb(96.470588%,98.431373%,97.647059%);fill-opacity:1;" d="M 10.753906 10.429688 C 10.773438 10.429688 10.792969 10.429688 10.816406 10.429688 C 10.816406 10.480469 10.816406 10.527344 10.816406 10.578125 C 10.910156 10.539062 10.933594 10.519531 10.992188 10.429688 C 11 10.449219 11.007812 10.46875 11.015625 10.488281 C 11.046875 10.558594 11.046875 10.558594 11.140625 10.578125 C 11.140625 10.527344 11.140625 10.480469 11.140625 10.429688 C 11.183594 10.460938 11.183594 10.460938 11.230469 10.519531 C 11.246094 10.621094 11.246094 10.621094 11.230469 10.726562 C 11.128906 10.828125 11.011719 10.824219 10.875 10.828125 C 10.796875 10.8125 10.773438 10.789062 10.726562 10.726562 C 10.703125 10.621094 10.703125 10.621094 10.695312 10.519531 C 10.714844 10.488281 10.734375 10.460938 10.753906 10.429688 Z M 10.753906 10.429688 "/>
<path style=" stroke:none;fill-rule:nonzero;fill:rgb(95.686275%,97.647059%,96.862745%);fill-opacity:1;" d="M 15.527344 12.324219 C 15.535156 12.34375 15.542969 12.363281 15.550781 12.382812 C 15.582031 12.453125 15.582031 12.453125 15.675781 12.472656 C 15.695312 12.433594 15.714844 12.394531 15.734375 12.355469 C 15.789062 12.449219 15.804688 12.515625 15.792969 12.621094 C 15.75 12.679688 15.71875 12.707031 15.652344 12.730469 C 15.414062 12.765625 15.414062 12.765625 15.304688 12.695312 C 15.242188 12.597656 15.25 12.527344 15.257812 12.414062 C 15.269531 12.394531 15.277344 12.375 15.289062 12.355469 C 15.316406 12.367188 15.347656 12.375 15.378906 12.386719 C 15.378906 12.414062 15.378906 12.445312 15.378906 12.472656 C 15.4375 12.449219 15.4375 12.449219 15.496094 12.414062 C 15.507812 12.386719 15.515625 12.355469 15.527344 12.324219 Z M 15.527344 12.324219 "/>
<path style=" stroke:none;fill-rule:nonzero;fill:rgb(95.294118%,97.647059%,96.470588%);fill-opacity:1;" d="M 20.742188 13.035156 C 20.800781 13.058594 20.800781 13.058594 20.859375 13.097656 C 20.875 13.160156 20.875 13.160156 20.878906 13.238281 C 20.882812 13.355469 20.90625 13.433594 20.949219 13.539062 C 20.960938 13.667969 20.960938 13.726562 20.890625 13.835938 C 20.859375 13.867188 20.859375 13.867188 20.828125 13.894531 C 20.800781 13.886719 20.769531 13.875 20.742188 13.867188 C 20.761719 13.847656 20.78125 13.828125 20.800781 13.808594 C 20.8125 13.683594 20.816406 13.621094 20.742188 13.515625 C 20.710938 13.484375 20.710938 13.484375 20.679688 13.453125 C 20.632812 13.359375 20.640625 13.257812 20.652344 13.15625 C 20.695312 13.082031 20.695312 13.082031 20.742188 13.035156 Z M 20.742188 13.035156 "/>
<path style=" stroke:none;fill-rule:nonzero;fill:rgb(95.686275%,98.039216%,96.862745%);fill-opacity:1;" d="M 14.140625 10.261719 C 14.15625 10.269531 14.175781 10.273438 14.191406 10.28125 C 14.203125 10.320312 14.210938 10.359375 14.222656 10.398438 C 14.203125 10.398438 14.183594 10.398438 14.164062 10.398438 C 14.121094 10.476562 14.09375 10.550781 14.074219 10.636719 C 14.113281 10.628906 14.152344 10.617188 14.191406 10.605469 C 14.210938 10.679688 14.210938 10.679688 14.222656 10.753906 C 14.152344 10.824219 14.136719 10.824219 14.042969 10.824219 C 14.023438 10.824219 14.003906 10.824219 13.980469 10.824219 C 13.964844 10.820312 13.945312 10.820312 13.925781 10.816406 C 13.867188 10.726562 13.867188 10.726562 13.871094 10.628906 C 13.902344 10.492188 13.960938 10.234375 14.140625 10.261719 Z M 14.140625 10.261719 "/>
<path style=" stroke:none;fill-rule:nonzero;fill:rgb(96.078432%,98.431373%,97.254902%);fill-opacity:1;" d="M 13.15625 11.585938 C 13.15625 11.691406 13.15625 11.800781 13.15625 11.910156 C 13.246094 11.886719 13.3125 11.867188 13.394531 11.820312 C 13.34375 12.023438 13.34375 12.023438 13.246094 12.089844 C 13.140625 12.101562 13.140625 12.101562 13.035156 12.089844 C 12.953125 12.003906 12.9375 11.933594 12.929688 11.816406 C 12.925781 11.789062 12.925781 11.761719 12.921875 11.734375 C 12.921875 11.714844 12.917969 11.695312 12.917969 11.675781 C 13.089844 11.585938 13.089844 11.585938 13.15625 11.585938 Z M 13.15625 11.585938 "/>
<path style=" stroke:none;fill-rule:nonzero;fill:rgb(95.294118%,98.039216%,96.470588%);fill-opacity:1;" d="M 22.074219 10.902344 C 22.101562 10.902344 22.132812 10.902344 22.164062 10.902344 C 22.183594 10.945312 22.203125 10.988281 22.21875 11.03125 C 22.230469 11.054688 22.242188 11.078125 22.253906 11.101562 C 22.300781 11.21875 22.316406 11.320312 22.316406 11.449219 C 22.316406 11.476562 22.316406 11.503906 22.316406 11.535156 C 22.3125 11.621094 22.289062 11.683594 22.25 11.761719 C 22.222656 11.761719 22.191406 11.761719 22.164062 11.761719 C 22.171875 11.734375 22.183594 11.703125 22.191406 11.675781 C 22.214844 11.472656 22.167969 11.359375 22.042969 11.199219 C 22.023438 11.179688 22.003906 11.160156 21.984375 11.140625 C 21.996094 11.039062 22.015625 10.992188 22.074219 10.902344 Z M 22.074219 10.902344 "/>
<path style=" stroke:none;fill-rule:nonzero;fill:rgb(95.294118%,98.039216%,96.470588%);fill-opacity:1;" d="M 9.566406 10.359375 C 9.660156 10.371094 9.660156 10.371094 9.714844 10.429688 C 9.777344 10.59375 9.757812 10.714844 9.691406 10.871094 C 9.640625 10.988281 9.640625 10.988281 9.570312 11.023438 C 9.570312 11.003906 9.570312 10.984375 9.566406 10.964844 C 9.554688 10.789062 9.523438 10.695312 9.421875 10.546875 C 9.429688 10.421875 9.4375 10.375 9.566406 10.359375 Z M 9.566406 10.359375 "/>
<path style=" stroke:none;fill-rule:nonzero;fill:rgb(95.294118%,97.647059%,96.470588%);fill-opacity:1;" d="M 12.785156 13.382812 C 12.859375 13.394531 12.859375 13.394531 12.910156 13.425781 C 12.984375 13.539062 12.988281 13.640625 12.960938 13.773438 C 12.941406 13.855469 12.921875 13.9375 12.890625 14.015625 C 12.871094 14.023438 12.851562 14.035156 12.828125 14.042969 C 12.828125 13.925781 12.828125 13.808594 12.828125 13.6875 C 12.78125 13.679688 12.730469 13.667969 12.679688 13.660156 C 12.660156 13.640625 12.640625 13.621094 12.621094 13.601562 C 12.632812 13.480469 12.652344 13.398438 12.785156 13.382812 Z M 12.785156 13.382812 "/>
<path style=" stroke:none;fill-rule:nonzero;fill:rgb(96.470588%,98.039216%,97.254902%);fill-opacity:1;" d="M 14.933594 10.3125 C 14.984375 10.320312 15.03125 10.328125 15.082031 10.339844 C 15.144531 10.484375 15.140625 10.5625 15.085938 10.707031 C 15.074219 10.738281 15.0625 10.769531 15.050781 10.800781 C 15.035156 10.839844 15.035156 10.839844 15.023438 10.875 C 14.972656 10.886719 14.921875 10.894531 14.875 10.902344 C 14.863281 10.894531 14.855469 10.882812 14.84375 10.875 C 14.847656 10.8125 14.851562 10.75 14.855469 10.6875 C 14.859375 10.65625 14.859375 10.621094 14.863281 10.585938 C 14.886719 10.355469 14.886719 10.355469 14.933594 10.3125 Z M 14.933594 10.3125 "/>
<path style=" stroke:none;fill-rule:nonzero;fill:rgb(4.313726%,45.490196%,20%);fill-opacity:1;" d="M 10.132812 11.050781 C 10.210938 11.109375 10.222656 11.144531 10.242188 11.238281 C 10.25 11.277344 10.253906 11.316406 10.257812 11.355469 C 10.261719 11.394531 10.265625 11.429688 10.273438 11.472656 C 10.296875 11.769531 10.296875 11.769531 10.25 11.910156 C 10.230469 11.910156 10.210938 11.910156 10.191406 11.910156 C 10.148438 11.714844 10.125 11.515625 10.113281 11.316406 C 10.113281 11.292969 10.109375 11.269531 10.109375 11.246094 C 10.105469 11.191406 10.105469 11.136719 10.105469 11.082031 C 10.113281 11.070312 10.125 11.0625 10.132812 11.050781 Z M 10.132812 11.050781 "/>
<path style=" stroke:none;fill-rule:nonzero;fill:rgb(6.27451%,46.666667%,21.568628%);fill-opacity:1;" d="M 17.097656 10.992188 C 17.164062 10.984375 17.164062 10.984375 17.246094 10.992188 C 17.351562 11.109375 17.351562 11.253906 17.363281 11.40625 C 17.289062 11.339844 17.234375 11.265625 17.179688 11.183594 C 17.164062 11.160156 17.148438 11.136719 17.132812 11.113281 C 17.097656 11.050781 17.097656 11.050781 17.097656 10.992188 Z M 17.097656 10.992188 "/>
<path style=" stroke:none;fill-rule:nonzero;fill:rgb(4.313726%,45.490196%,20%);fill-opacity:1;" d="M 11.292969 12.898438 C 11.3125 12.90625 11.328125 12.914062 11.347656 12.917969 C 11.359375 12.96875 11.371094 13.015625 11.378906 13.066406 C 11.347656 13.097656 11.347656 13.097656 11.257812 13.097656 C 11.230469 13.097656 11.199219 13.097656 11.171875 13.097656 C 11.160156 13.046875 11.152344 13 11.140625 12.949219 C 11.230469 12.890625 11.230469 12.890625 11.292969 12.898438 Z M 11.292969 12.898438 "/>
<path style=" stroke:none;fill-rule:nonzero;fill:rgb(4.705882%,44.705883%,19.607843%);fill-opacity:1;" d="M 13.214844 10.605469 C 13.246094 10.617188 13.273438 10.628906 13.304688 10.636719 C 13.304688 10.6875 13.304688 10.734375 13.304688 10.785156 C 13.265625 10.785156 13.226562 10.785156 13.183594 10.785156 C 13.183594 10.734375 13.183594 10.6875 13.183594 10.636719 C 13.195312 10.628906 13.203125 10.617188 13.214844 10.605469 Z M 13.214844 10.605469 "/>
<path style=" stroke:none;fill-rule:nonzero;fill:rgb(7.058824%,46.666667%,22.352941%);fill-opacity:1;" d="M 16.355469 12.621094 C 16.394531 12.632812 16.433594 12.640625 16.472656 12.652344 C 16.484375 12.699219 16.492188 12.75 16.503906 12.800781 C 16.464844 12.789062 16.425781 12.78125 16.386719 12.769531 C 16.375 12.722656 16.367188 12.671875 16.355469 12.621094 Z M 16.355469 12.621094 "/>
</g>
</svg>
