<?xml version="1.0" encoding="UTF-8"?>
<svg xmlns="http://www.w3.org/2000/svg" xmlns:xlink="http://www.w3.org/1999/xlink" width="155px" height="128px" viewBox="0 0 154 128" version="1.1">
<g id="surface1">
<path style=" stroke:none;fill-rule:nonzero;fill:rgb(98.431373%,10.196079%,10.588235%);fill-opacity:1;" d="M 88.453125 20.972656 C 89.773438 22.179688 90.910156 23.472656 91.972656 24.914062 C 92.109375 25.097656 92.109375 25.097656 92.246094 25.28125 C 94.664062 28.648438 96.195312 32.421875 97.078125 36.460938 C 97.265625 37.363281 97.265625 37.363281 97.757812 38.121094 C 98.277344 38.710938 98.390625 39.269531 98.386719 40.03125 C 98.320312 41.035156 98.125 42.046875 97.675781 42.953125 C 97.644531 43.222656 97.621094 43.492188 97.601562 43.765625 C 97.585938 43.929688 97.574219 44.089844 97.5625 44.257812 C 97.550781 44.429688 97.539062 44.601562 97.523438 44.777344 C 97.511719 44.949219 97.5 45.117188 97.484375 45.289062 C 97.429688 46.042969 97.382812 46.78125 97.390625 47.535156 C 97.941406 47.597656 97.941406 47.597656 98.183594 47.328125 C 98.820312 46.4375 99.386719 45.496094 99.53125 44.386719 C 99.625 44.386719 99.71875 44.386719 99.816406 44.386719 C 99.980469 45.03125 99.964844 45.65625 99.953125 46.316406 C 99.949219 46.554688 99.945312 46.796875 99.941406 47.035156 C 99.9375 47.410156 99.929688 47.785156 99.921875 48.160156 C 99.835938 49.9375 99.835938 49.9375 100.390625 51.589844 C 100.71875 52.164062 100.703125 52.753906 100.671875 53.40625 C 100.582031 53.691406 100.484375 53.980469 100.386719 54.265625 C 103.671875 51.941406 105.527344 48.777344 106.300781 44.832031 C 106.394531 44.253906 106.464844 43.679688 106.515625 43.097656 C 109.445312 44.238281 111.765625 48.855469 112.976562 51.5625 C 115.566406 57.542969 115.855469 64.222656 113.558594 70.34375 C 112.722656 72.351562 111.734375 74.332031 110.367188 76.027344 C 110.273438 76.144531 110.183594 76.265625 110.089844 76.386719 C 109.410156 77.257812 108.691406 78.082031 107.941406 78.890625 C 107.867188 78.976562 107.789062 79.058594 107.710938 79.148438 C 106.417969 80.515625 104.808594 81.601562 103.238281 82.613281 C 104.222656 82.457031 105.152344 82.246094 106.089844 81.898438 C 105.492188 86.546875 103.246094 90.894531 100.414062 94.5625 C 100.25 94.773438 100.09375 94.988281 99.933594 95.199219 C 99.4375 95.859375 99.4375 95.859375 99.246094 96.070312 C 99.148438 96.070312 99.054688 96.070312 98.960938 96.070312 C 98.921875 96.15625 98.882812 96.238281 98.84375 96.328125 C 98.667969 96.65625 98.480469 96.875 98.21875 97.140625 C 98.132812 97.226562 98.042969 97.316406 97.953125 97.40625 C 97.863281 97.496094 97.769531 97.589844 97.675781 97.683594 C 97.585938 97.773438 97.492188 97.867188 97.398438 97.964844 C 97.3125 98.050781 97.222656 98.140625 97.132812 98.230469 C 97.011719 98.351562 97.011719 98.351562 96.890625 98.472656 C 96.679688 98.648438 96.679688 98.648438 96.394531 98.648438 C 96.394531 98.742188 96.394531 98.835938 96.394531 98.933594 C 96.117188 99.179688 95.84375 99.410156 95.554688 99.632812 C 95.464844 99.703125 95.375 99.773438 95.285156 99.84375 C 91.769531 102.535156 87.894531 104.574219 83.558594 105.519531 C 83.378906 105.5625 83.378906 105.5625 83.195312 105.605469 C 81.140625 106.054688 79.128906 106.144531 77.035156 106.171875 C 75.460938 106.191406 73.984375 106.28125 72.453125 106.675781 C 67.132812 108.011719 60.859375 106.292969 56.277344 103.558594 C 54.503906 102.464844 52.871094 101.199219 51.332031 99.792969 C 51.222656 99.695312 51.113281 99.59375 51 99.492188 C 49.0625 97.636719 47.285156 94.992188 47.175781 92.230469 C 47.15625 90.714844 47.15625 90.714844 47.339844 90.34375 C 47.160156 90.316406 46.976562 90.285156 46.789062 90.253906 C 45.152344 89.882812 43.722656 88.675781 42.8125 87.292969 C 40.507812 83.398438 40.195312 78.820312 41.246094 74.484375 C 42.222656 70.738281 44.339844 66.925781 47.484375 64.574219 C 47.882812 64.394531 47.882812 64.394531 48.195312 64.285156 C 48.296875 64.414062 48.394531 64.539062 48.5 64.667969 C 49.761719 66.289062 49.761719 66.289062 51.617188 67.039062 C 52.445312 67.070312 53.085938 66.945312 53.757812 66.433594 C 54.113281 65.945312 54.183594 65.679688 54.183594 65.074219 C 53.890625 64.035156 53.140625 63.550781 52.277344 63.007812 C 48.375 60.414062 46.175781 56.265625 45.238281 51.746094 C 44.019531 45.300781 46.25 38.980469 49.765625 33.648438 C 50.210938 33 50.6875 32.390625 51.191406 31.785156 C 51.316406 31.632812 51.441406 31.480469 51.566406 31.324219 C 52.789062 29.84375 54.070312 28.375 55.46875 27.058594 C 55.5625 27.058594 55.65625 27.058594 55.753906 27.058594 C 55.753906 26.964844 55.753906 26.871094 55.753906 26.773438 C 55.847656 26.773438 55.941406 26.773438 56.039062 26.773438 C 55.980469 27.027344 55.980469 27.027344 55.925781 27.289062 C 55.875 27.515625 55.824219 27.746094 55.773438 27.972656 C 55.746094 28.085938 55.722656 28.195312 55.695312 28.308594 C 55.644531 28.539062 55.59375 28.769531 55.546875 29 C 55.496094 29.230469 55.441406 29.464844 55.386719 29.695312 C 55.175781 30.644531 55.128906 31.566406 55.128906 32.535156 C 55.128906 32.695312 55.128906 32.851562 55.128906 33.011719 C 55.148438 34.21875 55.292969 35.242188 55.753906 36.367188 C 55.792969 36.472656 55.835938 36.582031 55.878906 36.691406 C 56.613281 38.367188 57.953125 39.542969 59.628906 40.214844 C 61.082031 40.636719 62.71875 40.628906 64.167969 40.234375 C 64.304688 40.195312 64.441406 40.160156 64.582031 40.121094 C 67.410156 39.269531 69.382812 37.363281 70.800781 34.832031 C 72.296875 31.796875 72.265625 28.222656 71.203125 25.058594 C 70.546875 23.183594 69.589844 21.554688 68.300781 20.042969 C 68.203125 19.925781 68.101562 19.804688 68 19.683594 C 66.082031 17.453125 63.605469 16.070312 61.03125 14.746094 C 61.171875 14.460938 61.171875 14.460938 61.417969 14.367188 C 71.003906 11.96875 81.089844 14.316406 88.453125 20.972656 Z M 88.453125 20.972656 "/>
<path style=" stroke:none;fill-rule:nonzero;fill:rgb(99.215686%,80.392158%,0%);fill-opacity:1;" d="M 88.453125 20.972656 C 89.773438 22.179688 90.910156 23.472656 91.972656 24.914062 C 92.109375 25.097656 92.109375 25.097656 92.246094 25.28125 C 94.691406 28.683594 97 33.234375 97.105469 37.511719 C 96.96875 37.488281 96.828125 37.464844 96.6875 37.441406 C 95.664062 37.300781 94.867188 37.273438 93.929688 37.746094 C 93.503906 38.085938 93.285156 38.417969 93.21875 38.96875 C 93.203125 39.339844 93.195312 39.714844 93.191406 40.089844 C 93.15625 41.308594 93.074219 42.40625 92.542969 43.527344 C 92.46875 43.691406 92.46875 43.691406 92.390625 43.863281 C 92.1875 44.242188 92.003906 44.519531 91.6875 44.8125 C 91.121094 44.960938 90.589844 44.90625 90.011719 44.859375 C 87.589844 44.757812 85.492188 45.101562 83.460938 46.511719 C 83.089844 46.855469 83.007812 47.089844 82.847656 47.5625 C 82.222656 48.785156 80.851562 49.066406 79.648438 49.53125 C 75.277344 51.3125 71.90625 55.324219 69.886719 59.480469 C 69.828125 59.605469 69.765625 59.730469 69.703125 59.855469 C 68.664062 62.082031 68.136719 64.457031 67.679688 66.855469 C 67.625 67.132812 67.570312 67.414062 67.515625 67.691406 C 67.234375 69.128906 66.96875 70.570312 66.710938 72.015625 C 66.675781 72.222656 66.675781 72.222656 66.636719 72.4375 C 66.519531 73.097656 66.40625 73.757812 66.292969 74.421875 C 66.074219 75.703125 65.804688 76.957031 65.449219 78.210938 C 65.398438 78.390625 65.398438 78.390625 65.347656 78.578125 C 64.355469 81.972656 62.113281 84.78125 59.035156 86.480469 C 56.558594 87.8125 53.917969 88.511719 51.117188 88.691406 C 50.957031 88.703125 50.796875 88.710938 50.628906 88.722656 C 50.3125 88.742188 49.996094 88.757812 49.679688 88.769531 C 48.804688 88.820312 48.804688 88.820312 48.039062 89.226562 C 47.761719 89.640625 47.605469 90.003906 47.484375 90.488281 C 45.394531 89.898438 43.714844 88.890625 42.613281 86.960938 C 40.390625 82.816406 40.164062 78.0625 41.496094 73.59375 C 42.582031 70.1875 44.578125 66.746094 47.484375 64.574219 C 47.882812 64.394531 47.882812 64.394531 48.195312 64.285156 C 48.296875 64.414062 48.394531 64.539062 48.5 64.667969 C 49.761719 66.289062 49.761719 66.289062 51.617188 67.039062 C 52.445312 67.070312 53.085938 66.945312 53.757812 66.433594 C 54.113281 65.945312 54.183594 65.679688 54.183594 65.074219 C 53.890625 64.035156 53.140625 63.550781 52.277344 63.007812 C 48.375 60.414062 46.175781 56.265625 45.238281 51.746094 C 44.019531 45.300781 46.25 38.980469 49.765625 33.648438 C 50.210938 33 50.6875 32.390625 51.191406 31.785156 C 51.316406 31.632812 51.441406 31.480469 51.566406 31.324219 C 52.789062 29.84375 54.070312 28.375 55.46875 27.058594 C 55.5625 27.058594 55.65625 27.058594 55.753906 27.058594 C 55.753906 26.964844 55.753906 26.871094 55.753906 26.773438 C 55.847656 26.773438 55.941406 26.773438 56.039062 26.773438 C 55.980469 27.027344 55.980469 27.027344 55.925781 27.289062 C 55.875 27.515625 55.824219 27.746094 55.773438 27.972656 C 55.746094 28.085938 55.722656 28.195312 55.695312 28.308594 C 55.644531 28.539062 55.59375 28.769531 55.546875 29 C 55.496094 29.230469 55.441406 29.464844 55.386719 29.695312 C 55.175781 30.644531 55.128906 31.566406 55.128906 32.535156 C 55.128906 32.695312 55.128906 32.851562 55.128906 33.011719 C 55.148438 34.21875 55.292969 35.242188 55.753906 36.367188 C 55.792969 36.472656 55.835938 36.582031 55.878906 36.691406 C 56.613281 38.367188 57.953125 39.542969 59.628906 40.214844 C 61.082031 40.636719 62.71875 40.628906 64.167969 40.234375 C 64.304688 40.195312 64.441406 40.160156 64.582031 40.121094 C 67.410156 39.269531 69.382812 37.363281 70.800781 34.832031 C 72.296875 31.796875 72.265625 28.222656 71.203125 25.058594 C 70.546875 23.183594 69.589844 21.554688 68.300781 20.042969 C 68.203125 19.925781 68.101562 19.804688 68 19.683594 C 66.082031 17.453125 63.605469 16.070312 61.03125 14.746094 C 61.171875 14.460938 61.171875 14.460938 61.417969 14.367188 C 71.003906 11.96875 81.089844 14.316406 88.453125 20.972656 Z M 88.453125 20.972656 "/>
<path style=" stroke:none;fill-rule:nonzero;fill:rgb(98.823529%,58.039218%,10.588235%);fill-opacity:1;" d="M 88.453125 20.972656 C 89.773438 22.179688 90.910156 23.472656 91.972656 24.914062 C 92.109375 25.097656 92.109375 25.097656 92.246094 25.28125 C 94.691406 28.683594 97 33.234375 97.105469 37.511719 C 96.96875 37.488281 96.828125 37.464844 96.6875 37.441406 C 95.664062 37.300781 94.867188 37.273438 93.929688 37.746094 C 93.503906 38.085938 93.285156 38.417969 93.21875 38.96875 C 93.203125 39.339844 93.195312 39.714844 93.191406 40.089844 C 93.164062 41.332031 93.003906 42.363281 92.542969 43.527344 C 92.496094 43.527344 92.449219 43.527344 92.398438 43.527344 C 92.382812 43.269531 92.382812 43.269531 92.367188 43.007812 C 91.859375 36.050781 89.550781 28.277344 84.984375 22.910156 C 84.863281 22.753906 84.742188 22.597656 84.621094 22.441406 C 80.601562 17.890625 73.507812 16.085938 67.730469 15.464844 C 67.871094 15.535156 67.871094 15.535156 68.015625 15.605469 C 68.015625 15.699219 68.015625 15.796875 68.015625 15.894531 C 68.097656 15.929688 68.179688 15.964844 68.265625 16.003906 C 70.167969 17.046875 71.453125 19.613281 72.4375 21.476562 C 72.503906 21.605469 72.570312 21.730469 72.640625 21.863281 C 73.03125 22.660156 73.292969 23.480469 73.535156 24.332031 C 73.5625 24.433594 73.589844 24.535156 73.621094 24.640625 C 74.746094 28.835938 74.3125 33.339844 72.179688 37.136719 C 69.832031 41.027344 66.414062 43.746094 62.027344 44.957031 C 60.152344 45.332031 58.328125 45.140625 56.707031 44.070312 C 54.183594 42.136719 53.011719 38.992188 52.472656 35.9375 C 52.441406 35.40625 52.441406 34.875 52.4375 34.34375 C 52.433594 34.203125 52.433594 34.0625 52.429688 33.917969 C 52.425781 32.90625 52.589844 32.03125 52.902344 31.070312 C 52.445312 31.816406 51.988281 32.5625 51.535156 33.3125 C 51.414062 33.515625 51.289062 33.71875 51.164062 33.921875 C 50.359375 35.246094 49.746094 36.617188 49.175781 38.058594 C 49.070312 38.328125 48.957031 38.597656 48.847656 38.863281 C 46.941406 43.734375 46.886719 49.757812 48.953125 54.578125 C 49.921875 56.738281 51.191406 58.625 52.890625 60.273438 C 53.351562 60.726562 53.765625 61.214844 54.183594 61.710938 C 54.300781 61.839844 54.414062 61.972656 54.535156 62.105469 C 56.175781 64 57.207031 66.0625 57.089844 68.617188 C 56.960938 69.894531 56.429688 70.886719 55.46875 71.730469 C 54.429688 72.402344 53.410156 72.5625 52.1875 72.449219 C 51.042969 72.171875 50.21875 71.589844 49.585938 70.59375 C 49.242188 69.945312 49.0625 69.296875 48.910156 68.582031 C 45.933594 72.4375 43.425781 76.992188 43.917969 82.039062 C 44.242188 84.382812 45.007812 86.621094 46.738281 88.300781 C 46.914062 88.484375 46.914062 88.484375 46.914062 88.769531 C 47 88.804688 47.089844 88.839844 47.179688 88.878906 C 47.550781 89.09375 47.652344 89.214844 47.769531 89.628906 C 47.679688 89.917969 47.585938 90.203125 47.484375 90.488281 C 45.394531 89.898438 43.714844 88.890625 42.613281 86.960938 C 40.390625 82.816406 40.164062 78.0625 41.496094 73.59375 C 42.582031 70.1875 44.578125 66.746094 47.484375 64.574219 C 47.882812 64.394531 47.882812 64.394531 48.195312 64.285156 C 48.296875 64.414062 48.394531 64.539062 48.5 64.667969 C 49.761719 66.289062 49.761719 66.289062 51.617188 67.039062 C 52.445312 67.070312 53.085938 66.945312 53.757812 66.433594 C 54.113281 65.945312 54.183594 65.679688 54.183594 65.074219 C 53.890625 64.035156 53.140625 63.550781 52.277344 63.007812 C 48.375 60.414062 46.175781 56.265625 45.238281 51.746094 C 44.019531 45.300781 46.25 38.980469 49.765625 33.648438 C 50.210938 33 50.6875 32.390625 51.191406 31.785156 C 51.316406 31.632812 51.441406 31.480469 51.566406 31.324219 C 52.789062 29.84375 54.070312 28.375 55.46875 27.058594 C 55.5625 27.058594 55.65625 27.058594 55.753906 27.058594 C 55.753906 26.964844 55.753906 26.871094 55.753906 26.773438 C 55.847656 26.773438 55.941406 26.773438 56.039062 26.773438 C 55.980469 27.027344 55.980469 27.027344 55.925781 27.289062 C 55.875 27.515625 55.824219 27.746094 55.773438 27.972656 C 55.746094 28.085938 55.722656 28.195312 55.695312 28.308594 C 55.644531 28.539062 55.59375 28.769531 55.546875 29 C 55.496094 29.230469 55.441406 29.464844 55.386719 29.695312 C 55.175781 30.644531 55.128906 31.566406 55.128906 32.535156 C 55.128906 32.695312 55.128906 32.851562 55.128906 33.011719 C 55.148438 34.21875 55.292969 35.242188 55.753906 36.367188 C 55.792969 36.472656 55.835938 36.582031 55.878906 36.691406 C 56.613281 38.367188 57.953125 39.542969 59.628906 40.214844 C 61.082031 40.636719 62.71875 40.628906 64.167969 40.234375 C 64.304688 40.195312 64.441406 40.160156 64.582031 40.121094 C 67.410156 39.269531 69.382812 37.363281 70.800781 34.832031 C 72.296875 31.796875 72.265625 28.222656 71.203125 25.058594 C 70.546875 23.183594 69.589844 21.554688 68.300781 20.042969 C 68.203125 19.925781 68.101562 19.804688 68 19.683594 C 66.082031 17.453125 63.605469 16.070312 61.03125 14.746094 C 61.171875 14.460938 61.171875 14.460938 61.417969 14.367188 C 71.003906 11.96875 81.089844 14.316406 88.453125 20.972656 Z M 88.453125 20.972656 "/>
<path style=" stroke:none;fill-rule:nonzero;fill:rgb(98.823529%,58.039218%,10.588235%);fill-opacity:1;" d="M 106.515625 43.097656 C 109.445312 44.238281 111.765625 48.855469 112.976562 51.5625 C 115.566406 57.542969 115.855469 64.222656 113.558594 70.34375 C 112.722656 72.351562 111.734375 74.332031 110.367188 76.027344 C 110.273438 76.144531 110.183594 76.265625 110.089844 76.386719 C 109.410156 77.257812 108.691406 78.082031 107.941406 78.890625 C 107.828125 79.019531 107.828125 79.019531 107.710938 79.148438 C 106.417969 80.515625 104.808594 81.601562 103.238281 82.613281 C 104.222656 82.457031 105.152344 82.246094 106.089844 81.898438 C 105.492188 86.546875 103.246094 90.894531 100.414062 94.5625 C 100.25 94.773438 100.09375 94.988281 99.933594 95.199219 C 99.4375 95.859375 99.4375 95.859375 99.246094 96.070312 C 99.148438 96.070312 99.054688 96.070312 98.960938 96.070312 C 98.921875 96.15625 98.882812 96.238281 98.84375 96.328125 C 98.667969 96.65625 98.480469 96.875 98.21875 97.140625 C 98.132812 97.226562 98.042969 97.316406 97.953125 97.40625 C 97.863281 97.496094 97.769531 97.589844 97.675781 97.683594 C 97.585938 97.773438 97.492188 97.867188 97.398438 97.964844 C 97.3125 98.050781 97.222656 98.140625 97.132812 98.230469 C 97.050781 98.3125 96.972656 98.390625 96.890625 98.472656 C 96.679688 98.648438 96.679688 98.648438 96.394531 98.648438 C 96.394531 98.742188 96.394531 98.835938 96.394531 98.933594 C 96.117188 99.179688 95.84375 99.410156 95.554688 99.632812 C 95.421875 99.738281 95.421875 99.738281 95.285156 99.84375 C 91.769531 102.539062 87.898438 104.570312 83.558594 105.519531 C 83.375 105.5625 83.375 105.5625 83.191406 105.605469 C 80.476562 106.214844 77.765625 106.152344 75.003906 106.09375 C 75.375 105.847656 75.605469 105.734375 76.019531 105.609375 C 79.84375 104.410156 83.199219 102.613281 86.410156 100.222656 C 86.5 100.160156 86.585938 100.09375 86.675781 100.027344 C 88.054688 98.992188 89.308594 97.84375 90.546875 96.644531 C 90.730469 96.46875 90.730469 96.46875 90.921875 96.285156 C 91.597656 95.625 92.199219 94.925781 92.785156 94.1875 C 92.996094 93.925781 93.214844 93.664062 93.433594 93.410156 C 97.109375 89.164062 99.890625 83.855469 101.8125 78.605469 C 101.855469 78.488281 101.894531 78.375 101.941406 78.257812 C 103.832031 73.097656 104.894531 66.710938 103.523438 61.28125 C 103.496094 61.183594 103.472656 61.085938 103.449219 60.984375 C 102.835938 58.65625 101.792969 56.585938 100.527344 54.550781 C 100.480469 54.457031 100.433594 54.363281 100.386719 54.265625 C 100.5 54.183594 100.617188 54.101562 100.734375 54.015625 C 103.96875 51.667969 105.71875 48.300781 106.375 44.386719 C 106.433594 43.953125 106.480469 43.527344 106.515625 43.097656 Z M 106.515625 43.097656 "/>
<path style=" stroke:none;fill-rule:nonzero;fill:rgb(99.215686%,89.019608%,10.588235%);fill-opacity:1;" d="M 81.277344 29.496094 C 85.199219 33.144531 87.425781 39.589844 88.550781 44.671875 C 88.46875 44.6875 88.386719 44.707031 88.300781 44.722656 C 85.507812 45.300781 85.507812 45.300781 83.132812 46.820312 C 83.027344 47.0625 82.933594 47.3125 82.847656 47.5625 C 82.222656 48.785156 80.851562 49.066406 79.648438 49.53125 C 75.277344 51.3125 71.90625 55.324219 69.886719 59.480469 C 69.796875 59.667969 69.796875 59.667969 69.703125 59.855469 C 68.664062 62.082031 68.136719 64.457031 67.679688 66.855469 C 67.625 67.132812 67.570312 67.414062 67.515625 67.691406 C 67.234375 69.128906 66.96875 70.570312 66.710938 72.015625 C 66.675781 72.222656 66.675781 72.222656 66.636719 72.4375 C 66.519531 73.097656 66.40625 73.757812 66.292969 74.421875 C 66.074219 75.703125 65.804688 76.957031 65.449219 78.210938 C 65.398438 78.390625 65.398438 78.390625 65.347656 78.578125 C 64.355469 81.972656 62.113281 84.78125 59.035156 86.480469 C 56.484375 87.855469 53.535156 88.769531 50.621094 88.625 C 49.929688 85.878906 49.890625 83.304688 50.460938 80.539062 C 50.53125 80.191406 50.601562 79.839844 50.667969 79.492188 C 50.710938 79.265625 50.757812 79.042969 50.800781 78.820312 C 50.824219 78.714844 50.84375 78.613281 50.863281 78.503906 C 51.015625 77.777344 51.015625 77.777344 51.332031 77.457031 C 51.441406 77.527344 51.546875 77.59375 51.65625 77.664062 C 53.804688 78.972656 55.914062 79.339844 58.371094 78.761719 C 60.621094 78.085938 62.425781 76.640625 63.597656 74.59375 C 65.28125 71.460938 65.519531 68.125 64.589844 64.714844 C 63.890625 62.476562 62.714844 60.519531 61.457031 58.558594 C 58.554688 54.03125 58.554688 54.03125 58.890625 51.542969 C 58.984375 51.449219 59.078125 51.355469 59.175781 51.257812 C 59.265625 51.410156 59.265625 51.410156 59.355469 51.566406 C 60.5 53.476562 62.074219 54.546875 64.230469 55.113281 C 67.65625 55.777344 71.019531 54.578125 73.863281 52.6875 C 74.355469 52.328125 74.824219 51.941406 75.289062 51.542969 C 75.460938 51.402344 75.460938 51.402344 75.640625 51.253906 C 79.5625 47.90625 81.460938 42.765625 81.957031 37.746094 C 81.96875 37.476562 81.980469 37.207031 81.992188 36.941406 C 82 36.777344 82.003906 36.617188 82.011719 36.449219 C 82.070312 34.121094 81.703125 31.777344 81.277344 29.496094 Z M 81.277344 29.496094 "/>
<path style=" stroke:none;fill-rule:nonzero;fill:rgb(52.549022%,10.196079%,9.411765%);fill-opacity:1;" d="M 97.105469 37.082031 C 97.136719 37.160156 97.171875 37.238281 97.203125 37.316406 C 97.390625 37.683594 97.390625 37.683594 97.746094 38.050781 C 98.351562 38.769531 98.421875 39.523438 98.363281 40.429688 C 98.261719 41.296875 98.066406 42.167969 97.675781 42.953125 C 97.644531 43.222656 97.621094 43.492188 97.601562 43.765625 C 97.585938 43.929688 97.574219 44.089844 97.5625 44.257812 C 97.550781 44.429688 97.539062 44.601562 97.523438 44.777344 C 97.511719 44.949219 97.5 45.117188 97.484375 45.289062 C 97.429688 46.042969 97.382812 46.78125 97.390625 47.535156 C 97.941406 47.597656 97.941406 47.597656 98.183594 47.328125 C 98.820312 46.4375 99.386719 45.496094 99.53125 44.386719 C 99.625 44.386719 99.71875 44.386719 99.816406 44.386719 C 99.980469 45.03125 99.964844 45.65625 99.953125 46.316406 C 99.949219 46.554688 99.945312 46.796875 99.941406 47.035156 C 99.9375 47.410156 99.929688 47.785156 99.921875 48.160156 C 99.835938 49.9375 99.835938 49.9375 100.390625 51.589844 C 100.792969 52.292969 100.738281 53.113281 100.5625 53.882812 C 100.519531 54.53125 100.726562 54.835938 101.097656 55.335938 C 104.304688 60 104.710938 66.207031 103.8125 71.671875 C 102.433594 79.175781 99.109375 86.363281 94.394531 92.347656 C 94.296875 92.476562 94.199219 92.605469 94.097656 92.734375 C 93.820312 93.089844 93.539062 93.433594 93.253906 93.78125 C 93.195312 93.851562 93.136719 93.925781 93.078125 94 C 91.464844 95.964844 89.710938 97.8125 87.695312 99.363281 C 87.515625 99.507812 87.335938 99.652344 87.15625 99.796875 C 85.6875 100.957031 84.164062 101.988281 82.5625 102.945312 C 82.472656 102.996094 82.382812 103.050781 82.289062 103.105469 C 76.546875 106.511719 69.492188 107.953125 62.972656 106.328125 C 58.527344 105.164062 54.71875 102.890625 51.332031 99.792969 C 51.222656 99.695312 51.113281 99.59375 51 99.492188 C 48.847656 97.433594 47.246094 94.730469 47.136719 91.714844 C 47.148438 90.742188 47.320312 89.980469 47.910156 89.199219 C 48.347656 88.804688 48.644531 88.710938 49.226562 88.679688 C 49.371094 88.671875 49.519531 88.660156 49.667969 88.652344 C 49.902344 88.640625 49.902344 88.640625 50.140625 88.625 C 54.832031 88.304688 59.140625 87.109375 62.511719 83.617188 C 65.394531 80.265625 65.925781 75.796875 66.679688 71.589844 C 66.867188 70.527344 67.0625 69.460938 67.253906 68.398438 C 67.277344 68.285156 67.296875 68.171875 67.316406 68.054688 C 68.339844 62.476562 70.015625 57.558594 74.003906 53.40625 C 74.089844 53.3125 74.175781 53.222656 74.261719 53.125 C 76.289062 50.96875 79.175781 49.308594 81.972656 48.402344 C 82.378906 48.199219 82.4375 48 82.597656 47.578125 C 83.183594 46.316406 84.257812 45.734375 85.519531 45.253906 C 87.566406 44.578125 89.554688 44.621094 91.6875 44.671875 C 91.75 44.5625 91.808594 44.457031 91.875 44.347656 C 92.019531 44.089844 92.167969 43.835938 92.3125 43.582031 C 92.917969 42.304688 93.03125 41.140625 93.019531 39.746094 C 93.035156 38.816406 93.203125 38.351562 93.824219 37.65625 C 94.652344 37.160156 95.480469 37.089844 96.410156 37.292969 C 96.644531 37.355469 96.875 37.433594 97.105469 37.511719 C 97.105469 37.371094 97.105469 37.230469 97.105469 37.082031 Z M 74.859375 54.121094 C 74.695312 54.269531 74.695312 54.269531 74.53125 54.421875 C 70.046875 58.617188 68.972656 64.90625 67.9375 70.65625 C 67.175781 74.835938 67.175781 74.835938 66.78125 76.859375 C 66.753906 77.003906 66.726562 77.144531 66.699219 77.292969 C 66.167969 79.972656 65.003906 82.449219 63.167969 84.472656 C 63.082031 84.574219 62.992188 84.671875 62.902344 84.773438 C 60.054688 87.839844 55.394531 89.484375 51.28125 89.640625 C 51.164062 89.644531 51.050781 89.644531 50.929688 89.648438 C 50.753906 89.652344 50.753906 89.652344 50.574219 89.65625 C 50.335938 89.660156 50.09375 89.664062 49.855469 89.664062 C 49.164062 89.675781 49.164062 89.675781 48.617188 90.058594 C 48.4375 90.628906 48.417969 91.136719 48.429688 91.730469 C 48.429688 91.847656 48.429688 91.960938 48.433594 92.082031 C 48.511719 95.078125 50.511719 97.355469 52.5625 99.347656 C 56.449219 103.023438 61.929688 105.636719 67.304688 105.808594 C 67.394531 105.808594 67.484375 105.8125 67.574219 105.816406 C 72.191406 105.945312 76.671875 104.84375 80.742188 102.648438 C 80.980469 102.519531 81.226562 102.394531 81.46875 102.269531 C 83.734375 101.089844 85.886719 99.578125 87.757812 97.835938 C 88.054688 97.566406 88.355469 97.300781 88.660156 97.035156 C 90.285156 95.609375 91.777344 94.0625 93.0625 92.320312 C 93.269531 92.046875 93.484375 91.773438 93.699219 91.503906 C 98.125 85.894531 101.496094 78.820312 102.667969 71.730469 C 102.6875 71.59375 102.710938 71.460938 102.734375 71.320312 C 103.648438 65.628906 103.058594 59.929688 99.730469 55.109375 C 99.160156 54.335938 98.492188 53.65625 97.820312 52.976562 C 97.722656 52.871094 97.625 52.765625 97.527344 52.65625 C 96.53125 51.585938 95.183594 50.523438 93.824219 49.96875 C 93.175781 49.988281 92.578125 50.503906 92.042969 50.84375 C 91.394531 51.234375 90.878906 51.363281 90.117188 51.402344 C 89.527344 51.234375 89.222656 51.101562 88.84375 50.613281 C 88.632812 49.917969 88.65625 49.257812 88.691406 48.535156 C 88.300781 48.339844 87.980469 48.375 87.542969 48.375 C 87.386719 48.375 87.234375 48.375 87.074219 48.375 C 82.433594 48.542969 78.132812 50.957031 74.859375 54.121094 Z M 74.859375 54.121094 "/>
<path style=" stroke:none;fill-rule:nonzero;fill:rgb(90.980393%,3.137255%,3.529412%);fill-opacity:1;" d="M 100.386719 78.316406 C 100.730469 79.460938 100.003906 80.640625 99.53125 81.65625 C 99.425781 81.882812 99.425781 81.882812 99.316406 82.113281 C 97.660156 85.664062 95.710938 89.007812 93.253906 92.0625 C 93.136719 92.210938 93.019531 92.363281 92.898438 92.511719 C 91.847656 93.824219 90.722656 95.046875 89.539062 96.242188 C 89.445312 96.335938 89.351562 96.433594 89.253906 96.53125 C 83.886719 101.902344 76.316406 105.765625 68.648438 105.835938 C 62.644531 105.816406 57.265625 103.402344 52.757812 99.507812 C 53.042969 99.363281 53.042969 99.363281 53.441406 99.488281 C 53.609375 99.550781 53.777344 99.613281 53.953125 99.679688 C 61.902344 102.46875 70.53125 100.246094 77.867188 96.707031 C 80.058594 95.617188 82.128906 94.324219 84.128906 92.921875 C 84.21875 92.859375 84.308594 92.796875 84.402344 92.730469 C 85.625 91.875 86.808594 90.980469 87.980469 90.058594 C 88.101562 89.960938 88.222656 89.867188 88.347656 89.769531 C 89.710938 88.683594 91.042969 87.554688 92.328125 86.375 C 92.539062 86.179688 92.753906 85.988281 92.96875 85.800781 C 94.171875 84.742188 95.289062 83.597656 96.417969 82.464844 C 96.777344 82.101562 97.132812 81.742188 97.492188 81.382812 C 97.722656 81.152344 97.953125 80.921875 98.1875 80.6875 C 98.292969 80.582031 98.398438 80.476562 98.507812 80.367188 C 99.160156 79.707031 99.785156 79.027344 100.386719 78.316406 Z M 100.386719 78.316406 "/>
<path style=" stroke:none;fill-rule:nonzero;fill:rgb(98.431373%,85.490197%,85.882354%);fill-opacity:1;" d="M 70.609375 117.222656 C 71.300781 117.226562 71.992188 117.226562 72.679688 117.222656 C 75.554688 117.21875 78.421875 117.257812 81.292969 117.390625 C 81.476562 117.398438 81.476562 117.398438 81.664062 117.40625 C 93.980469 117.988281 93.980469 117.988281 96.105469 120.125 C 96.089844 120.375 96.089844 120.375 95.964844 120.699219 C 95.394531 121.132812 94.875 121.378906 94.183594 121.566406 C 94.027344 121.609375 93.875 121.652344 93.714844 121.695312 C 90.335938 122.546875 86.875 122.855469 83.40625 123.074219 C 83.257812 123.085938 83.109375 123.09375 82.957031 123.101562 C 79.460938 123.316406 75.96875 123.339844 72.46875 123.332031 C 71.601562 123.328125 70.734375 123.332031 69.867188 123.332031 C 50.167969 123.378906 50.167969 123.378906 47.089844 120.773438 C 46.914062 120.554688 46.914062 120.554688 46.894531 120.207031 C 47.183594 119.542969 47.785156 119.371094 48.417969 119.125 C 52.535156 117.71875 57.277344 117.589844 61.589844 117.390625 C 61.71875 117.382812 61.847656 117.378906 61.980469 117.371094 C 64.855469 117.242188 67.730469 117.21875 70.609375 117.222656 Z M 70.609375 117.222656 "/>
<path style=" stroke:none;fill-rule:nonzero;fill:rgb(99.215686%,80.392158%,0%);fill-opacity:1;" d="M 107.515625 47.535156 C 109.960938 49.855469 110.796875 54.648438 111.222656 57.84375 C 111.242188 57.984375 111.257812 58.125 111.277344 58.269531 C 112.03125 65.054688 109.804688 71.988281 105.597656 77.289062 C 105.15625 77.835938 104.699219 78.363281 104.234375 78.890625 C 104.125 79.019531 104.015625 79.144531 103.902344 79.277344 C 102.921875 80.402344 101.824219 81.382812 100.671875 82.328125 C 100.578125 82.28125 100.480469 82.230469 100.386719 82.183594 C 100.425781 82.089844 100.460938 81.992188 100.503906 81.894531 C 103.082031 75.550781 105.628906 67.523438 103.328125 60.679688 C 103.15625 60.164062 102.996094 59.679688 102.953125 59.132812 C 103.234375 58.605469 103.582031 58.285156 104.09375 57.988281 C 104.1875 57.988281 104.28125 57.988281 104.378906 57.988281 C 104.414062 57.902344 104.453125 57.820312 104.492188 57.734375 C 104.667969 57.402344 104.867188 57.152344 105.109375 56.867188 C 107.355469 53.984375 107.636719 51.105469 107.515625 47.535156 Z M 107.515625 47.535156 "/>
<path style=" stroke:none;fill-rule:nonzero;fill:rgb(99.215686%,80.392158%,0%);fill-opacity:1;" d="M 103.238281 84.1875 C 103.308594 84.328125 103.308594 84.328125 103.378906 84.472656 C 103.246094 84.867188 103.101562 85.238281 102.941406 85.621094 C 102.898438 85.730469 102.851562 85.839844 102.804688 85.953125 C 102.496094 86.675781 102.15625 87.347656 101.734375 88.007812 C 101.511719 88.363281 101.324219 88.726562 101.132812 89.101562 C 98.058594 94.796875 92.03125 99.132812 86.015625 101.160156 C 85.699219 101.226562 85.699219 101.226562 85.269531 101.082031 C 85.332031 101.035156 85.394531 100.988281 85.460938 100.9375 C 88.132812 98.921875 90.738281 96.8125 92.816406 94.15625 C 93.015625 93.90625 93.222656 93.65625 93.433594 93.414062 C 95.214844 91.355469 96.660156 89.007812 98.035156 86.664062 C 98.09375 86.558594 98.15625 86.457031 98.21875 86.347656 C 98.390625 86.054688 98.390625 86.054688 98.53125 85.75 C 98.664062 85.472656 98.664062 85.472656 98.960938 85.046875 C 99.382812 84.9375 99.382812 84.9375 99.867188 84.949219 C 101.03125 84.925781 102.183594 84.71875 103.238281 84.1875 Z M 103.238281 84.1875 "/>
<path style=" stroke:none;fill-rule:nonzero;fill:rgb(28.627452%,74.509805%,6.27451%);fill-opacity:1;" d="M 96.25 38.371094 C 96.894531 38.660156 96.894531 38.660156 97.105469 39.085938 C 97.339844 41.652344 96.082031 44.019531 94.671875 46.085938 C 94.492188 46.492188 94.527344 46.691406 94.679688 47.105469 C 94.945312 47.355469 94.945312 47.355469 95.277344 47.542969 C 95.394531 47.617188 95.511719 47.6875 95.632812 47.765625 C 95.742188 47.832031 95.851562 47.894531 95.964844 47.964844 C 96.742188 48.433594 97.253906 48.984375 97.820312 49.683594 C 97.90625 49.789062 97.992188 49.894531 98.082031 50.003906 C 99.507812 51.769531 99.507812 51.769531 99.386719 52.976562 C 98.878906 52.550781 98.394531 52.128906 97.941406 51.640625 C 97.097656 50.777344 96.007812 50.054688 94.929688 49.503906 C 94.539062 49.253906 94.539062 49.253906 94.40625 48.859375 C 94.402344 48.753906 94.398438 48.644531 94.394531 48.535156 C 93.734375 48.464844 93.457031 48.652344 92.945312 49.066406 C 91.167969 50.414062 91.167969 50.414062 90.179688 50.378906 C 89.832031 50.253906 89.832031 50.253906 89.691406 50.113281 C 89.628906 49.339844 89.78125 48.929688 90.117188 48.25 C 90.066406 47.875 90.066406 47.875 89.976562 47.535156 C 89.34375 47.527344 88.710938 47.519531 88.078125 47.515625 C 87.898438 47.515625 87.722656 47.511719 87.539062 47.507812 C 86.460938 47.503906 85.46875 47.589844 84.414062 47.820312 C 84.128906 47.871094 83.84375 47.917969 83.558594 47.964844 C 84.480469 46.691406 85.75 46.210938 87.253906 45.886719 C 88.789062 45.660156 90.59375 45.636719 92.113281 45.960938 C 93.140625 44.425781 94.148438 42.828125 94.101562 40.925781 C 94.101562 40.816406 94.097656 40.710938 94.09375 40.597656 C 94.089844 40.382812 94.078125 40.167969 94.0625 39.949219 C 94.042969 39.382812 94.085938 39.121094 94.425781 38.660156 C 95.03125 38.21875 95.527344 38.257812 96.25 38.371094 Z M 96.25 38.371094 "/>
<path style=" stroke:none;fill-rule:nonzero;fill:rgb(99.607843%,99.607843%,99.215686%);fill-opacity:1;" d="M 81.851562 53.519531 C 82.238281 53.765625 82.449219 54.023438 82.703125 54.40625 C 82.792969 55.066406 82.808594 55.503906 82.402344 56.042969 C 81.886719 56.582031 81.261719 56.957031 80.632812 57.34375 C 79.894531 57.800781 79.246094 58.316406 78.585938 58.882812 C 78.066406 59.3125 77.683594 59.324219 77.027344 59.316406 C 76.714844 59.273438 76.714844 59.273438 76.359375 59.007812 C 75.984375 58.472656 75.921875 58.054688 76 57.414062 C 76.382812 55.863281 77.527344 54.628906 78.859375 53.796875 C 79.78125 53.347656 80.867188 53.128906 81.851562 53.519531 Z M 81.851562 53.519531 "/>
<path style=" stroke:none;fill-rule:nonzero;fill:rgb(99.215686%,89.019608%,10.196079%);fill-opacity:1;" d="M 107.800781 59.847656 C 107.847656 59.847656 107.894531 59.847656 107.941406 59.847656 C 108.066406 64.445312 106.472656 68.921875 103.949219 72.734375 C 103.808594 72.878906 103.667969 73.023438 103.523438 73.164062 C 103.578125 72.46875 103.640625 71.777344 103.734375 71.085938 C 103.757812 70.90625 103.78125 70.722656 103.808594 70.53125 C 103.820312 70.433594 103.835938 70.335938 103.847656 70.234375 C 103.933594 69.527344 103.953125 68.839844 103.945312 68.128906 C 103.921875 65.121094 103.921875 65.121094 104.40625 64.449219 C 104.804688 64.070312 104.804688 64.070312 105.234375 63.75 C 106.460938 62.824219 107.175781 61.214844 107.800781 59.847656 Z M 107.800781 59.847656 "/>
<path style=" stroke:none;fill-rule:nonzero;fill:rgb(98.431373%,63.137257%,21.568628%);fill-opacity:1;" d="M 93.539062 22.335938 C 95.875 23.1875 97.449219 25.539062 98.574219 27.652344 C 99.484375 29.621094 99.738281 31.636719 99.671875 33.789062 C 99.578125 33.789062 99.484375 33.789062 99.386719 33.789062 C 99.355469 33.695312 99.320312 33.605469 99.289062 33.507812 C 97.925781 29.710938 96.183594 26.148438 93.746094 22.925781 C 93.539062 22.621094 93.539062 22.621094 93.539062 22.335938 Z M 93.539062 22.335938 "/>
<path style=" stroke:none;fill-rule:nonzero;fill:rgb(98.431373%,86.666667%,11.372549%);fill-opacity:1;" d="M 100.101562 55.980469 C 100.578125 56.378906 100.8125 56.914062 101.082031 57.457031 C 101.128906 57.558594 101.179688 57.660156 101.230469 57.765625 C 104.433594 64.398438 103.109375 71.8125 100.816406 78.496094 C 100.71875 78.769531 100.625 79.046875 100.527344 79.320312 C 100.34375 78.769531 100.484375 78.394531 100.632812 77.851562 C 100.660156 77.75 100.6875 77.648438 100.714844 77.539062 C 100.773438 77.320312 100.832031 77.101562 100.890625 76.878906 C 101.042969 76.308594 101.191406 75.738281 101.339844 75.164062 C 101.371094 75.054688 101.398438 74.941406 101.429688 74.824219 C 101.652344 73.960938 101.851562 73.09375 102.023438 72.214844 C 102.046875 72.109375 102.066406 72.003906 102.089844 71.894531 C 103.027344 66.910156 102.234375 61.542969 100.289062 56.898438 C 100.101562 56.410156 100.101562 56.410156 100.101562 55.980469 Z M 100.101562 55.980469 "/>
<path style=" stroke:none;fill-rule:nonzero;fill:rgb(98.431373%,63.529414%,21.568628%);fill-opacity:1;" d="M 40.070312 69.582031 C 39.882812 70.089844 39.652344 70.546875 39.390625 71.015625 C 38.015625 73.472656 37.328125 76.277344 37.332031 79.097656 C 37.332031 79.207031 37.332031 79.316406 37.332031 79.429688 C 37.34375 80.597656 37.480469 81.742188 37.644531 82.898438 C 36.628906 82.011719 36.476562 80.304688 36.359375 79.035156 C 36.136719 75.410156 37.226562 72.511719 39.570312 69.785156 C 39.785156 69.582031 39.785156 69.582031 40.070312 69.582031 Z M 40.070312 69.582031 "/>
<path style=" stroke:none;fill-rule:nonzero;fill:rgb(99.215686%,88.627452%,10.196079%);fill-opacity:1;" d="M 99.671875 86.910156 C 98.003906 90.1875 95.507812 92.800781 92.542969 94.925781 C 92.449219 94.878906 92.355469 94.832031 92.257812 94.78125 C 92.332031 94.707031 92.402344 94.628906 92.476562 94.550781 C 93.796875 93.121094 94.9375 91.550781 96.019531 89.933594 C 96.078125 89.84375 96.136719 89.753906 96.199219 89.664062 C 96.53125 89.160156 96.808594 88.648438 97.078125 88.105469 C 97.519531 87.339844 98.175781 87.132812 98.984375 86.855469 C 99.386719 86.765625 99.386719 86.765625 99.671875 86.910156 Z M 99.671875 86.910156 "/>
<path style=" stroke:none;fill-rule:nonzero;fill:rgb(98.431373%,62.7451%,20.784314%);fill-opacity:1;" d="M 62.027344 18.328125 C 62.3125 18.46875 62.597656 18.613281 62.882812 18.757812 C 62.882812 18.851562 62.882812 18.945312 62.882812 19.042969 C 62.964844 19.074219 63.042969 19.101562 63.125 19.136719 C 63.5625 19.394531 63.832031 19.742188 64.132812 20.144531 C 64.191406 20.226562 64.253906 20.308594 64.320312 20.390625 C 65.949219 22.617188 66.757812 24.984375 66.761719 27.757812 C 66.761719 27.894531 66.761719 28.03125 66.765625 28.171875 C 66.765625 29 66.683594 29.703125 66.449219 30.496094 C 66.042969 30.089844 66.128906 29.8125 66.117188 29.242188 C 65.960938 25.4375 64.464844 21.859375 62.261719 18.804688 C 62.027344 18.46875 62.027344 18.46875 62.027344 18.328125 Z M 62.027344 18.328125 "/>
<path style=" stroke:none;fill-rule:nonzero;fill:rgb(98.431373%,87.058824%,10.980392%);fill-opacity:1;" d="M 83.273438 49.394531 C 83.105469 49.472656 82.9375 49.546875 82.761719 49.628906 C 81.191406 50.347656 79.714844 51.144531 78.285156 52.117188 C 78.136719 52.214844 77.988281 52.316406 77.835938 52.417969 C 74.621094 54.710938 72.542969 57.945312 70.65625 61.355469 C 70.421875 61.738281 70.15625 62.078125 69.871094 62.425781 C 70.476562 58.453125 73.953125 54.457031 77.035156 52.144531 C 81.613281 48.839844 81.613281 48.839844 83.273438 49.394531 Z M 83.273438 49.394531 "/>
<path style=" stroke:none;fill-rule:nonzero;fill:rgb(24.705882%,57.647061%,9.411765%);fill-opacity:1;" d="M 95.03125 48.296875 C 96.457031 49.015625 97.675781 49.835938 98.675781 51.113281 C 98.828125 51.238281 98.828125 51.238281 98.984375 51.363281 C 99.375 51.851562 99.359375 52.367188 99.386719 52.976562 C 98.878906 52.550781 98.394531 52.128906 97.941406 51.640625 C 97.097656 50.777344 96.007812 50.054688 94.929688 49.503906 C 94.539062 49.253906 94.539062 49.253906 94.40625 48.859375 C 94.402344 48.753906 94.398438 48.644531 94.394531 48.535156 C 93.734375 48.464844 93.457031 48.652344 92.945312 49.066406 C 91.167969 50.414062 91.167969 50.414062 90.179688 50.378906 C 89.832031 50.253906 89.832031 50.253906 89.691406 50.113281 C 89.683594 49.875 89.683594 49.632812 89.691406 49.394531 C 89.832031 49.46875 89.832031 49.46875 89.976562 49.539062 C 90.976562 49.699219 91.648438 49.054688 92.425781 48.511719 C 93.410156 47.863281 93.921875 47.871094 95.03125 48.296875 Z M 95.03125 48.296875 "/>
<path style=" stroke:none;fill-rule:nonzero;fill:rgb(98.431373%,62.7451%,21.568628%);fill-opacity:1;" d="M 114.074219 48.679688 C 115.265625 49.007812 115.953125 50.140625 116.558594 51.140625 C 117.726562 53.246094 117.921875 55.542969 117.335938 57.867188 C 117.195312 58.328125 117.03125 58.71875 116.785156 59.132812 C 116.734375 59.132812 116.6875 59.132812 116.640625 59.132812 C 116.652344 59.046875 116.660156 58.960938 116.671875 58.871094 C 117.085938 55 116.246094 51.898438 114.074219 48.679688 Z M 114.074219 48.679688 "/>
<path style=" stroke:none;fill-rule:nonzero;fill:rgb(97.254902%,57.254905%,10.980392%);fill-opacity:1;" d="M 99.53125 44.386719 C 99.625 44.386719 99.71875 44.386719 99.816406 44.386719 C 99.945312 44.945312 99.976562 45.464844 99.976562 46.039062 C 99.976562 46.308594 99.976562 46.308594 99.976562 46.582031 C 99.976562 46.769531 99.976562 46.957031 99.976562 47.148438 C 99.976562 47.425781 99.976562 47.425781 99.976562 47.710938 C 99.976562 48.621094 99.957031 49.5 99.816406 50.398438 C 99.335938 49.929688 98.871094 49.449219 98.414062 48.957031 C 98.304688 48.835938 98.191406 48.71875 98.074219 48.59375 C 97.820312 48.25 97.820312 48.25 97.820312 47.679688 C 98.015625 47.386719 98.015625 47.386719 98.28125 47.078125 C 98.929688 46.28125 99.398438 45.417969 99.53125 44.386719 Z M 99.53125 44.386719 "/>
<path style=" stroke:none;fill-rule:nonzero;fill:rgb(98.039216%,63.529414%,21.568628%);fill-opacity:1;" d="M 42.636719 50.113281 C 42.816406 50.664062 42.675781 50.855469 42.492188 51.402344 C 42.203125 53.628906 42.417969 55.75 43.777344 57.621094 C 44.21875 58.167969 44.679688 58.671875 45.246094 59.085938 C 45.324219 59.148438 45.40625 59.210938 45.488281 59.273438 C 45.488281 59.371094 45.488281 59.464844 45.488281 59.5625 C 43.976562 59.210938 42.96875 57.960938 42.171875 56.703125 C 41.355469 55.230469 41.363281 53.488281 41.722656 51.875 C 41.925781 51.207031 42.21875 50.671875 42.636719 50.113281 Z M 42.636719 50.113281 "/>
<path style=" stroke:none;fill-rule:nonzero;fill:rgb(98.039216%,63.137257%,22.745098%);fill-opacity:1;" d="M 105.519531 90.773438 C 105.613281 90.773438 105.707031 90.773438 105.804688 90.773438 C 105.464844 93.179688 103.539062 95.738281 101.8125 97.359375 C 101.71875 97.359375 101.621094 97.359375 101.527344 97.359375 C 101.480469 97.5 101.433594 97.644531 101.382812 97.789062 C 101.050781 98.082031 101.050781 98.082031 100.632812 98.390625 C 100.429688 98.542969 100.429688 98.542969 100.222656 98.699219 C 99.796875 98.945312 99.582031 98.988281 99.101562 98.933594 C 99.246094 98.648438 99.246094 98.648438 99.566406 98.460938 C 101.949219 96.988281 104.300781 93.21875 105.519531 90.773438 Z M 105.519531 90.773438 "/>
<path style=" stroke:none;fill-rule:nonzero;fill:rgb(99.607843%,98.823529%,98.823529%);fill-opacity:1;" d="M 75.859375 59.992188 C 76.285156 60.277344 76.515625 60.476562 76.640625 60.984375 C 76.683594 61.582031 76.617188 61.796875 76.226562 62.273438 C 76.042969 62.417969 76.042969 62.417969 75.859375 62.566406 C 75.8125 62.617188 75.765625 62.664062 75.714844 62.710938 C 75.253906 62.765625 75.253906 62.765625 74.71875 62.710938 C 74.203125 62.285156 73.894531 61.976562 73.820312 61.304688 C 73.875 60.746094 74.046875 60.535156 74.433594 60.132812 C 74.894531 59.902344 75.359375 59.910156 75.859375 59.992188 Z M 75.859375 59.992188 "/>
<path style=" stroke:none;fill-rule:nonzero;fill:rgb(79.607844%,91.37255%,17.647059%);fill-opacity:1;" d="M 94.964844 38.371094 C 95.078125 41.035156 94.722656 43.5625 93.035156 45.730469 C 92.921875 45.851562 92.804688 45.976562 92.683594 46.101562 C 92.542969 46.101562 92.402344 46.101562 92.257812 46.101562 C 92.445312 45.589844 92.683594 45.125 92.953125 44.648438 C 93.824219 43.089844 94.199219 41.722656 94.070312 39.929688 C 94.042969 39.339844 94.082031 39.121094 94.460938 38.65625 C 94.824219 38.371094 94.824219 38.371094 94.964844 38.371094 Z M 94.964844 38.371094 "/>
<path style=" stroke:none;fill-rule:nonzero;fill:rgb(96.470588%,55.686277%,10.196079%);fill-opacity:1;" d="M 97.390625 43.097656 C 97.4375 43.097656 97.484375 43.097656 97.535156 43.097656 C 97.5625 44.511719 97.546875 45.855469 97.25 47.25 C 96.527344 47.25 96.28125 47.046875 95.679688 46.675781 C 95.949219 45.945312 96.320312 45.285156 96.6875 44.601562 C 96.953125 44.109375 97.195312 43.625 97.390625 43.097656 Z M 97.390625 43.097656 "/>
<path style=" stroke:none;fill-rule:nonzero;fill:rgb(98.039216%,65.490198%,23.921569%);fill-opacity:1;" d="M 110.222656 81.46875 C 110.367188 81.898438 110.367188 81.898438 110.207031 82.300781 C 109.625 83.292969 108.941406 84.039062 107.816406 84.367188 C 107.671875 84.402344 107.523438 84.4375 107.371094 84.472656 C 107.371094 84.378906 107.371094 84.285156 107.371094 84.1875 C 107.628906 83.996094 107.628906 83.996094 107.96875 83.785156 C 108.929688 83.160156 109.558594 82.390625 110.222656 81.46875 Z M 110.222656 81.46875 "/>
<path style=" stroke:none;fill-rule:nonzero;fill:rgb(98.039216%,68.235296%,21.960784%);fill-opacity:1;" d="M 105.519531 90.773438 C 105.613281 90.773438 105.707031 90.773438 105.804688 90.773438 C 105.707031 91.402344 105.492188 91.917969 105.234375 92.492188 C 105.046875 92.445312 104.855469 92.398438 104.664062 92.347656 C 104.945312 91.828125 105.226562 91.308594 105.519531 90.773438 Z M 105.519531 90.773438 "/>
<path style=" stroke:none;fill-rule:nonzero;fill:rgb(98.431373%,65.882355%,17.647059%);fill-opacity:1;" d="M 102.097656 95.785156 C 102.398438 95.839844 102.398438 95.839844 102.667969 95.929688 C 102.621094 96.269531 102.621094 96.269531 102.523438 96.644531 C 102.382812 96.738281 102.242188 96.832031 102.097656 96.929688 C 102.003906 96.648438 101.90625 96.363281 101.8125 96.070312 C 101.90625 95.976562 102 95.882812 102.097656 95.785156 Z M 102.097656 95.785156 "/>
<path style=" stroke:none;fill-rule:nonzero;fill:rgb(98.431373%,57.254905%,13.333334%);fill-opacity:1;" d="M 37.074219 78.316406 C 37.121094 78.316406 37.167969 78.316406 37.214844 78.316406 C 37.214844 79.261719 37.214844 80.207031 37.214844 81.179688 C 37.074219 81.226562 36.933594 81.277344 36.789062 81.324219 C 36.742188 81.136719 36.695312 80.945312 36.644531 80.75 C 36.789062 80.75 36.929688 80.75 37.074219 80.75 C 37.074219 79.949219 37.074219 79.144531 37.074219 78.316406 Z M 37.074219 78.316406 "/>
<path style=" stroke:none;fill-rule:nonzero;fill:rgb(97.647059%,84.705883%,12.54902%);fill-opacity:1;" d="M 100.101562 55.980469 C 100.433594 56.289062 100.644531 56.585938 100.847656 56.992188 C 100.898438 57.09375 100.949219 57.191406 101.003906 57.292969 C 101.035156 57.378906 101.066406 57.46875 101.097656 57.558594 C 101.050781 57.652344 101.003906 57.746094 100.957031 57.84375 C 100.863281 57.84375 100.765625 57.84375 100.671875 57.84375 C 100.574219 57.613281 100.480469 57.382812 100.386719 57.15625 C 100.332031 57.027344 100.28125 56.898438 100.226562 56.765625 C 100.101562 56.410156 100.101562 56.410156 100.101562 55.980469 Z M 100.101562 55.980469 "/>
<path style=" stroke:none;fill-rule:nonzero;fill:rgb(98.431373%,60.784316%,17.254902%);fill-opacity:1;" d="M 41.921875 52.257812 C 42.015625 52.257812 42.109375 52.257812 42.207031 52.257812 C 42.207031 52.777344 42.207031 53.300781 42.207031 53.835938 C 42.160156 53.835938 42.113281 53.835938 42.066406 53.835938 C 42.019531 53.503906 41.972656 53.171875 41.921875 52.832031 C 41.828125 52.972656 41.734375 53.117188 41.636719 53.261719 C 41.761719 52.421875 41.761719 52.421875 41.921875 52.257812 Z M 41.921875 52.257812 "/>
<path style=" stroke:none;fill-rule:nonzero;fill:rgb(98.039216%,66.666669%,18.039216%);fill-opacity:1;" d="M 100.8125 97.21875 C 101 97.265625 101.1875 97.3125 101.382812 97.359375 C 101.382812 97.5 101.382812 97.644531 101.382812 97.789062 C 101.101562 97.835938 100.820312 97.882812 100.527344 97.933594 C 100.621094 97.695312 100.714844 97.460938 100.8125 97.21875 Z M 100.8125 97.21875 "/>
</g>
</svg>
