<?xml version="1.0" encoding="UTF-8"?>
<svg xmlns="http://www.w3.org/2000/svg" xmlns:xlink="http://www.w3.org/1999/xlink" width="90px" height="128px" viewBox="0 0 90 128" version="1.1">
<g id="surface1">
<path style=" stroke:none;fill-rule:nonzero;fill:rgb(77.254903%,86.274511%,91.764706%);fill-opacity:1;" d="M 63.480469 10.035156 C 61.78125 7.730469 29.371094 7.730469 26.996094 10.035156 C 24.621094 12.339844 25.289062 44.214844 26.996094 46.519531 C 27.679688 47.445312 33.351562 48.089844 40.03125 48.347656 C 42.90625 48.457031 45.96875 48.496094 48.902344 48.453125 C 56.152344 48.347656 62.609375 47.75 63.480469 46.519531 C 65.515625 43.640625 65.175781 12.339844 63.480469 10.035156 Z M 63.480469 10.035156 "/>
<path style=" stroke:none;fill-rule:nonzero;fill:rgb(77.254903%,86.274511%,91.764706%);fill-opacity:1;" d="M 26.621094 67.601562 C 26.441406 68.195312 26.171875 68.96875 25.847656 69.863281 C 25.359375 71.1875 24.75 72.765625 24.128906 74.351562 C 22.890625 77.511719 21.605469 80.703125 21.179688 81.972656 C 21.738281 82.496094 22.226562 83.109375 22.703125 83.710938 C 22.746094 83.765625 22.742188 83.851562 22.695312 83.898438 C 22.644531 83.949219 22.574219 83.941406 22.53125 83.890625 C 21.910156 83.105469 21.285156 82.320312 20.527344 81.746094 C 19.894531 81.261719 19.144531 80.933594 18.398438 80.9375 C 18.257812 80.9375 18.117188 80.949219 17.976562 80.972656 C 17.910156 80.984375 17.851562 80.933594 17.84375 80.863281 C 17.832031 80.789062 17.875 80.722656 17.9375 80.710938 C 18.09375 80.683594 18.246094 80.671875 18.398438 80.671875 C 19.207031 80.671875 19.996094 81.023438 20.65625 81.527344 C 20.773438 81.613281 20.882812 81.703125 20.988281 81.800781 C 21.328125 80.804688 22.109375 78.824219 22.992188 76.59375 C 23.898438 74.296875 24.90625 71.742188 25.628906 69.761719 C 26.039062 68.648438 26.355469 67.714844 26.515625 67.117188 C 25.949219 64.546875 25.25 61.363281 25.121094 59.359375 C 19.992188 63.261719 15.15625 79.597656 15.546875 81.683594 C 15.652344 82.25 16.144531 82.847656 16.832031 83.402344 C 17.101562 83.078125 17.316406 82.828125 17.441406 82.699219 C 18.179688 81.9375 20.5625 83.230469 20.769531 83.953125 C 20.824219 84.15625 20.9375 84.730469 21.046875 85.457031 C 21.941406 85.664062 22.6875 85.660156 23.023438 85.335938 C 23.925781 84.46875 26.238281 74.722656 27.054688 69.671875 C 26.941406 69.09375 26.789062 68.382812 26.621094 67.601562 Z M 26.621094 67.601562 "/>
<path style=" stroke:none;fill-rule:nonzero;fill:rgb(15.294118%,13.333334%,30.980393%);fill-opacity:1;" d="M 54.574219 115.914062 C 54.574219 115.90625 54.574219 115.902344 54.574219 115.894531 C 54.570312 115.734375 54.566406 115.574219 54.566406 115.414062 C 54.566406 114.390625 54.703125 113.355469 54.976562 112.519531 C 54.984375 112.519531 54.996094 112.519531 55.003906 112.519531 C 55.3125 112.519531 55.589844 112.335938 55.796875 112.054688 C 56.007812 111.769531 56.148438 111.382812 56.183594 110.945312 C 56.191406 110.871094 56.195312 110.800781 56.195312 110.730469 C 56.195312 110.320312 56.097656 109.941406 55.925781 109.65625 C 55.859375 109.546875 55.78125 109.453125 55.695312 109.375 C 55.699219 109.363281 55.707031 109.351562 55.710938 109.335938 C 55.816406 108.796875 55.863281 108.1875 55.863281 107.507812 C 55.863281 103.878906 54.535156 98.359375 54.167969 92.398438 C 54.164062 92.324219 54.109375 92.269531 54.042969 92.273438 C 53.980469 92.277344 53.929688 92.34375 53.9375 92.414062 C 54.308594 98.40625 55.632812 103.941406 55.628906 107.507812 C 55.628906 108.152344 55.585938 108.726562 55.488281 109.230469 C 55.402344 109.183594 55.308594 109.144531 55.207031 109.136719 C 55.179688 109.132812 55.152344 109.132812 55.125 109.132812 C 54.820312 109.132812 54.539062 109.3125 54.332031 109.597656 C 54.125 109.878906 53.980469 110.269531 53.945312 110.703125 C 53.9375 110.777344 53.933594 110.851562 53.933594 110.921875 C 53.9375 111.332031 54.035156 111.707031 54.203125 111.996094 C 54.339844 112.222656 54.527344 112.390625 54.742188 112.46875 C 54.46875 113.339844 54.332031 114.382812 54.332031 115.414062 C 54.332031 115.539062 54.335938 115.667969 54.339844 115.792969 C 53.625 115.414062 53.128906 115.050781 52.980469 114.757812 C 52.898438 114.597656 52.84375 114.414062 52.808594 114.21875 C 52.808594 114.21875 52.804688 114.214844 52.804688 114.214844 C 52.75 115.035156 52.378906 116.378906 52.867188 117.210938 C 53.664062 118.554688 61.742188 120.761719 64.421875 119.003906 C 64.933594 118.667969 65.464844 117.910156 65.519531 117.519531 C 64.984375 119.496094 57.859375 117.578125 54.574219 115.914062 Z M 54.398438 111.847656 C 54.257812 111.609375 54.167969 111.28125 54.167969 110.921875 C 54.167969 110.859375 54.171875 110.792969 54.175781 110.730469 C 54.210938 110.34375 54.335938 110.003906 54.511719 109.765625 C 54.6875 109.527344 54.90625 109.394531 55.125 109.394531 L 55.183594 109.398438 C 55.398438 109.421875 55.589844 109.566406 55.730469 109.804688 C 55.875 110.039062 55.960938 110.367188 55.960938 110.730469 C 55.960938 110.792969 55.957031 110.855469 55.953125 110.921875 C 55.921875 111.308594 55.792969 111.648438 55.617188 111.882812 C 55.441406 112.121094 55.226562 112.253906 55.003906 112.253906 L 54.957031 112.253906 C 54.949219 112.25 54.949219 112.246094 54.941406 112.242188 C 54.921875 112.234375 54.902344 112.234375 54.886719 112.234375 C 54.695312 112.195312 54.527344 112.0625 54.398438 111.847656 Z M 54.398438 111.847656 "/>
<path style=" stroke:none;fill-rule:nonzero;fill:rgb(15.294118%,13.333334%,30.980393%);fill-opacity:1;" d="M 53.644531 91.707031 C 54.777344 92.714844 56.324219 92.039062 57.144531 91.632812 C 56.992188 89.828125 56.824219 88.023438 56.652344 86.21875 C 56.601562 85.695312 56.546875 85.167969 56.496094 84.644531 C 55.46875 84.972656 54.316406 85.242188 53.074219 85.457031 C 53.277344 87.539062 53.46875 89.621094 53.644531 91.707031 Z M 53.644531 91.707031 "/>
<path style=" stroke:none;fill-rule:nonzero;fill:rgb(77.254903%,86.274511%,91.764706%);fill-opacity:1;" d="M 55.730469 109.804688 C 55.589844 109.566406 55.398438 109.421875 55.183594 109.398438 L 55.125 109.394531 C 54.90625 109.394531 54.6875 109.527344 54.511719 109.765625 C 54.335938 110.003906 54.210938 110.34375 54.175781 110.730469 C 54.171875 110.792969 54.167969 110.859375 54.167969 110.921875 C 54.167969 111.28125 54.257812 111.609375 54.398438 111.847656 C 54.527344 112.0625 54.695312 112.195312 54.886719 112.234375 C 54.902344 112.234375 54.921875 112.234375 54.941406 112.242188 C 54.949219 112.246094 54.949219 112.25 54.957031 112.253906 L 55.003906 112.253906 C 55.226562 112.253906 55.441406 112.121094 55.617188 111.882812 C 55.792969 111.648438 55.921875 111.308594 55.953125 110.921875 C 55.957031 110.855469 55.960938 110.792969 55.960938 110.730469 C 55.960938 110.367188 55.871094 110.039062 55.730469 109.804688 Z M 55.730469 109.804688 "/>
<path style=" stroke:none;fill-rule:nonzero;fill:rgb(77.254903%,86.274511%,91.764706%);fill-opacity:1;" d="M 60.351562 106.726562 C 58.753906 101.238281 59.179688 90.628906 57.15625 91.628906 C 57.152344 91.632812 57.148438 91.632812 57.144531 91.632812 C 56.324219 92.039062 54.773438 92.714844 53.644531 91.707031 C 53.621094 91.6875 53.59375 91.667969 53.570312 91.648438 C 52.070312 90.195312 54.492188 104.6875 54.050781 107.652344 C 53.761719 109.609375 52.480469 112.5 52.808594 114.21875 C 52.84375 114.414062 52.898438 114.597656 52.980469 114.757812 C 53.128906 115.050781 53.625 115.414062 54.339844 115.792969 C 54.335938 115.667969 54.332031 115.539062 54.332031 115.414062 C 54.332031 114.382812 54.46875 113.339844 54.742188 112.46875 C 54.527344 112.390625 54.339844 112.222656 54.203125 111.996094 C 54.035156 111.707031 53.933594 111.332031 53.933594 110.921875 C 53.933594 110.851562 53.9375 110.777344 53.945312 110.703125 C 53.980469 110.269531 54.125 109.878906 54.332031 109.597656 C 54.539062 109.3125 54.820312 109.132812 55.125 109.128906 C 55.152344 109.128906 55.179688 109.132812 55.207031 109.136719 C 55.308594 109.144531 55.402344 109.183594 55.488281 109.230469 C 55.585938 108.726562 55.628906 108.152344 55.628906 107.507812 C 55.632812 103.941406 54.308594 98.40625 53.933594 92.414062 C 53.929688 92.34375 53.980469 92.277344 54.042969 92.273438 C 54.109375 92.269531 54.164062 92.324219 54.167969 92.394531 C 54.535156 98.359375 55.863281 103.878906 55.863281 107.507812 C 55.863281 108.183594 55.816406 108.796875 55.707031 109.335938 C 55.707031 109.351562 55.699219 109.363281 55.695312 109.375 C 55.78125 109.453125 55.859375 109.546875 55.925781 109.65625 C 56.097656 109.941406 56.195312 110.320312 56.195312 110.726562 C 56.195312 110.800781 56.191406 110.871094 56.183594 110.945312 C 56.183594 110.960938 56.183594 110.976562 56.179688 110.992188 C 56.136719 111.410156 56 111.78125 55.796875 112.054688 C 55.589844 112.335938 55.308594 112.519531 55.003906 112.519531 C 54.996094 112.519531 54.984375 112.519531 54.976562 112.515625 C 54.703125 113.355469 54.566406 114.390625 54.566406 115.414062 C 54.566406 115.574219 54.570312 115.734375 54.574219 115.890625 C 54.574219 115.898438 54.574219 115.90625 54.574219 115.914062 C 57.859375 117.578125 64.984375 119.496094 65.519531 117.519531 C 65.546875 117.425781 65.5625 117.332031 65.574219 117.238281 C 65.875 114.804688 61.828125 111.800781 60.351562 106.726562 Z M 60.351562 106.726562 "/>
<path style=" stroke:none;fill-rule:nonzero;fill:rgb(86.274511%,92.156863%,96.078432%);fill-opacity:1;" d="M 63.933594 115.152344 C 63.699219 114.621094 63.300781 114.210938 62.921875 113.792969 C 62.921875 113.789062 62.917969 113.785156 62.914062 113.78125 C 62.703125 113.996094 62.375 114.070312 62.105469 113.800781 C 61.121094 112.816406 60.386719 111.535156 59.828125 110.199219 C 58.714844 107.539062 58.148438 104.617188 57.746094 101.726562 C 57.546875 100.316406 57.394531 98.902344 57.25 97.488281 C 57.191406 96.886719 57.132812 96.289062 57.074219 95.6875 C 57.046875 95.410156 57.019531 95.132812 56.988281 94.855469 C 56.976562 94.75 56.964844 94.640625 56.953125 94.535156 C 56.945312 94.472656 56.941406 94.410156 56.933594 94.351562 C 56.929688 94.335938 56.929688 94.332031 56.929688 94.320312 C 56.929688 94.3125 56.925781 94.304688 56.925781 94.289062 C 56.882812 93.933594 56.996094 93.582031 57.332031 93.476562 C 57.421875 93.449219 57.523438 93.453125 57.621094 93.480469 C 57.578125 93.230469 57.535156 92.988281 57.488281 92.75 C 57.40625 92.320312 54.851562 92.359375 54.898438 93.855469 C 54.976562 96.25 56.457031 102.023438 56.902344 104.367188 C 57.148438 105.671875 57.394531 106.984375 57.398438 108.320312 C 57.40625 110.347656 56.878906 112.511719 57.6875 114.324219 C 58.144531 115.347656 58.984375 116.101562 59.894531 116.597656 C 60.644531 117.003906 61.453125 117.257812 62.28125 117.34375 C 62.851562 117.40625 63.511719 117.34375 63.875 116.839844 C 64.207031 116.378906 64.171875 115.683594 63.933594 115.152344 Z M 63.933594 115.152344 "/>
<path style=" stroke:none;fill-rule:nonzero;fill:rgb(100%,100%,100%);fill-opacity:1;" d="M 57.332031 93.476562 C 56.996094 93.582031 56.882812 93.933594 56.925781 94.289062 C 56.925781 94.304688 56.929688 94.3125 56.929688 94.320312 C 56.929688 94.332031 56.929688 94.335938 56.933594 94.351562 C 56.941406 94.410156 56.945312 94.472656 56.953125 94.535156 C 56.964844 94.640625 56.976562 94.75 56.988281 94.855469 C 57.019531 95.132812 57.046875 95.410156 57.074219 95.6875 C 57.132812 96.289062 57.191406 96.886719 57.25 97.488281 C 57.394531 98.902344 57.546875 100.316406 57.746094 101.726562 C 58.148438 104.617188 58.714844 107.539062 59.828125 110.199219 C 60.386719 111.535156 61.121094 112.816406 62.105469 113.800781 C 62.375 114.070312 62.703125 113.996094 62.914062 113.78125 C 63.140625 113.550781 63.226562 113.160156 62.933594 112.867188 C 61.203125 111.136719 60.339844 108.523438 59.738281 106.0625 C 59.078125 103.34375 58.726562 100.539062 58.445312 97.738281 C 58.316406 96.472656 58.207031 95.203125 58.050781 93.9375 C 58.023438 93.699219 57.828125 93.535156 57.621094 93.476562 C 57.523438 93.453125 57.421875 93.449219 57.332031 93.476562 Z M 57.332031 93.476562 "/>
<path style=" stroke:none;fill-rule:nonzero;fill:rgb(15.294118%,13.333334%,30.980393%);fill-opacity:1;" d="M 38.480469 115.792969 C 38.484375 115.667969 38.488281 115.539062 38.488281 115.414062 C 38.488281 114.339844 38.339844 113.253906 38.042969 112.363281 C 38.171875 112.273438 38.289062 112.148438 38.378906 111.996094 C 38.550781 111.707031 38.648438 111.332031 38.648438 110.921875 C 38.648438 110.851562 38.644531 110.777344 38.640625 110.703125 C 38.601562 110.269531 38.460938 109.878906 38.25 109.597656 C 38.042969 109.3125 37.765625 109.132812 37.457031 109.128906 C 37.429688 109.128906 37.402344 109.132812 37.375 109.136719 C 37.355469 109.136719 37.335938 109.148438 37.316406 109.152344 C 37.230469 108.667969 37.1875 108.117188 37.1875 107.507812 C 37.1875 103.941406 38.511719 98.40625 38.882812 92.414062 C 38.886719 92.34375 38.839844 92.277344 38.773438 92.273438 C 38.710938 92.269531 38.65625 92.324219 38.648438 92.394531 C 38.28125 98.359375 36.957031 103.878906 36.953125 107.507812 C 36.953125 108.140625 36.996094 108.714844 37.089844 109.230469 C 36.921875 109.320312 36.769531 109.464844 36.660156 109.65625 C 36.488281 109.941406 36.390625 110.320312 36.390625 110.726562 C 36.390625 110.800781 36.390625 110.871094 36.398438 110.945312 C 36.433594 111.382812 36.578125 111.769531 36.785156 112.054688 C 36.992188 112.335938 37.273438 112.519531 37.578125 112.519531 C 37.605469 112.519531 37.632812 112.515625 37.660156 112.515625 C 37.71875 112.507812 37.773438 112.492188 37.828125 112.472656 C 38.109375 113.320312 38.253906 114.375 38.253906 115.414062 C 38.253906 115.574219 38.25 115.734375 38.242188 115.894531 C 38.242188 115.898438 38.246094 115.90625 38.246094 115.914062 C 34.960938 117.578125 27.832031 119.496094 27.296875 117.519531 C 27.320312 117.78125 27.578125 118.359375 28.394531 119 C 30.941406 121.003906 39.15625 118.554688 39.949219 117.207031 C 40.441406 116.378906 40.070312 115.035156 40.015625 114.214844 C 40.015625 114.214844 40.011719 114.21875 40.011719 114.21875 C 39.972656 114.414062 39.921875 114.597656 39.839844 114.757812 C 39.691406 115.050781 39.191406 115.414062 38.480469 115.792969 Z M 37.636719 112.25 L 37.578125 112.253906 C 37.359375 112.253906 37.140625 112.121094 36.964844 111.882812 C 36.789062 111.648438 36.664062 111.308594 36.628906 110.921875 C 36.625 110.855469 36.621094 110.792969 36.621094 110.730469 C 36.621094 110.367188 36.710938 110.039062 36.851562 109.804688 C 36.960938 109.625 37.097656 109.496094 37.25 109.4375 C 37.296875 109.417969 37.347656 109.402344 37.398438 109.398438 L 37.457031 109.394531 C 37.679688 109.394531 37.898438 109.527344 38.074219 109.765625 C 38.246094 110.003906 38.375 110.34375 38.40625 110.730469 C 38.410156 110.792969 38.414062 110.859375 38.414062 110.921875 C 38.414062 111.28125 38.328125 111.609375 38.183594 111.847656 C 38.042969 112.085938 37.851562 112.226562 37.636719 112.25 Z M 37.636719 112.25 "/>
<path style=" stroke:none;fill-rule:nonzero;fill:rgb(15.294118%,13.333334%,30.980393%);fill-opacity:1;" d="M 35.675781 91.636719 C 36.496094 92.039062 38.042969 92.710938 39.171875 91.710938 C 39.328125 89.878906 39.496094 88.046875 39.671875 86.21875 C 39.6875 86.042969 39.707031 85.863281 39.726562 85.6875 C 38.507812 85.53125 37.347656 85.324219 36.277344 85.070312 C 36.0625 87.257812 35.859375 89.445312 35.675781 91.636719 Z M 35.675781 91.636719 "/>
<path style=" stroke:none;fill-rule:nonzero;fill:rgb(77.254903%,86.274511%,91.764706%);fill-opacity:1;" d="M 38.40625 110.730469 C 38.375 110.34375 38.246094 110.003906 38.074219 109.765625 C 37.898438 109.527344 37.679688 109.394531 37.457031 109.394531 L 37.398438 109.398438 C 37.347656 109.402344 37.296875 109.417969 37.25 109.4375 C 37.097656 109.496094 36.960938 109.625 36.851562 109.804688 C 36.710938 110.039062 36.621094 110.367188 36.621094 110.730469 C 36.621094 110.792969 36.625 110.855469 36.628906 110.921875 L 36.632812 110.921875 C 36.632812 110.9375 36.632812 110.957031 36.636719 110.972656 C 36.675781 111.339844 36.796875 111.65625 36.964844 111.882812 C 37.140625 112.121094 37.359375 112.253906 37.578125 112.253906 L 37.636719 112.25 C 37.851562 112.226562 38.042969 112.085938 38.183594 111.847656 C 38.328125 111.609375 38.414062 111.28125 38.414062 110.921875 C 38.414062 110.859375 38.410156 110.792969 38.40625 110.730469 Z M 38.40625 110.730469 "/>
<path style=" stroke:none;fill-rule:nonzero;fill:rgb(77.254903%,86.274511%,91.764706%);fill-opacity:1;" d="M 38.765625 107.652344 C 38.328125 104.6875 40.746094 90.195312 39.246094 91.648438 C 39.222656 91.671875 39.195312 91.6875 39.171875 91.710938 C 38.042969 92.710938 36.496094 92.039062 35.675781 91.636719 C 35.671875 91.632812 35.667969 91.632812 35.664062 91.628906 C 33.636719 90.628906 34.066406 101.238281 32.464844 106.726562 C 30.988281 111.800781 26.941406 114.804688 27.246094 117.238281 C 27.257812 117.332031 27.273438 117.425781 27.296875 117.519531 C 27.832031 119.496094 34.960938 117.578125 38.246094 115.914062 C 38.246094 115.90625 38.242188 115.902344 38.242188 115.894531 C 38.25 115.734375 38.253906 115.574219 38.253906 115.414062 C 38.253906 114.375 38.113281 113.320312 37.828125 112.472656 C 37.773438 112.492188 37.71875 112.507812 37.660156 112.515625 C 37.632812 112.519531 37.605469 112.519531 37.578125 112.519531 C 37.273438 112.519531 36.992188 112.335938 36.785156 112.054688 C 36.578125 111.769531 36.433594 111.382812 36.398438 110.945312 C 36.390625 110.871094 36.390625 110.800781 36.390625 110.730469 C 36.390625 110.320312 36.488281 109.941406 36.660156 109.65625 C 36.769531 109.464844 36.921875 109.320312 37.09375 109.230469 C 36.996094 108.714844 36.953125 108.140625 36.953125 107.507812 C 36.957031 103.878906 38.28125 98.359375 38.648438 92.398438 C 38.65625 92.324219 38.710938 92.269531 38.773438 92.273438 C 38.839844 92.277344 38.886719 92.34375 38.882812 92.414062 C 38.511719 98.40625 37.1875 103.941406 37.1875 107.507812 C 37.1875 108.117188 37.230469 108.667969 37.316406 109.152344 C 37.335938 109.148438 37.355469 109.136719 37.375 109.136719 C 37.402344 109.132812 37.429688 109.132812 37.457031 109.132812 C 37.765625 109.132812 38.042969 109.3125 38.253906 109.597656 C 38.460938 109.878906 38.601562 110.269531 38.640625 110.703125 C 38.644531 110.777344 38.648438 110.851562 38.648438 110.921875 C 38.648438 111.332031 38.550781 111.707031 38.378906 111.996094 C 38.289062 112.148438 38.171875 112.273438 38.042969 112.363281 C 38.34375 113.253906 38.488281 114.339844 38.488281 115.414062 C 38.488281 115.542969 38.484375 115.667969 38.480469 115.792969 C 39.191406 115.414062 39.691406 115.050781 39.839844 114.757812 C 39.921875 114.597656 39.972656 114.414062 40.011719 114.21875 C 40.339844 112.5 39.054688 109.609375 38.765625 107.652344 Z M 38.765625 107.652344 "/>
<path style=" stroke:none;fill-rule:nonzero;fill:rgb(15.294118%,13.333334%,30.980393%);fill-opacity:1;" d="M 37.648438 109.632812 C 37.605469 109.582031 37.53125 109.582031 37.484375 109.636719 C 37.441406 109.6875 37.441406 109.773438 37.488281 109.820312 C 37.71875 110.074219 37.851562 110.445312 37.851562 110.8125 C 37.851562 110.964844 37.828125 111.117188 37.78125 111.257812 C 37.75 111.355469 37.707031 111.453125 37.648438 111.523438 C 37.59375 111.59375 37.53125 111.644531 37.460938 111.660156 C 37.398438 111.675781 37.359375 111.75 37.371094 111.820312 C 37.386719 111.890625 37.449219 111.933594 37.511719 111.917969 C 37.640625 111.886719 37.746094 111.800781 37.828125 111.695312 C 37.90625 111.59375 37.964844 111.472656 38.003906 111.351562 C 38.058594 111.175781 38.082031 110.996094 38.082031 110.8125 C 38.082031 110.378906 37.929688 109.941406 37.648438 109.632812 Z M 37.648438 109.632812 "/>
<path style=" stroke:none;fill-rule:nonzero;fill:rgb(15.294118%,13.333334%,30.980393%);fill-opacity:1;" d="M 55.070312 111.917969 C 55.132812 111.9375 55.195312 111.890625 55.210938 111.820312 C 55.226562 111.75 55.1875 111.675781 55.125 111.660156 C 55.050781 111.644531 54.988281 111.59375 54.933594 111.523438 C 54.878906 111.453125 54.832031 111.355469 54.800781 111.257812 C 54.753906 111.117188 54.734375 110.964844 54.734375 110.8125 C 54.734375 110.445312 54.863281 110.074219 55.09375 109.820312 C 55.140625 109.773438 55.144531 109.6875 55.097656 109.636719 C 55.054688 109.582031 54.980469 109.582031 54.933594 109.632812 C 54.652344 109.941406 54.5 110.375 54.5 110.8125 C 54.5 110.996094 54.527344 111.175781 54.582031 111.351562 C 54.621094 111.472656 54.675781 111.59375 54.757812 111.695312 C 54.835938 111.800781 54.941406 111.886719 55.070312 111.917969 Z M 55.070312 111.917969 "/>
<path style=" stroke:none;fill-rule:nonzero;fill:rgb(86.274511%,92.156863%,96.078432%);fill-opacity:1;" d="M 35.328125 92.75 C 35.285156 92.988281 35.238281 93.230469 35.195312 93.480469 C 35.296875 93.453125 35.398438 93.449219 35.484375 93.476562 C 35.816406 93.578125 35.9375 93.9375 35.894531 94.289062 C 35.890625 94.300781 35.890625 94.308594 35.890625 94.316406 C 35.886719 94.347656 35.882812 94.378906 35.878906 94.410156 C 35.871094 94.472656 35.863281 94.535156 35.859375 94.597656 C 35.84375 94.726562 35.828125 94.859375 35.816406 94.988281 C 35.785156 95.292969 35.753906 95.601562 35.722656 95.90625 C 35.65625 96.601562 35.585938 97.300781 35.515625 97.996094 C 35.21875 100.886719 34.859375 103.792969 34.160156 106.601562 C 33.511719 109.203125 32.546875 111.96875 30.714844 113.800781 C 30.445312 114.070312 30.113281 113.996094 29.90625 113.78125 C 29.902344 113.785156 29.898438 113.789062 29.894531 113.792969 C 29.519531 114.210938 29.121094 114.621094 28.882812 115.152344 C 28.648438 115.683594 28.609375 116.378906 28.945312 116.839844 C 29.308594 117.34375 29.964844 117.40625 30.539062 117.34375 C 31.363281 117.257812 32.175781 117.003906 32.921875 116.597656 C 33.835938 116.101562 34.671875 115.347656 35.128906 114.324219 C 35.9375 112.511719 35.414062 110.347656 35.421875 108.316406 C 35.425781 106.984375 35.671875 105.671875 35.917969 104.367188 C 36.363281 102.023438 37.84375 96.25 37.917969 93.855469 C 37.96875 92.359375 35.414062 92.320312 35.328125 92.75 Z M 35.328125 92.75 "/>
<path style=" stroke:none;fill-rule:nonzero;fill:rgb(100%,100%,100%);fill-opacity:1;" d="M 30.714844 113.800781 C 32.546875 111.96875 33.511719 109.203125 34.160156 106.601562 C 34.859375 103.792969 35.21875 100.886719 35.515625 97.996094 C 35.585938 97.300781 35.65625 96.601562 35.722656 95.90625 C 35.753906 95.601562 35.785156 95.296875 35.816406 94.988281 C 35.828125 94.859375 35.84375 94.726562 35.859375 94.597656 C 35.863281 94.535156 35.871094 94.472656 35.878906 94.410156 C 35.882812 94.378906 35.886719 94.347656 35.890625 94.316406 C 35.890625 94.308594 35.890625 94.300781 35.894531 94.289062 C 35.9375 93.9375 35.816406 93.578125 35.484375 93.476562 C 35.398438 93.449219 35.296875 93.453125 35.195312 93.480469 C 34.988281 93.535156 34.796875 93.695312 34.765625 93.9375 C 34.472656 96.347656 34.304688 98.777344 33.972656 101.183594 C 33.589844 103.984375 33.082031 106.867188 32.015625 109.453125 C 31.488281 110.730469 30.824219 111.925781 29.886719 112.867188 C 29.59375 113.160156 29.679688 113.550781 29.90625 113.78125 C 30.113281 113.996094 30.445312 114.070312 30.714844 113.800781 Z M 30.714844 113.800781 "/>
<path style=" stroke:none;fill-rule:nonzero;fill:rgb(15.294118%,13.333334%,30.980393%);fill-opacity:1;" d="M 25.167969 57.980469 C 25.09375 58.316406 25.085938 58.789062 25.121094 59.359375 C 25.25 61.363281 25.949219 64.546875 26.515625 67.117188 C 26.355469 67.714844 26.039062 68.648438 25.628906 69.761719 C 24.90625 71.742188 23.898438 74.296875 22.992188 76.59375 C 22.109375 78.824219 21.328125 80.804688 20.988281 81.800781 C 20.882812 81.703125 20.773438 81.613281 20.65625 81.527344 C 19.996094 81.023438 19.207031 80.671875 18.398438 80.671875 C 18.246094 80.671875 18.09375 80.683594 17.941406 80.710938 C 17.875 80.722656 17.832031 80.789062 17.84375 80.863281 C 17.851562 80.933594 17.910156 80.984375 17.976562 80.972656 C 18.117188 80.949219 18.257812 80.9375 18.398438 80.9375 C 19.144531 80.933594 19.894531 81.261719 20.527344 81.746094 C 21.285156 82.320312 21.910156 83.105469 22.53125 83.890625 C 22.574219 83.941406 22.644531 83.949219 22.695312 83.898438 C 22.742188 83.851562 22.746094 83.765625 22.703125 83.710938 C 22.226562 83.109375 21.738281 82.496094 21.179688 81.972656 C 21.605469 80.703125 22.890625 77.511719 24.128906 74.351562 C 24.75 72.765625 25.359375 71.1875 25.847656 69.863281 C 26.171875 68.96875 26.441406 68.195312 26.621094 67.601562 C 26.789062 68.382812 26.941406 69.09375 27.054688 69.671875 C 27.136719 70.101562 27.199219 70.460938 27.226562 70.722656 C 27.347656 71.789062 27.878906 72.253906 28.464844 72.328125 C 28.015625 67.414062 27.789062 61.328125 27.75 55.425781 C 26.566406 55.96875 25.40625 56.894531 25.167969 57.980469 Z M 25.167969 57.980469 "/>
<path style=" stroke:none;fill-rule:nonzero;fill:rgb(77.254903%,86.274511%,91.764706%);fill-opacity:1;" d="M 60.566406 54.296875 C 60.953125 54.28125 61.296875 54.539062 61.453125 54.914062 C 61.777344 54.917969 62.164062 54.988281 62.578125 55.113281 C 62.585938 54.644531 62.589844 54.175781 62.59375 53.707031 C 62.609375 51.617188 56.179688 50.042969 48.84375 49.519531 C 48.800781 50.070312 48.753906 50.46875 48.695312 50.628906 C 47.636719 53.652344 41.683594 53.84375 40.265625 50.628906 C 40.207031 50.492188 40.148438 50.046875 40.097656 49.417969 C 33.367188 49.773438 27.738281 51.230469 27.746094 54.222656 C 27.746094 54.621094 27.746094 55.023438 27.75 55.425781 C 27.789062 61.328125 28.015625 67.414062 28.464844 72.328125 C 28.878906 76.863281 29.488281 80.398438 30.316406 81.855469 C 31.140625 83.304688 33.375 84.375 36.277344 85.070312 C 37.347656 85.324219 38.507812 85.53125 39.726562 85.6875 C 44.023438 86.234375 49.007812 86.152344 53.074219 85.457031 C 54.316406 85.242188 55.46875 84.972656 56.496094 84.644531 C 58.632812 83.960938 60.195312 83.03125 60.761719 81.855469 C 61.46875 80.382812 61.894531 76.613281 62.15625 71.785156 C 62.105469 71.792969 62.054688 71.800781 62.007812 71.804688 C 61.929688 72.289062 61.558594 72.671875 61.105469 72.6875 C 60.585938 72.707031 60.148438 72.242188 60.132812 71.65625 L 59.652344 55.402344 C 59.632812 54.8125 60.046875 54.316406 60.566406 54.296875 Z M 60.566406 54.296875 "/>
<path style=" stroke:none;fill-rule:nonzero;fill:rgb(86.274511%,92.156863%,96.078432%);fill-opacity:1;" d="M 54.867188 61.121094 C 54.484375 60.695312 53.203125 60.613281 51.429688 60.644531 C 51.429688 60.644531 51.429688 60.648438 51.429688 60.648438 C 51.425781 60.722656 51.371094 60.78125 51.308594 60.777344 C 50.601562 60.75 49.878906 60.730469 49.140625 60.714844 C 45.964844 60.65625 42.527344 60.691406 38.71875 60.546875 C 37.007812 60.480469 35.226562 60.378906 33.355469 60.210938 C 33.289062 60.207031 33.242188 60.140625 33.246094 60.070312 C 33.253906 59.996094 33.308594 59.941406 33.375 59.949219 C 33.753906 59.980469 34.125 60.011719 34.5 60.039062 C 32.191406 59.777344 30.433594 59.683594 29.683594 60.292969 C 28.722656 61.078125 28.742188 65.375 28.890625 68.367188 C 29.226562 75.140625 30.34375 80.523438 32.054688 82.234375 C 34.609375 84.789062 52.394531 85.777344 54.5 83.285156 C 56.609375 80.792969 56.71875 63.179688 54.867188 61.121094 Z M 54.867188 61.121094 "/>
<path style=" stroke:none;fill-rule:nonzero;fill:rgb(39.607844%,62.352943%,72.941178%);fill-opacity:1;" d="M 60.566406 54.296875 C 60.046875 54.316406 59.632812 54.8125 59.652344 55.402344 L 60.132812 71.65625 C 60.148438 72.242188 60.585938 72.707031 61.105469 72.6875 C 61.558594 72.671875 61.929688 72.289062 62.007812 71.804688 C 61.574219 71.847656 61.246094 71.765625 61.105469 71.523438 C 60.503906 70.460938 60.160156 56.355469 60.617188 55.265625 C 60.722656 55.019531 61.03125 54.910156 61.453125 54.914062 C 61.296875 54.539062 60.953125 54.28125 60.566406 54.296875 Z M 60.566406 54.296875 "/>
<path style=" stroke:none;fill-rule:nonzero;fill:rgb(15.294118%,13.333334%,30.980393%);fill-opacity:1;" d="M 64.410156 58 C 65.015625 58.375 65.617188 58.9375 66.210938 59.632812 C 66.148438 58.980469 66.070312 58.410156 65.976562 57.980469 C 65.6875 56.644531 63.992188 55.546875 62.578125 55.113281 C 62.164062 54.988281 61.777344 54.917969 61.453125 54.914062 C 61.03125 54.910156 60.722656 55.019531 60.617188 55.265625 C 60.160156 56.355469 60.503906 70.460938 61.105469 71.523438 C 61.246094 71.765625 61.574219 71.847656 62.007812 71.804688 C 62.054688 71.800781 62.105469 71.792969 62.15625 71.785156 C 62.570312 71.722656 63.054688 71.558594 63.546875 71.320312 C 63.011719 68.59375 62.640625 66.355469 62.636719 65.761719 C 62.621094 63.363281 63.207031 57.253906 64.410156 58 Z M 64.410156 58 "/>
<path style=" stroke:none;fill-rule:nonzero;fill:rgb(15.294118%,13.333334%,30.980393%);fill-opacity:1;" d="M 60.90625 73.269531 C 60.828125 73.296875 60.75 73.308594 60.671875 73.308594 C 60.320312 73.308594 59.945312 73.046875 59.730469 72.695312 C 59.457031 72.257812 59.363281 71.691406 59.304688 71.128906 C 59.101562 69.277344 59.007812 64.8125 59.007812 61.136719 C 59.007812 58.714844 59.046875 56.628906 59.121094 55.859375 C 59.125 55.785156 59.078125 55.722656 59.015625 55.714844 C 58.953125 55.707031 58.894531 55.757812 58.886719 55.832031 C 58.8125 56.628906 58.777344 58.710938 58.777344 61.136719 C 58.777344 64.820312 58.867188 69.277344 59.070312 71.160156 C 59.132812 71.734375 59.226562 72.34375 59.535156 72.84375 C 59.792969 73.261719 60.21875 73.570312 60.671875 73.570312 C 60.773438 73.570312 60.875 73.554688 60.976562 73.523438 C 61.035156 73.5 61.070312 73.425781 61.050781 73.355469 C 61.035156 73.285156 60.96875 73.246094 60.90625 73.269531 Z M 60.90625 73.269531 "/>
<path style=" stroke:none;fill-rule:nonzero;fill:rgb(15.294118%,13.333334%,30.980393%);fill-opacity:1;" d="M 33.246094 60.070312 C 33.242188 60.140625 33.289062 60.207031 33.355469 60.210938 C 35.226562 60.378906 37.007812 60.480469 38.71875 60.546875 C 42.527344 60.691406 45.964844 60.65625 49.140625 60.714844 C 49.878906 60.730469 50.601562 60.75 51.308594 60.777344 C 51.371094 60.78125 51.425781 60.722656 51.429688 60.648438 C 51.429688 60.648438 51.429688 60.644531 51.429688 60.644531 C 51.425781 60.574219 51.378906 60.515625 51.316406 60.511719 C 46.433594 60.320312 40.980469 60.539062 34.5 60.039062 C 34.125 60.011719 33.753906 59.980469 33.375 59.949219 C 33.308594 59.941406 33.253906 59.996094 33.246094 60.070312 Z M 33.246094 60.070312 "/>
<path style=" stroke:none;fill-rule:nonzero;fill:rgb(100%,100%,100%);fill-opacity:1;" d="M 39.664062 58.800781 C 42.90625 58.878906 46.148438 59.039062 49.386719 59.269531 C 50.984375 59.378906 52.582031 59.507812 54.179688 59.667969 C 54.496094 59.699219 54.765625 59.34375 54.765625 59.007812 C 54.765625 58.625 54.496094 58.378906 54.179688 58.347656 C 48.023438 57.734375 41.820312 57.410156 35.636719 57.433594 C 34.128906 57.4375 32.617188 57.46875 31.109375 57.570312 C 30.363281 57.621094 30.359375 58.945312 31.109375 58.894531 C 33.957031 58.703125 36.816406 58.730469 39.664062 58.800781 Z M 39.664062 58.800781 "/>
<path style=" stroke:none;fill-rule:nonzero;fill:rgb(100%,100%,100%);fill-opacity:1;" d="M 30.953125 62.109375 C 30.964844 61.257812 29.796875 61.257812 29.785156 62.109375 C 29.691406 67.9375 29.621094 73.933594 31.328125 79.515625 C 31.574219 80.316406 32.703125 79.972656 32.457031 79.164062 C 30.78125 73.6875 30.863281 67.828125 30.953125 62.109375 Z M 30.953125 62.109375 "/>
<path style=" stroke:none;fill-rule:nonzero;fill:rgb(15.294118%,13.333334%,30.980393%);fill-opacity:1;" d="M 48.695312 50.628906 C 48.753906 50.46875 48.800781 50.070312 48.84375 49.519531 C 48.863281 49.207031 48.886719 48.847656 48.902344 48.453125 C 45.96875 48.496094 42.90625 48.457031 40.03125 48.347656 C 40.050781 48.742188 40.074219 49.101562 40.097656 49.417969 C 40.148438 50.046875 40.207031 50.492188 40.265625 50.628906 C 41.683594 53.84375 47.636719 53.652344 48.695312 50.628906 Z M 48.695312 50.628906 "/>
<path style=" stroke:none;fill-rule:nonzero;fill:rgb(15.294118%,13.333334%,30.980393%);fill-opacity:1;" d="M 57.117188 16.46875 C 55.761719 14.695312 29.832031 14.695312 27.933594 16.46875 C 26.03125 18.242188 26.566406 42.765625 27.933594 44.539062 C 29.296875 46.308594 55.488281 46.753906 57.117188 44.539062 C 58.746094 42.320312 58.476562 18.242188 57.117188 16.46875 Z M 57.117188 16.46875 "/>
<path style=" stroke:none;fill-rule:nonzero;fill:rgb(14.509805%,18.431373%,42.352942%);fill-opacity:1;" d="M 46.292969 28.082031 C 45.261719 28.175781 44.230469 28.242188 43.199219 28.289062 C 43.1875 29.503906 43.167969 30.71875 43.128906 31.933594 C 44.230469 31.917969 45.332031 31.890625 46.429688 31.859375 C 46.382812 30.628906 46.335938 29.359375 46.292969 28.082031 Z M 46.292969 28.082031 "/>
<path style=" stroke:none;fill-rule:nonzero;fill:rgb(14.509805%,18.431373%,42.352942%);fill-opacity:1;" d="M 46.453125 32.429688 C 45.339844 32.53125 44.222656 32.609375 43.105469 32.65625 C 43.074219 33.566406 43.035156 34.480469 42.988281 35.390625 C 44.1875 35.371094 45.386719 35.34375 46.582031 35.304688 C 46.535156 34.386719 46.492188 33.421875 46.453125 32.429688 Z M 46.453125 32.429688 "/>
<path style=" stroke:none;fill-rule:nonzero;fill:rgb(14.509805%,18.431373%,42.352942%);fill-opacity:1;" d="M 50.101562 31.964844 C 49.058594 32.136719 48.011719 32.273438 46.960938 32.378906 C 46.945312 33.351562 46.914062 34.324219 46.863281 35.296875 C 47.972656 35.261719 49.074219 35.214844 50.175781 35.160156 C 50.148438 34.097656 50.125 33.035156 50.101562 31.964844 Z M 50.101562 31.964844 "/>
<path style=" stroke:none;fill-rule:nonzero;fill:rgb(14.509805%,18.431373%,42.352942%);fill-opacity:1;" d="M 46.953125 28.015625 C 46.976562 29.289062 46.984375 30.566406 46.96875 31.839844 C 48.015625 31.804688 49.058594 31.761719 50.097656 31.710938 C 50.066406 30.347656 50.042969 28.984375 50.011719 27.617188 C 48.996094 27.78125 47.976562 27.914062 46.953125 28.015625 Z M 46.953125 28.015625 "/>
<path style=" stroke:none;fill-rule:nonzero;fill:rgb(14.509805%,18.431373%,42.352942%);fill-opacity:1;" d="M 34.1875 35.414062 C 34.085938 34.457031 34.007812 33.5 33.949219 32.539062 C 32.867188 32.46875 31.792969 32.371094 30.714844 32.25 C 30.75 33.296875 30.789062 34.34375 30.828125 35.382812 C 31.941406 35.394531 33.0625 35.40625 34.1875 35.414062 Z M 34.1875 35.414062 "/>
<path style=" stroke:none;fill-rule:nonzero;fill:rgb(14.509805%,18.431373%,42.352942%);fill-opacity:1;" d="M 46.820312 24.507812 C 46.863281 25.292969 46.898438 26.082031 46.925781 26.867188 C 46.933594 27.070312 46.933594 27.273438 46.941406 27.476562 C 47.964844 27.445312 48.988281 27.402344 50.007812 27.351562 C 49.984375 26.242188 49.953125 25.132812 49.921875 24.027344 C 48.894531 24.222656 47.859375 24.382812 46.820312 24.507812 Z M 46.820312 24.507812 "/>
<path style=" stroke:none;fill-rule:nonzero;fill:rgb(14.509805%,18.431373%,42.352942%);fill-opacity:1;" d="M 42.625 32.671875 C 41.777344 32.703125 40.929688 32.722656 40.085938 32.730469 C 39.699219 32.730469 39.3125 32.726562 38.925781 32.722656 C 38.898438 33.621094 38.859375 34.523438 38.816406 35.425781 C 40.125 35.421875 41.4375 35.414062 42.742188 35.394531 C 42.695312 34.488281 42.65625 33.578125 42.625 32.671875 Z M 42.625 32.671875 "/>
<path style=" stroke:none;fill-rule:nonzero;fill:rgb(14.509805%,18.431373%,42.352942%);fill-opacity:1;" d="M 38.523438 35.425781 C 38.480469 34.523438 38.445312 33.617188 38.414062 32.714844 C 37.105469 32.695312 35.792969 32.648438 34.484375 32.570312 C 34.492188 33.523438 34.503906 34.472656 34.511719 35.417969 C 35.84375 35.425781 37.183594 35.429688 38.523438 35.425781 Z M 38.523438 35.425781 "/>
<path style=" stroke:none;fill-rule:nonzero;fill:rgb(14.509805%,18.431373%,42.352942%);fill-opacity:1;" d="M 52.992188 37.660156 C 54.339844 36.0625 54.113281 18.703125 52.992188 17.425781 C 52.59375 16.972656 49.667969 16.679688 45.976562 16.546875 C 46.167969 17.644531 46.320312 18.75 46.445312 19.855469 C 47.554688 19.820312 48.664062 19.773438 49.765625 19.714844 C 49.730469 18.9375 49.6875 18.164062 49.644531 17.394531 C 49.8125 18.15625 49.953125 18.925781 50.070312 19.699219 C 50.492188 19.679688 50.914062 19.660156 51.335938 19.636719 C 50.925781 19.722656 50.511719 19.804688 50.097656 19.878906 C 50.296875 21.191406 50.425781 22.519531 50.519531 23.847656 C 50.660156 23.839844 50.804688 23.832031 50.945312 23.824219 C 50.804688 23.855469 50.664062 23.878906 50.523438 23.910156 C 50.597656 25.042969 50.648438 26.183594 50.679688 27.316406 C 51.140625 27.292969 51.605469 27.273438 52.0625 27.246094 C 51.605469 27.339844 51.144531 27.425781 50.683594 27.507812 C 50.699219 28.898438 50.695312 30.289062 50.652344 31.679688 C 51.121094 31.65625 51.59375 31.636719 52.0625 31.605469 C 51.59375 31.707031 51.121094 31.792969 50.644531 31.878906 C 50.609375 32.96875 50.550781 34.058594 50.460938 35.144531 C 50.996094 35.117188 51.53125 35.09375 52.0625 35.0625 C 51.523438 35.171875 50.984375 35.273438 50.441406 35.367188 C 50.386719 36.027344 50.320312 36.6875 50.238281 37.347656 C 50.21875 36.703125 50.199219 36.054688 50.183594 35.40625 C 49.070312 35.589844 47.953125 35.734375 46.832031 35.84375 C 46.796875 36.429688 46.757812 37.011719 46.707031 37.59375 C 46.671875 37.042969 46.640625 36.464844 46.609375 35.867188 C 45.390625 35.984375 44.171875 36.066406 42.949219 36.113281 C 42.921875 36.609375 42.898438 37.101562 42.867188 37.59375 C 42.835938 37.105469 42.808594 36.613281 42.785156 36.121094 C 41.882812 36.15625 40.984375 36.175781 40.085938 36.183594 C 39.648438 36.183594 39.210938 36.179688 38.777344 36.175781 C 38.742188 36.804688 38.710938 37.4375 38.671875 38.070312 C 38.628906 37.4375 38.597656 36.804688 38.566406 36.171875 C 37.214844 36.152344 35.863281 36.105469 34.511719 36.027344 C 34.519531 36.710938 34.523438 37.394531 34.523438 38.070312 C 34.421875 37.386719 34.332031 36.699219 34.253906 36.011719 C 33.113281 35.941406 31.976562 35.847656 30.839844 35.71875 C 30.859375 36.285156 30.878906 36.851562 30.898438 37.414062 C 30.796875 36.851562 30.703125 36.277344 30.613281 35.691406 C 29.839844 35.601562 29.0625 35.5 28.292969 35.378906 C 28.449219 36.582031 28.636719 37.417969 28.851562 37.660156 C 29.980469 38.9375 51.644531 39.257812 52.992188 37.660156 Z M 52.992188 37.660156 "/>
<path style=" stroke:none;fill-rule:nonzero;fill:rgb(14.509805%,18.431373%,42.352942%);fill-opacity:1;" d="M 30.566406 35.378906 C 30.414062 34.339844 30.285156 33.273438 30.179688 32.1875 C 29.484375 32.101562 28.785156 32.007812 28.089844 31.894531 C 28.773438 31.90625 29.464844 31.914062 30.15625 31.921875 C 30.035156 30.5625 29.953125 29.179688 29.925781 27.792969 C 29.3125 27.714844 28.699219 27.632812 28.089844 27.535156 C 28.695312 27.542969 29.308594 27.550781 29.921875 27.554688 C 29.902344 26.480469 29.917969 25.40625 29.96875 24.339844 C 29.453125 24.265625 28.941406 24.1875 28.425781 24.097656 C 28.941406 24.105469 29.460938 24.113281 29.980469 24.125 C 30.050781 22.769531 30.175781 21.441406 30.367188 20.152344 C 29.851562 20.078125 29.332031 20 28.816406 19.90625 C 29.34375 19.917969 29.871094 19.925781 30.398438 19.933594 C 30.535156 19.066406 30.699219 18.214844 30.898438 17.394531 C 30.824219 18.238281 30.765625 19.085938 30.71875 19.941406 C 31.839844 19.957031 32.964844 19.972656 34.097656 19.984375 C 34.203125 18.972656 34.34375 17.964844 34.523438 16.964844 C 34.492188 17.964844 34.46875 18.972656 34.453125 19.988281 C 35.792969 20 37.140625 20 38.484375 19.996094 C 38.535156 18.824219 38.59375 17.65625 38.667969 16.484375 C 33.855469 16.5625 29.523438 16.875 28.851562 17.425781 C 27.578125 18.457031 27.625 30.214844 28.289062 35.351562 C 29.046875 35.363281 29.804688 35.371094 30.566406 35.378906 Z M 30.566406 35.378906 "/>
<path style=" stroke:none;fill-rule:nonzero;fill:rgb(14.509805%,18.431373%,42.352942%);fill-opacity:1;" d="M 38.855469 19.992188 C 40.125 19.988281 41.394531 19.976562 42.660156 19.953125 C 42.707031 18.792969 42.765625 17.632812 42.835938 16.476562 C 41.457031 16.460938 40.046875 16.460938 38.675781 16.484375 C 38.75 17.652344 38.808594 18.824219 38.855469 19.992188 Z M 38.855469 19.992188 "/>
<path style=" stroke:none;fill-rule:nonzero;fill:rgb(14.509805%,18.431373%,42.352942%);fill-opacity:1;" d="M 46.503906 20.394531 C 46.628906 21.601562 46.722656 22.808594 46.792969 24.019531 C 47.839844 23.980469 48.882812 23.933594 49.917969 23.878906 C 49.878906 22.558594 49.835938 21.242188 49.777344 19.9375 C 48.691406 20.128906 47.597656 20.277344 46.503906 20.394531 Z M 46.503906 20.394531 "/>
<path style=" stroke:none;fill-rule:nonzero;fill:rgb(14.509805%,18.431373%,42.352942%);fill-opacity:1;" d="M 33.914062 31.960938 C 33.839844 30.695312 33.796875 29.429688 33.773438 28.164062 C 32.714844 28.09375 31.660156 27.996094 30.605469 27.875 C 30.625 29.226562 30.660156 30.578125 30.707031 31.929688 C 31.769531 31.941406 32.839844 31.949219 33.914062 31.960938 Z M 33.914062 31.960938 "/>
<path style=" stroke:none;fill-rule:nonzero;fill:rgb(14.509805%,18.431373%,42.352942%);fill-opacity:1;" d="M 42.894531 16.476562 C 42.964844 17.632812 43.023438 18.789062 43.070312 19.949219 C 44.058594 19.929688 45.050781 19.902344 46.039062 19.871094 C 46 18.703125 45.964844 17.585938 45.929688 16.546875 C 44.957031 16.511719 43.9375 16.488281 42.894531 16.476562 Z M 42.894531 16.476562 "/>
<path style=" stroke:none;fill-rule:nonzero;fill:rgb(14.509805%,18.431373%,42.352942%);fill-opacity:1;" d="M 43.191406 24.125 C 44.183594 24.101562 45.175781 24.074219 46.164062 24.042969 C 46.128906 22.8125 46.089844 21.605469 46.054688 20.445312 C 45.070312 20.539062 44.085938 20.613281 43.097656 20.660156 C 43.136719 21.816406 43.171875 22.96875 43.191406 24.125 Z M 43.191406 24.125 "/>
<path style=" stroke:none;fill-rule:nonzero;fill:rgb(14.509805%,18.431373%,42.352942%);fill-opacity:1;" d="M 34.421875 24.179688 C 35.730469 24.1875 37.042969 24.1875 38.355469 24.183594 C 38.375 23.035156 38.410156 21.886719 38.453125 20.738281 C 37.117188 20.71875 35.78125 20.667969 34.445312 20.578125 C 34.429688 21.773438 34.421875 22.972656 34.421875 24.179688 Z M 34.421875 24.179688 "/>
<path style=" stroke:none;fill-rule:nonzero;fill:rgb(14.509805%,18.431373%,42.352942%);fill-opacity:1;" d="M 33.761719 27.515625 C 33.757812 26.59375 33.765625 25.671875 33.792969 24.746094 C 32.722656 24.667969 31.652344 24.558594 30.585938 24.421875 C 30.578125 25.46875 30.582031 26.515625 30.597656 27.5625 C 31.648438 27.578125 32.703125 27.585938 33.761719 27.59375 C 33.761719 27.570312 33.761719 27.542969 33.761719 27.515625 Z M 33.761719 27.515625 "/>
<path style=" stroke:none;fill-rule:nonzero;fill:rgb(14.509805%,18.431373%,42.352942%);fill-opacity:1;" d="M 43.195312 24.824219 C 43.207031 25.738281 43.207031 26.65625 43.203125 27.570312 C 44.230469 27.554688 45.253906 27.53125 46.273438 27.5 C 46.242188 26.527344 46.210938 25.546875 46.179688 24.578125 C 45.1875 24.683594 44.191406 24.765625 43.195312 24.824219 Z M 43.195312 24.824219 "/>
<path style=" stroke:none;fill-rule:nonzero;fill:rgb(14.509805%,18.431373%,42.352942%);fill-opacity:1;" d="M 38.394531 31.972656 C 38.363281 30.765625 38.34375 29.558594 38.335938 28.351562 C 37.035156 28.332031 35.738281 28.285156 34.441406 28.207031 C 34.453125 29.460938 34.464844 30.714844 34.476562 31.960938 C 35.78125 31.972656 37.089844 31.972656 38.394531 31.972656 Z M 38.394531 31.972656 "/>
<path style=" stroke:none;fill-rule:nonzero;fill:rgb(14.509805%,18.431373%,42.352942%);fill-opacity:1;" d="M 38.328125 27.609375 C 38.328125 26.71875 38.332031 25.824219 38.34375 24.933594 C 37.035156 24.917969 35.726562 24.871094 34.421875 24.789062 C 34.421875 25.726562 34.429688 26.664062 34.433594 27.601562 C 35.730469 27.609375 37.027344 27.613281 38.328125 27.609375 Z M 38.328125 27.609375 "/>
<path style=" stroke:none;fill-rule:nonzero;fill:rgb(14.509805%,18.431373%,42.352942%);fill-opacity:1;" d="M 42.53125 28.3125 C 41.714844 28.339844 40.902344 28.359375 40.085938 28.367188 C 39.726562 28.367188 39.367188 28.363281 39.007812 28.359375 C 39 29.5625 38.980469 30.769531 38.945312 31.972656 C 40.164062 31.96875 41.382812 31.960938 42.601562 31.941406 C 42.5625 30.730469 42.542969 29.523438 42.53125 28.3125 Z M 42.53125 28.3125 "/>
<path style=" stroke:none;fill-rule:nonzero;fill:rgb(14.509805%,18.431373%,42.352942%);fill-opacity:1;" d="M 30.589844 24.132812 C 31.660156 24.148438 32.734375 24.164062 33.8125 24.171875 C 33.851562 22.960938 33.925781 21.75 34.039062 20.546875 C 32.925781 20.460938 31.816406 20.347656 30.707031 20.195312 C 30.640625 21.503906 30.605469 22.816406 30.589844 24.132812 Z M 30.589844 24.132812 "/>
<path style=" stroke:none;fill-rule:nonzero;fill:rgb(14.509805%,18.431373%,42.352942%);fill-opacity:1;" d="M 40.085938 20.75 C 39.6875 20.75 39.285156 20.75 38.886719 20.746094 C 38.929688 21.890625 38.964844 23.035156 38.984375 24.179688 C 40.171875 24.175781 41.355469 24.164062 42.539062 24.140625 C 42.558594 22.988281 42.589844 21.835938 42.632812 20.683594 C 41.785156 20.71875 40.933594 20.742188 40.085938 20.75 Z M 40.085938 20.75 "/>
<path style=" stroke:none;fill-rule:nonzero;fill:rgb(14.509805%,18.431373%,42.352942%);fill-opacity:1;" d="M 39.695312 24.941406 C 39.460938 24.941406 39.230469 24.9375 38.996094 24.9375 C 39.007812 25.828125 39.015625 26.71875 39.011719 27.609375 C 40.183594 27.605469 41.355469 27.597656 42.527344 27.582031 C 42.523438 26.675781 42.523438 25.765625 42.535156 24.859375 C 41.589844 24.90625 40.640625 24.929688 39.695312 24.941406 Z M 39.695312 24.941406 "/>
<path style=" stroke:none;fill-rule:nonzero;fill:rgb(15.294118%,13.333334%,30.980393%);fill-opacity:1;" d="M 38.632812 51.105469 C 39.410156 53.917969 41.882812 55.992188 44.488281 56.011719 L 44.523438 56.011719 C 47.113281 56.007812 49.589844 53.976562 50.394531 51.1875 C 50.421875 51.089844 50.375 50.988281 50.292969 50.957031 C 50.207031 50.925781 50.113281 50.976562 50.085938 51.074219 C 49.332031 53.703125 46.964844 55.648438 44.523438 55.644531 L 44.488281 55.644531 C 42.035156 55.632812 39.671875 53.648438 38.945312 50.996094 C 38.917969 50.898438 38.824219 50.84375 38.738281 50.875 C 38.652344 50.90625 38.605469 51.007812 38.632812 51.105469 Z M 38.632812 51.105469 "/>
<path style=" stroke:none;fill-rule:nonzero;fill:rgb(86.274511%,92.156863%,96.078432%);fill-opacity:1;" d="M 63.65625 13.144531 C 63.4375 10.972656 62.164062 12.234375 61.382812 13.136719 C 60.234375 14.464844 59.476562 15.886719 59.160156 17.738281 C 59.085938 18.1875 59.035156 18.640625 59.003906 19.09375 C 59.195312 21.390625 59.433594 24.253906 59.433594 26.371094 C 59.433594 26.734375 59.425781 27.078125 59.410156 27.394531 C 59.40625 27.492188 59.335938 27.5625 59.253906 27.566406 C 59.332031 30.390625 59.308594 33.21875 59.179688 36.042969 C 59.261719 36.058594 59.320312 36.132812 59.320312 36.226562 C 59.28125 37.6875 59.210938 39.148438 59.109375 40.605469 C 59.027344 41.785156 58.914062 43 58.519531 44.128906 C 58.464844 44.601562 58.40625 45.078125 58.34375 45.550781 C 58.320312 45.71875 58.300781 45.894531 58.359375 46.050781 C 58.441406 46.265625 58.648438 46.375 58.84375 46.4375 C 60.308594 46.921875 61.890625 45.804688 62.648438 44.304688 C 63.402344 42.800781 63.527344 41.011719 63.628906 39.285156 C 64.148438 30.578125 64.535156 21.8125 63.65625 13.144531 Z M 63.65625 13.144531 "/>
<path style=" stroke:none;fill-rule:nonzero;fill:rgb(86.274511%,92.156863%,96.078432%);fill-opacity:1;" d="M 60.0625 9.8125 C 59.65625 9.613281 59.199219 9.589844 58.753906 9.570312 C 52.449219 9.292969 46.132812 9.339844 39.820312 9.386719 C 36.234375 9.414062 32.628906 9.441406 29.101562 10.171875 C 28.789062 10.238281 28.453125 10.320312 28.222656 10.574219 C 28.035156 10.78125 27.945312 11.074219 27.859375 11.355469 C 27.566406 12.324219 27.316406 13.535156 27.960938 14.257812 C 28.441406 14.796875 29.207031 14.789062 29.882812 14.742188 C 33.929688 14.472656 37.972656 14.183594 42.023438 14.054688 C 42.03125 13.96875 42.089844 13.894531 42.171875 13.886719 C 45.019531 13.675781 47.871094 13.570312 50.726562 13.570312 C 52.25 13.570312 53.773438 13.597656 55.300781 13.660156 C 55.820312 13.679688 56.382812 13.722656 56.90625 13.882812 C 57.25 13.988281 57.582031 14.152344 57.867188 14.394531 C 58.6875 14.003906 59.402344 13.292969 60.152344 12.417969 C 60.511719 12 60.894531 11.507812 60.859375 10.929688 C 60.828125 10.425781 60.472656 10.011719 60.0625 9.8125 Z M 60.0625 9.8125 "/>
<path style=" stroke:none;fill-rule:nonzero;fill:rgb(15.294118%,13.333334%,30.980393%);fill-opacity:1;" d="M 59.320312 36.226562 C 59.320312 36.132812 59.261719 36.058594 59.179688 36.042969 C 59.175781 36.042969 59.167969 36.039062 59.160156 36.039062 C 59.070312 36.035156 58.996094 36.117188 58.992188 36.21875 C 58.957031 37.671875 58.886719 39.125 58.785156 40.578125 C 58.699219 41.851562 58.574219 43.136719 58.117188 44.265625 C 57.863281 44.902344 57.484375 45.488281 56.96875 45.808594 C 56.636719 46.015625 56.246094 46.113281 55.847656 46.203125 C 54.082031 46.59375 52.289062 46.839844 50.492188 46.933594 C 50.402344 46.9375 50.332031 47.023438 50.335938 47.125 C 50.339844 47.226562 50.417969 47.304688 50.507812 47.300781 C 52.320312 47.207031 54.128906 46.960938 55.910156 46.5625 C 56.3125 46.472656 56.738281 46.371094 57.125 46.132812 C 57.730469 45.753906 58.140625 45.097656 58.414062 44.417969 C 58.453125 44.320312 58.484375 44.222656 58.519531 44.128906 C 58.914062 43 59.027344 41.785156 59.109375 40.605469 C 59.210938 39.148438 59.28125 37.6875 59.320312 36.226562 Z M 59.320312 36.226562 "/>
<path style=" stroke:none;fill-rule:nonzero;fill:rgb(15.294118%,13.333334%,30.980393%);fill-opacity:1;" d="M 55.300781 13.660156 C 53.773438 13.597656 52.25 13.570312 50.726562 13.570312 C 47.871094 13.570312 45.019531 13.675781 42.171875 13.890625 C 42.089844 13.894531 42.03125 13.96875 42.023438 14.054688 C 42.023438 14.066406 42.019531 14.074219 42.019531 14.085938 C 42.027344 14.1875 42.105469 14.261719 42.191406 14.257812 C 44.695312 14.070312 47.199219 13.96875 49.707031 13.945312 C 50.046875 13.945312 50.386719 13.9375 50.726562 13.9375 C 52.246094 13.9375 53.769531 13.96875 55.289062 14.027344 C 55.800781 14.046875 56.339844 14.09375 56.820312 14.238281 C 57.0625 14.3125 57.285156 14.414062 57.488281 14.546875 C 57.6875 14.679688 57.859375 14.84375 58.003906 15.054688 C 58.378906 15.597656 58.46875 16.359375 58.519531 17.117188 C 58.691406 19.5 59.109375 23.605469 59.109375 26.371094 C 59.109375 26.730469 59.101562 27.066406 59.085938 27.375 C 59.082031 27.476562 59.148438 27.5625 59.238281 27.566406 C 59.242188 27.566406 59.246094 27.566406 59.253906 27.566406 C 59.335938 27.5625 59.40625 27.492188 59.410156 27.394531 C 59.425781 27.078125 59.433594 26.734375 59.433594 26.371094 C 59.433594 24.253906 59.195312 21.390625 59.003906 19.09375 C 58.941406 18.351562 58.886719 17.667969 58.84375 17.085938 C 58.796875 16.453125 58.730469 15.765625 58.453125 15.175781 C 58.472656 15.164062 58.492188 15.152344 58.507812 15.132812 C 59.839844 13.542969 61.25 12.035156 62.726562 10.617188 C 62.792969 10.550781 62.800781 10.433594 62.742188 10.355469 C 62.683594 10.28125 62.582031 10.269531 62.515625 10.335938 C 61.035156 11.757812 59.621094 13.273438 58.285156 14.867188 C 58.277344 14.855469 58.269531 14.839844 58.261719 14.828125 C 58.144531 14.660156 58.011719 14.515625 57.867188 14.394531 C 57.582031 14.152344 57.25 13.988281 56.90625 13.882812 C 56.382812 13.722656 55.820312 13.679688 55.300781 13.660156 Z M 55.300781 13.660156 "/>
<path style=" stroke:none;fill-rule:nonzero;fill:rgb(100%,100%,100%);fill-opacity:1;" d="M 33.214844 12.882812 C 38.972656 12.269531 44.769531 12.160156 50.542969 12.570312 C 52.117188 12.683594 53.699219 12.878906 55.273438 12.660156 C 55.566406 12.621094 55.816406 12.40625 55.816406 12.046875 C 55.816406 11.746094 55.566406 11.394531 55.273438 11.433594 C 53.875 11.628906 52.46875 11.488281 51.070312 11.382812 C 49.625 11.273438 48.183594 11.195312 46.738281 11.148438 C 43.847656 11.054688 40.953125 11.09375 38.0625 11.257812 C 36.445312 11.351562 34.828125 11.484375 33.214844 11.65625 C 32.921875 11.6875 32.671875 11.917969 32.671875 12.269531 C 32.671875 12.578125 32.917969 12.917969 33.214844 12.882812 Z M 33.214844 12.882812 "/>
<path style=" stroke:none;fill-rule:nonzero;fill:rgb(100%,100%,100%);fill-opacity:1;" d="M 63.464844 34.417969 C 63.402344 28.613281 63.199219 22.808594 62.859375 17.015625 C 62.8125 16.230469 61.730469 16.222656 61.777344 17.015625 C 62.117188 22.808594 62.316406 28.613281 62.378906 34.417969 C 62.386719 35.207031 63.472656 35.210938 63.464844 34.417969 Z M 63.464844 34.417969 "/>
<path style=" stroke:none;fill-rule:nonzero;fill:rgb(86.274511%,92.156863%,96.078432%);fill-opacity:1;" d="M 31 56.039062 C 31.464844 56.1875 31.957031 56.195312 32.441406 56.195312 C 34.230469 56.195312 36.015625 56.101562 37.796875 55.90625 C 37.980469 55.886719 38.179688 55.859375 38.324219 55.726562 C 38.601562 55.46875 38.535156 54.976562 38.441406 54.585938 C 38.210938 53.640625 37.953125 52.703125 37.664062 51.78125 C 37.566406 51.464844 37.460938 51.136719 37.242188 50.910156 C 36.859375 50.507812 36.269531 50.53125 35.75 50.597656 C 33.890625 50.832031 31.289062 51.085938 29.675781 52.25 C 28.117188 53.375 29.699219 55.628906 31 56.039062 Z M 31 56.039062 "/>
<path style=" stroke:none;fill-rule:nonzero;fill:rgb(86.274511%,92.156863%,96.078432%);fill-opacity:1;" d="M 58.84375 52.925781 C 58.695312 52.472656 58.324219 52.164062 57.941406 51.945312 C 57.105469 51.472656 56.160156 51.328125 55.230469 51.1875 C 54.347656 51.054688 52.628906 50.371094 51.871094 51.132812 C 51.5 51.507812 51.359375 52.234375 51.128906 52.710938 C 50.835938 53.324219 50.464844 53.855469 50.097656 54.410156 C 49.90625 54.667969 49.695312 54.917969 49.582031 55.230469 C 49.472656 55.539062 49.480469 55.9375 49.691406 56.171875 C 49.828125 56.324219 50.023438 56.386719 50.210938 56.4375 C 52.035156 56.9375 53.933594 57.039062 55.8125 56.933594 C 56.253906 56.910156 56.703125 56.871094 57.105469 56.664062 C 57.824219 56.296875 58.257812 55.46875 58.59375 54.664062 C 58.824219 54.117188 59.03125 53.492188 58.84375 52.925781 Z M 58.84375 52.925781 "/>
<path style=" stroke:none;fill-rule:nonzero;fill:rgb(15.294118%,13.333334%,30.980393%);fill-opacity:1;" d="M 17.441406 82.699219 C 17.316406 82.828125 17.101562 83.078125 16.832031 83.402344 C 15.515625 84.992188 12.894531 88.4375 13.183594 88.894531 C 13.460938 89.332031 13.988281 88.832031 14.203125 88.601562 C 13.882812 88.96875 12.824219 90.25 13.082031 90.585938 C 13.386719 90.984375 14.511719 90.046875 14.511719 90.046875 C 14.511719 90.046875 13.289062 91.382812 13.632812 91.691406 C 13.976562 92.003906 15.175781 90.785156 15.175781 90.785156 C 15.175781 90.785156 14.429688 91.605469 14.792969 91.980469 C 15.15625 92.355469 19.589844 88.144531 19.589844 88.144531 C 19.589844 88.144531 20.230469 91.097656 21.046875 90.585938 C 21.632812 90.21875 21.335938 87.324219 21.046875 85.457031 C 20.9375 84.730469 20.824219 84.15625 20.769531 83.953125 C 20.5625 83.230469 18.179688 81.9375 17.441406 82.699219 Z M 17.441406 82.699219 "/>
<path style=" stroke:none;fill-rule:nonzero;fill:rgb(100%,100%,100%);fill-opacity:1;" d="M 19.308594 74.507812 C 20.167969 71.707031 21.070312 68.871094 22.367188 66.28125 C 22.652344 65.703125 23.007812 65.058594 23.339844 64.582031 C 23.453125 64.414062 23.660156 64.140625 23.828125 63.949219 C 23.914062 63.851562 24 63.757812 24.089844 63.667969 C 24.125 63.636719 24.160156 63.605469 24.195312 63.570312 C 24.203125 63.566406 24.273438 63.503906 24.292969 63.488281 C 24.550781 63.28125 24.671875 62.910156 24.503906 62.582031 C 24.355469 62.292969 23.964844 62.136719 23.703125 62.34375 C 22.859375 63.023438 22.230469 63.984375 21.691406 64.972656 C 21.019531 66.203125 20.472656 67.519531 19.972656 68.84375 C 18.929688 71.609375 18.085938 74.457031 17.238281 77.304688 C 17.0625 77.894531 16.886719 78.484375 16.699219 79.074219 C 16.625 79.304688 16.550781 79.539062 16.46875 79.773438 C 16.4375 79.863281 16.40625 79.953125 16.375 80.042969 C 16.371094 80.046875 16.371094 80.046875 16.367188 80.054688 C 16.351562 80.097656 16.335938 80.140625 16.316406 80.179688 C 16.1875 80.503906 16.238281 80.894531 16.527344 81.085938 C 16.78125 81.253906 17.195312 81.175781 17.328125 80.847656 C 17.664062 80.023438 17.914062 79.152344 18.171875 78.296875 C 18.550781 77.035156 18.921875 75.765625 19.308594 74.507812 Z M 19.308594 74.507812 "/>
<path style=" stroke:none;fill-rule:nonzero;fill:rgb(77.254903%,86.274511%,91.764706%);fill-opacity:1;" d="M 66.210938 59.632812 C 65.617188 58.9375 65.015625 58.375 64.410156 58 C 63.207031 57.253906 62.621094 63.363281 62.636719 65.761719 C 62.640625 66.351562 63.011719 68.59375 63.546875 71.320312 C 64.566406 76.535156 66.175781 83.542969 66.933594 84.269531 C 67.273438 84.59375 68.015625 84.601562 68.910156 84.394531 C 69.023438 83.664062 69.132812 83.09375 69.191406 82.890625 C 69.394531 82.167969 71.78125 80.871094 72.515625 81.636719 C 72.640625 81.765625 72.859375 82.015625 73.125 82.339844 C 73.8125 81.785156 74.304688 81.183594 74.410156 80.617188 C 74.765625 78.71875 70.796875 65.027344 66.210938 59.632812 Z M 66.210938 59.632812 "/>
<path style=" stroke:none;fill-rule:nonzero;fill:rgb(15.294118%,13.333334%,30.980393%);fill-opacity:1;" d="M 75.757812 87.535156 C 75.96875 87.765625 76.5 88.269531 76.773438 87.832031 C 77.0625 87.371094 74.445312 83.929688 73.125 82.339844 C 72.859375 82.015625 72.640625 81.765625 72.515625 81.636719 C 71.78125 80.871094 69.394531 82.167969 69.191406 82.890625 C 69.132812 83.09375 69.023438 83.664062 68.910156 84.394531 C 68.621094 86.257812 68.324219 89.15625 68.910156 89.523438 C 69.726562 90.035156 70.367188 87.078125 70.367188 87.078125 C 70.367188 87.078125 74.804688 91.292969 75.164062 90.914062 C 75.527344 90.539062 74.78125 89.71875 74.78125 89.71875 C 74.78125 89.71875 75.984375 90.9375 76.328125 90.628906 C 76.667969 90.316406 75.445312 88.980469 75.445312 88.980469 C 75.445312 88.980469 76.574219 89.921875 76.878906 89.523438 C 77.136719 89.183594 76.074219 87.90625 75.757812 87.535156 Z M 75.757812 87.535156 "/>
<path style=" stroke:none;fill-rule:nonzero;fill:rgb(100%,100%,100%);fill-opacity:1;" d="M 65.664062 62.421875 C 65.695312 62.445312 65.722656 62.46875 65.75 62.496094 C 65.765625 62.507812 65.792969 62.535156 65.8125 62.550781 C 65.894531 62.632812 65.976562 62.714844 66.054688 62.800781 C 66.21875 62.980469 66.371094 63.175781 66.519531 63.375 C 66.644531 63.550781 66.769531 63.738281 66.917969 63.984375 C 67.074219 64.242188 67.222656 64.507812 67.367188 64.773438 C 68.015625 66 68.550781 67.300781 69.039062 68.617188 C 70.035156 71.289062 70.835938 74.050781 71.65625 76.796875 C 71.957031 77.800781 72.238281 78.820312 72.632812 79.785156 C 72.761719 80.109375 73.175781 80.1875 73.429688 80.019531 C 73.726562 79.828125 73.773438 79.441406 73.640625 79.117188 C 73.621094 79.070312 73.601562 79.023438 73.585938 78.976562 C 73.605469 79.027344 73.535156 78.84375 73.519531 78.792969 C 73.449219 78.59375 73.382812 78.390625 73.316406 78.191406 C 73.15625 77.691406 73.003906 77.1875 72.855469 76.683594 C 72.460938 75.375 72.078125 74.058594 71.671875 72.753906 C 70.785156 69.890625 69.847656 66.976562 68.496094 64.34375 C 67.910156 63.199219 67.21875 62.054688 66.253906 61.28125 C 65.996094 61.074219 65.605469 61.226562 65.453125 61.515625 C 65.285156 61.847656 65.40625 62.214844 65.664062 62.421875 Z M 65.664062 62.421875 "/>
<path style=" stroke:none;fill-rule:nonzero;fill:rgb(15.294118%,13.333334%,30.980393%);fill-opacity:1;" d="M 71.558594 79.871094 C 71.699219 79.871094 71.84375 79.882812 71.984375 79.90625 C 72.046875 79.917969 72.105469 79.871094 72.117188 79.796875 C 72.125 79.726562 72.082031 79.65625 72.019531 79.648438 C 71.867188 79.621094 71.710938 79.605469 71.558594 79.605469 C 70.753906 79.609375 69.964844 79.957031 69.300781 80.460938 C 69.1875 80.546875 69.078125 80.640625 68.96875 80.734375 C 68.515625 79.402344 67.257812 76.277344 66.042969 73.179688 C 65.421875 71.59375 64.8125 70.019531 64.328125 68.699219 C 63.84375 67.378906 63.488281 66.304688 63.371094 65.753906 C 63.355469 65.683594 63.292969 65.636719 63.230469 65.65625 C 63.167969 65.671875 63.128906 65.742188 63.144531 65.8125 C 63.269531 66.402344 63.628906 67.472656 64.113281 68.800781 C 64.839844 70.785156 65.847656 73.339844 66.753906 75.636719 C 67.65625 77.925781 68.460938 79.957031 68.777344 80.910156 C 68.21875 81.433594 67.734375 82.046875 67.253906 82.648438 C 67.210938 82.703125 67.214844 82.785156 67.265625 82.835938 C 67.3125 82.882812 67.386719 82.878906 67.429688 82.824219 C 68.050781 82.039062 68.675781 81.257812 69.429688 80.679688 C 70.066406 80.199219 70.8125 79.871094 71.558594 79.871094 Z M 71.558594 79.871094 "/>
<path style=" stroke:none;fill-rule:nonzero;fill:rgb(15.294118%,13.333334%,30.980393%);fill-opacity:1;" d="M 51.667969 68.28125 C 51.15625 67.214844 50.957031 65.957031 50.285156 65.148438 C 49.003906 63.605469 46.746094 62.914062 42.789062 62.914062 C 39.753906 62.914062 37.386719 63.296875 36.132812 64.367188 C 34.890625 65.425781 34.402344 67.394531 33.984375 68.625 C 33.035156 71.421875 35.226562 73.285156 42.679688 73.285156 C 50.351562 73.285156 53.191406 71.472656 51.667969 68.28125 Z M 51.667969 68.28125 "/>
<path style=" stroke:none;fill-rule:nonzero;fill:rgb(27.843139%,73.725492%,79.215688%);fill-opacity:1;" d="M 51 67.839844 C 50.546875 66.949219 50.367188 65.898438 49.769531 65.226562 C 48.632812 63.9375 46.621094 63.363281 43.101562 63.363281 C 40.398438 63.363281 38.292969 63.683594 37.175781 64.574219 C 36.074219 65.457031 35.636719 67.097656 35.265625 68.125 C 34.425781 70.453125 36.371094 72.007812 43.003906 72.007812 C 49.828125 72.007812 52.355469 70.496094 51 67.839844 Z M 51 67.839844 "/>
<path style=" stroke:none;fill-rule:nonzero;fill:rgb(47.843137%,78.823531%,83.137256%);fill-opacity:1;" d="M 41.363281 63.820312 C 37.605469 63.820312 36.835938 65.660156 35.878906 67.621094 C 35.039062 69.347656 36.652344 70.722656 41.296875 70.722656 C 46.074219 70.722656 48.078125 69.355469 46.894531 67.394531 C 45.566406 65.199219 45.121094 63.820312 41.363281 63.820312 Z M 41.363281 63.820312 "/>
</g>
</svg>
